<ttFont>
          <CharString index="0">
            rmoveto
            -90 -55 -46 -80 -70 -47 39 56 -15 vhcurveto
            112 callsubr
            152 hlineto
            return
          </CharString>
          <CharString index="1">
            -83 callsubr
            -156 102 -108 163 -100 callsubr
            return
          </CharString>
          <CharString index="2">
            -56 -106 callgsubr
            32 33 return
          </CharString>
          <CharString index="3">
            -2 -13 -13 0 -11 hhcurveto
            -113 -50 68 97 81 35 34 45 44 25 -28 -70 hvcurveto
            -69 118 67 vlineto
            return
          </CharString>
          <CharString index="4">
            -68 -33 -35 -52 -48 18 -48 14 -25 hvcurveto
            94 hlineto
            -6 25 -4 28 18 vvcurveto
            33 10 10 24 vhcurveto
            return
          </CharString>
          <CharString index="5">
            hhcurveto
            69 57 26 40 27 -88 callgsubr
            return
          </CharString>
          <CharString index="6">
            rmoveto
            -16 callsubr
            -37 30 -30 37 38 30 30 37 38 -30 30 -38 hvcurveto
            return
          </CharString>
          <CharString index="7">
            -41 callgsubr
            hvcurveto
            -101 callgsubr
            return
          </CharString>
          <CharString index="8">
            -85 -96 -133 -136 80 -100 141 -29 callsubr
            return
          </CharString>
          <CharString index="9">
            vlineto
            -15 38 46 -7 42 hhcurveto
            120 82 68 109 55 -21 45 -43 27 hvcurveto
            return
          </CharString>
          <CharString index="10">
            -4 -9 -9 -2 -9 hhcurveto
            -30 -24 20 34 34 25 29 42 64 32 -47 -65 -108 -86 -61 -115 -110 -94 67 99 -29 hvcurveto
            7 1 10 2 5 2 rrcurveto
            72 15 23 52 76 vvcurveto
            return
          </CharString>
          <CharString index="11">
            rmoveto
            -48 vlineto
            -50 -31 -35 -54 -50 -24 25 39 38 31 31 66 vhcurveto
            -184 152 rmoveto
            25 38 56 20 55 hhcurveto
            74 23 -33 -53 hvcurveto
            -31 -74 vlineto
            -138 -72 -59 -95 -83 58 -65 99 78 38 35 30 16 hvcurveto
            -61 119 324 vlineto
            128 -66 64 -140 -70 -63 -16 -19 -31 vhcurveto
            endchar
          </CharString>
          <CharString index="12">
            -180 -93 callsubr
            100 hvcurveto
            return
          </CharString>
          <CharString index="13">
            -76 callgsubr
            -107 -99 hlineto
            221 -241 -39 callgsubr
            return
          </CharString>
          <CharString index="14">
            -99 callsubr
            88 53 45 return
          </CharString>
          <CharString index="15">
            -90 callgsubr
            -129 105 -84 127 return
          </CharString>
          <CharString index="16">
            -104 -98 callsubr
            return
          </CharString>
          <CharString index="17">
            98 vlineto
            -1 -6 -8 0 -5 hhcurveto
            -83 -37 53 83 return
          </CharString>
          <CharString index="18">
            rmoveto
            9 29 rlineto
            77 245 9 50 0 vvcurveto
            0 10 -50 76 -244 vhcurveto
            9 -30 rlineto
            80 -256 rmoveto
            136 hlineto
            -228 674 rlineto
            -163 hlineto
            -228 -674 rlineto
            132 hlineto
            48 153 rlineto
            255 hlineto
            endchar
          </CharString>
          <CharString index="19">
            118 -80 callgsubr
          </CharString>
          <CharString index="20">
            -95 82 -226 -160 hlineto
            -20 18 -25 13 -31 4 rrcurveto
            61 17 39 48 70 vvcurveto
            94 -67 61 -123 -37 -46 -9 -10 -26 vhcurveto
            -106 vlineto
            13 27 39 11 36 hhcurveto
            52 27 -24 -44 -45 -32 -26 -60 hvcurveto
            -31 -100 38 hlineto
            82 25 -34 -44 -70 -51 -22 -50 -42 -39 10 23 -45 hvcurveto
            -109 vlineto
            -15 39 47 -8 45 hhcurveto
            141 68 76 99 hvcurveto
            4 0 5 4 vvcurveto
            119 160 callsubr
            return
          </CharString>
          <CharString index="21">
            -104 callsubr
            78 32 33 return
          </CharString>
          <CharString index="22">
            119 callsubr
            -209 267 11 1 rlineto
            89 14 55 59 93 vvcurveto
            131 295 -273 vlineto
            -58 -38 -29 -48 -49 -36 34 54 52 35 40 54 4 11 0 -2 5 vhcurveto
            88 vlineto
            2 -9 -14 2 -12 hhcurveto
            -103 -82 -72 -106 -109 79 -72 98 41 36 11 22 28 hvcurveto
            -149 -88 callsubr
          </CharString>
          <CharString index="23">
            -95 106 -78 callsubr
            95 return
          </CharString>
          <CharString index="24">
            -56 callgsubr
            -116 -68 -86 -125 return
          </CharString>
          <CharString index="25">
            -179 -93 callgsubr
            return
          </CharString>
          <CharString index="26">
            hhcurveto
            -80 callsubr
          </CharString>
          <CharString index="27">
            16 18 1 2 17 hvcurveto
            -92 callgsubr
          </CharString>
          <CharString index="28">
            rmoveto
            24 -50 -61 9 -53 hhcurveto
            -140 -92 -75 -115 -114 86 -45 78 -36 hvcurveto
            73 -33 58 -22 -54 vvcurveto
            -52 -42 -31 -60 -64 -66 20 42 -58 vhcurveto
            -129 vlineto
            -28 49 72 -15 68 hhcurveto
            138 96 76 121 121 -93 45 -85 37 hvcurveto
            -63 28 -51 26 48 vvcurveto
            43 36 32 64 55 60 -18 -27 45 vhcurveto
            return
          </CharString>
          <CharString index="29">
            -565 -93 callgsubr
            return
          </CharString>
          <CharString index="30">
            -65 -58 -52 -68 -52 callgsubr
            return
          </CharString>
          <CharString index="31">
            rmoveto
            -14 -24 -28 -8 -34 hhcurveto
            -70 -52 47 71 28 7 24 13 19 hvcurveto
            return
          </CharString>
          <CharString index="32">
            15 25 8 32 37 vvcurveto
            125 return
          </CharString>
          <CharString index="33">
            -95 90 -191 hlineto
            -69 callgsubr
            44 37 56 return
          </CharString>
          <CharString index="34">
            rmoveto
            -116 -60 -35 -78 -74 -63 36 110 vhcurveto
            421 -126 -422 vlineto
            -172 107 -89 156 159 105 89 179 vhcurveto
            415 -126 vlineto
            return
          </CharString>
          <CharString index="35">
            97 vlineto
            -16 -67 -32 -3 -34 hhcurveto
            -110 -41 41 52 44 40 37 79 54 28 -26 -29 -12 -1 -22 -11 -17 hvcurveto
            115 hlineto
            9 19 1 23 15 vvcurveto
            79 -72 66 -120 -33 -30 -4 -6 -26 vhcurveto
            -20 160 callgsubr
          </CharString>
          <CharString index="36">
            vvcurveto
            -18 callgsubr
            vhcurveto
            -65 callgsubr
          </CharString>
          <CharString index="37">
            rmoveto
            -5 hlineto
            134 callsubr
            hvcurveto
            -94 vlineto
            4 11 19 2 17 hhcurveto
            55 36 -34 -60 -100 -77 -60 -110 -73 -55 29 50 44 29 27 63 hvcurveto
            37 98 -34 hlineto
            57 callgsubr
            188 hlineto
            255 hmoveto
            95 return
          </CharString>
          <CharString index="38">
            -57 -14 -23 -55 vhcurveto
            -67 -93 hlineto
            -156 57 122 -111 177 hhcurveto
            return
          </CharString>
          <CharString index="39">
            126 281 hlineto
            146 -11 95 0 vhcurveto
            0 38 -94 88 -148 vhcurveto
            164 -280 rlineto
            144 674 -127 -281 hlineto
            -155 8 -83 0 vhcurveto
            0 -34 82 -91 156 vhcurveto
            -162 281 rlineto
            -143 hlineto
            return
          </CharString>
          <CharString index="40">
            86 -22 -73 52 -110 hhcurveto
            -35 -39 -7 -8 -20 hvcurveto
            -99 vlineto
            9 22 33 8 31 hhcurveto
            64 39 -42 -61 -65 -38 -47 -78 -61 -49 20 22 -37 hvcurveto
            -107 vlineto
            -18 35 48 -18 73 hhcurveto
            127 5 81 72 15 103 rrcurveto
            return
          </CharString>
          <CharString index="41">
            -47 -36 -18 -25 -27 hvcurveto
            return
          </CharString>
          <CharString index="42">
            hhcurveto
            -70 -44 28 48 48 41 24 67 hvcurveto
            53 99 -44 hlineto
            -64 -43 20 51 51 39 31 74 hvcurveto
            2 95 return
          </CharString>
          <CharString index="43">
            -72 -47 -38 -57 -56 -30 28 75 vhcurveto
            return
          </CharString>
          <CharString index="44">
            64 callsubr
            -29 -33 -9 -10 -18 vhcurveto
            -92 vlineto
            7 13 21 7 21 -40 callsubr
            return
          </CharString>
          <CharString index="45">
            rmoveto
            41 30 30 40 39 -30 30 -41 -40 -31 -30 -39 -40 31 -30 40 hvcurveto
            -242 hmoveto
            40 30 30 40 39 -30 30 -40 -41 -30 -30 -39 -40 30 -30 41 hvcurveto
            return
          </CharString>
          <CharString index="46">
            vvcurveto
            -23 11 -30 17 -38 vhcurveto
            55 callsubr
            127 177 -268 144 callgsubr
            return
          </CharString>
          <CharString index="47">
            rmoveto
            203 -203 rlineto
            -20 -28 -32 -11 -35 hhcurveto
            -61 -47 33 77 hvcurveto
            return
          </CharString>
          <CharString index="48">
            -128 118 293 vlineto
            return
          </CharString>
          <CharString index="49">
            vvcurveto
            -85 callgsubr
            endchar
          </CharString>
          <CharString index="50">
            -211 vlineto
            -98 callgsubr
            return
          </CharString>
          <CharString index="51">
            -50 callsubr
            60 53 -26 -36 57 hvcurveto
            return
          </CharString>
          <CharString index="52">
            -95 365 -287 hlineto
            -107 callgsubr
            58 return
          </CharString>
          <CharString index="53">
            rmoveto
            -61 -49 47 99 91 42 59 70 60 53 -42 -115 -85 -51 -54 -64 hvcurveto
            115 393 rmoveto
            -73 vlineto
            48 -28 -45 31 -68 hhcurveto
            -127 -82 -109 -144 -168 102 -76 104 66 48 26 49 30 hvcurveto
            -44 vlineto
            -92 -47 -40 -91 -59 -60 17 31 -44 vhcurveto
            -122 vlineto
            -26 54 63 -10 58 hhcurveto
            132 114 72 169 hvcurveto
            461 vlineto
            endchar
          </CharString>
          <CharString index="54">
            vvcurveto
            91 callgsubr
            vhcurveto
            -13 callsubr
          </CharString>
          <CharString index="55">
            -9 vhcurveto
            61 -31 -57 44 -101 hhcurveto
            -25 hlineto
            -174 -99 callsubr
            86 53 47 91 hvcurveto
            27 hlineto
            55 24 -31 -31 4 hvcurveto
            -33 vlineto
            return
          </CharString>
          <CharString index="56">
            11 17 34 11 26 hhcurveto
            39 24 -20 -29 -46 -46 -24 -56 -88 -58 64 75 96 87 44 105 34 35 -4 -6 33 hvcurveto
            return
          </CharString>
          <CharString index="57">
            73 -45 -59 39 -83 hhcurveto
            -33 -32 -5 -3 -10 hvcurveto
            -91 vlineto
            -71 callgsubr
            return
          </CharString>
          <CharString index="58">
            32 callsubr
            -53 -49 35 51 -23 vhcurveto
            -107 -233 116 94 hlineto
            -23 35 44 -14 49 hhcurveto
            108 72 67 96 26 -4 22 -9 20 hvcurveto
            return
          </CharString>
          <CharString index="59">
            rmoveto
            42 26 -37 -36 -44 -29 -34 -36 -22 hvcurveto
            -55 35 -18 34 35 vvcurveto
            40 27 29 43 vhcurveto
            260 88 rmoveto
            -358 vlineto
            -64 18 -52 16 -43 17 rrcurveto
            46 33 38 51 64 vvcurveto
            98 -75 69 -113 -114 -70 -77 -85 return
          </CharString>
          <CharString index="60">
            3 -12 -13 2 -13 16 callgsubr
            -48 39 -80 hhcurveto
            return
          </CharString>
          <CharString index="61">
            -98 callsubr
            164 -362 -5 callsubr
            107 hlineto
            endchar
          </CharString>
          <CharString index="62">
            rmoveto
            -248 -108 124 -159 hlineto
            -11 -30 -34 -7 -37 hhcurveto
            -141 -86 88 142 140 90 91 135 55 68 -12 -43 72 hvcurveto
            129 vlineto
            33 -63 -71 10 -63 hhcurveto
            -204 -154 -137 -211 -216 147 -130 210 105 79 33 33 46 hvcurveto
            -1 11 rlineto
            1 hlineto
            endchar
          </CharString>
          <CharString index="63">
            117 171 callgsubr
          </CharString>
          <CharString index="64">
            rlineto
            141 hlineto
            return
          </CharString>
          <CharString index="65">
            -95 100 -303 hlineto
            -165 114 -69 152 66 52 12 15 41 vhcurveto
            106 vlineto
            -19 -41 -53 -13 -56 hhcurveto
            -95 -63 40 93 hvcurveto
            303 210 -121 vlineto
            -55 -23 -24 -50 -14 -10 2 3 -12 vhcurveto
            -93 vlineto
            -6 22 15 0 21 hhcurveto
            97 70 55 109 hvcurveto
            130 80 vlineto
            endchar
          </CharString>
          <CharString index="66">
            rmoveto
            101 hlineto
            116 169 78 callgsubr
            return
          </CharString>
          <CharString index="67">
            38 callsubr
            -153 106 callgsubr
            -24 -40 callgsubr
            return
          </CharString>
          <CharString index="68" raw="1">
            1ef72c06 0b  
          </CharString>
          <CharString index="69">
            107 callsubr
            -29 -32 -9 -10 -19 62 callsubr
            -106 106 callgsubr
            -23 -40 callgsubr
            return
          </CharString>
          <CharString index="70">
            54 callgsubr
            303 vlineto
            62 43 37 54 53 34 -43 -53 -69 -38 -34 -62 -6 -6 0 1 -5 vhcurveto
            -95 vlineto
            -2 7 9 0 8 hhcurveto
            114 96 66 134 104 -67 85 -116 -49 -40 -16 -27 -29 hvcurveto
            112 vlineto
            endchar
          </CharString>
          <CharString index="71">
            145 callsubr
            rcurveline
            54 callgsubr
            565 106 vlineto
            endchar
          </CharString>
          <CharString index="72">
            rmoveto
            126 90 -126 122 -120 -122 -76 -90 76 -256 hlineto
            -107 52 -59 112 25 40 5 12 25 vhcurveto
            103 vlineto
            -13 -20 -27 -8 -23 hhcurveto
            -39 -25 22 43 hvcurveto
            return
          </CharString>
          <CharString index="73">
            391 -57 callgsubr
            181 190 vlineto
            return
          </CharString>
          <CharString index="74">
            363 rmoveto
            -177 202 177 hlineto
            return
          </CharString>
          <CharString index="75">
            13 12 1 1 11 return
          </CharString>
          <CharString index="76">
            rlineto
            151 hlineto
            -234 245 rlineto
            return
          </CharString>
          <CharString index="77">
            rmoveto
            -67 -47 -45 -75 -74 -53 43 70 78 61 32 64 vhcurveto
            74 -1 50 -36 -74 vvcurveto
            188 300 rmoveto
            95 -625 -95 277 -98 vlineto
            -107 -11 -100 -63 -126 vvcurveto
            return
          </CharString>
          <CharString index="78">
            -32 callsubr
            hvcurveto
            -90 callsubr
            return
          </CharString>
          <CharString index="79">
            565 68 callgsubr
          </CharString>
          <CharString index="80">
            rmoveto
            -4 -10 -9 -2 -9 hhcurveto
            -34 -20 21 30 34 28 25 43 60 32 -45 -65 -109 -98 -48 -106 -109 -89 60 99 -29 hvcurveto
            10 1 rlineto
            79 12 26 48 85 vvcurveto
            115 314 95 -641 -95 210 -93 vlineto
            162 callsubr
            96 -95 154 -17 -196 -156 rcurveline
            175 hlineto
            264 211 rlineto
            72 58 52 64 90 vvcurveto
            106 -71 80 -137 -94 -74 -61 -86 -83 62 -53 77 16 19 3 6 17 vhcurveto
            endchar
          </CharString>
          <CharString index="81">
            -39 -34 9 17 -32 return
          </CharString>
          <CharString index="82">
            106 vlineto
            endchar
          </CharString>
          <CharString index="83">
            20 -101 callsubr
            return
          </CharString>
          <CharString index="84">
            -95 721 -287 hlineto
            -46 callgsubr
            -34 45 53 60 39 42 61 6 6 0 -1 6 vhcurveto
            95 vlineto
            1 -8 -7 0 -8 hhcurveto
            -24 -23 -3 -6 -22 hvcurveto
            -217 hlineto
            -95 callsubr
            88 hlineto
            -14 -27 -7 -31 -35 vvcurveto
            -111 77 -79 116 47 36 17 25 27 vhcurveto
            -59 callsubr
            return
          </CharString>
          <CharString index="85">
            hhcurveto
            43 29 -16 -26 -53 -75 -24 -74 -16 hvcurveto
            -164 20 97 -72 120 hhcurveto
            69 55 28 38 105 callgsubr
            119 vlineto
            endchar
          </CharString>
          <CharString index="86">
            rmoveto
            -145 -169 156 callgsubr
            81 99 81 -99 156 callgsubr
            -145 169 rlineto
            return
          </CharString>
          <CharString index="87">
            rmoveto
            82 hlineto
            76 42 -39 -69 -68 -36 -44 -80 hvcurveto
            -84 hlineto
            222 -350 rmoveto
            151 hlineto
            -173 266 76 31 51 65 1 99 rlinecurve
            127 -91 86 -155 vhcurveto
            -208 -674 126 246 69 hlineto
            endchar
          </CharString>
          <CharString index="88">
            hhcurveto
            53 41 18 30 29 hvcurveto
            24 callgsubr
          </CharString>
          <CharString index="89">
            rmoveto
            138 95 -617 -95 362 -86 -23 hlineto
            -156 -2 -117 -79 -150 vvcurveto
            -101 60 -81 95 -34 vhcurveto
            -127 -164 119 callsubr
            86 129 87 -129 -43 callsubr
            -125 161 rlineto
            77 25 44 56 70 vvcurveto
            -7 callgsubr
          </CharString>
          <CharString index="90">
            167 -24 callsubr
            return
          </CharString>
          <CharString index="91">
            -37 -30 -30 -38 return
          </CharString>
          <CharString index="92">
            378 rmoveto
            -64 callsubr
            194 190 vlineto
            return
          </CharString>
          <CharString index="93">
            rmoveto
            203 -265 -43 callsubr
            -208 268 rlineto
            2 9 1 1 3 hvcurveto
            89 11 53 61 92 vvcurveto
            131 102 95 -455 -95 236 -124 vlineto
            -54 -30 -29 -73 vhcurveto
            -72 hlineto
            endchar
          </CharString>
          <CharString index="94">
            -104 -46 callsubr
          </CharString>
          <CharString index="95">
            -71 callgsubr
            64 56 -30 -39 61 hvcurveto
            return
          </CharString>
          <CharString index="96">
            101 callgsubr
            -69 55 -37 76 -3 vhcurveto
            -87 -10 -55 -49 -77 vvcurveto
            -102 91 -60 118 return
          </CharString>
          <CharString index="97">
            rmoveto
            190 -174 hlineto
            -72 -47 -39 -57 -56 -30 29 75 vhcurveto
            308 181 rmoveto
            144 95 -665 83 callgsubr
            303 86 callsubr
          </CharString>
          <CharString index="98">
            169 -274 rlineto
            135 hlineto
            -170 276 rlineto
            1 3 6 0 2 hhcurveto
            32 5 26 11 21 16 rrcurveto
            28 51 57 26 71 hhcurveto
            52 46 -23 -23 34 hvcurveto
            -156 -51 rlineto
            -53 -18 -22 -32 -39 vvcurveto
            -45 34 -50 37 -31 vhcurveto
            77 26 rlineto
            -15 22 -14 24 23 vvcurveto
            17 9 17 20 10 vhcurveto
            124 51 rlineto
            -241 -11 callgsubr
          </CharString>
          <CharString index="99">
            hlineto
            18 -68 callgsubr
            return
          </CharString>
          <CharString index="100">
            -25 3 -24 hhcurveto
            return
          </CharString>
          <CharString index="101">
            rmoveto
            -147 hlineto
            -46 -98 rlineto
            -94 -192 -9 -37 0 vvcurveto
            0 -12 37 -88 192 vhcurveto
            -45 98 rlineto
            -147 hlineto
            230 -428 rlineto
            -246 126 250 vlineto
            endchar
          </CharString>
          <CharString index="102">
            118 565 return
          </CharString>
          <CharString index="103">
            52 99 -44 hlineto
            -64 -43 18 51 51 39 31 75 hvcurveto
            2 95 -323 -95 141 hlineto
            -34 -18 -18 -32 -40 vvcurveto
            -69 52 -37 83 -4 vhcurveto
            -85 -8 -60 -43 -74 vvcurveto
            -85 65 -55 93 -16 vhcurveto
            -51 -30 rlineto
            -43 -25 -16 -28 -31 vvcurveto
            -52 47 -49 48 -26 vhcurveto
            69 43 rlineto
            -25 22 -17 22 25 vvcurveto
            13 6 13 13 9 vhcurveto
            return
          </CharString>
          <CharString index="104">
            100 127 177 -268 115 171 callgsubr
          </CharString>
          <CharString index="105">
            41 64 63 46 42 58 22 17 -2 -7 20 hvcurveto
            102 vlineto
            115 callsubr
            -129 -84 -89 -116 return
          </CharString>
          <CharString index="106">
            477 rmoveto
            15 -26 -32 8 -35 hhcurveto
            -59 callgsubr
            82 vlineto
            -4 -9 -9 -2 -9 hhcurveto
            -30 -24 20 34 34 27 29 44 60 34 -45 -65 -109 -99 -62 -107 -109 -92 67 99 -29 hvcurveto
            3 1 7 0 3 1 rrcurveto
            76 13 28 50 84 vvcurveto
            119 311 vlineto
            return
          </CharString>
          <CharString index="107">
            -75 callgsubr
            endchar
          </CharString>
          <CharString index="108">
            -59 -80 vlineto
            3 callsubr
            return
          </CharString>
          <CharString index="109">
            rmoveto
            -57 -32 -37 -59 -59 -32 37 57 vhcurveto
            -94 hlineto
            -117 74 -56 111 112 73 56 117 vhcurveto
            return
          </CharString>
          <CharString index="110">
            172 callgsubr
            82 callgsubr
            hvcurveto
            -96 callgsubr
            return
          </CharString>
          <CharString index="111">
            -54 2 -29 8 31 vvcurveto
            33 29 11 45 vhcurveto
            179 2 hlineto
            0 vlineto
            149 return
          </CharString>
          <CharString index="112">
            -128 -14 callgsubr
            51 return
          </CharString>
          <CharString index="113">
            53 -143 97 -94 146 -18 -196 -156 rcurveline
            175 hlineto
            137 109 90 67 58 54 rrcurveto
            -121 -88 callsubr
          </CharString>
          <CharString index="114">
            rmoveto
            -469 -103 317 hlineto
            -322 -475 rlineto
            -96 487 103 -336 vlineto
            323 478 rlineto
            return
          </CharString>
          <CharString index="115">
            -127 -139 rlineto
            -23 callgsubr
            return
          </CharString>
          <CharString index="116">
            rmoveto
            -126 hlineto
            -91 -169 rlineto
            101 hlineto
            return
          </CharString>
          <CharString index="117">
            -104 160 -42 154 callgsubr
            rlinecurve
            161 callgsubr
            -99 vlineto
            100 callgsubr
            21 hvcurveto
            73 -108 rlineto
            return
          </CharString>
          <CharString index="118">
            42 callsubr
            80 -369 -44 callsubr
          </CharString>
          <CharString index="119">
            hlineto
            -54 18 -49 49 -31 vhcurveto
            -54 -30 -37 -50 -71 vvcurveto
            -125 123 -68 137 149 113 75 117 70 -40 50 -58 31 vhcurveto
            return
          </CharString>
          <CharString index="120">
            58 55 43 137 172 54 -48 -77 vhcurveto
            -30 -106 -84 callsubr
            return
          </CharString>
          <CharString index="121">
            hhcurveto
            80 71 35 39 25 hvcurveto
            -171 -5 callsubr
            99 95 return
          </CharString>
          <CharString index="122">
            -255 rmoveto
            90 hlineto
            115 204 rlineto
            -129 hlineto
            return
          </CharString>
          <CharString index="123">
            rlineto
            19 -27 -24 11 -30 hhcurveto
            -64 -39 -77 -69 -11 hvcurveto
            62 -47 rlineto
            33 16 28 34 32 hhcurveto
            11 12 -4 -9 11 hvcurveto
            111 -73 -201 -40 rlineto
            -57 -12 -25 -31 -41 vvcurveto
            -51 38 -59 21 -23 vhcurveto
            76 18 rlineto
            -6 19 -8 23 21 vvcurveto
            28 9 20 32 8 vhcurveto
            return
          </CharString>
          <CharString index="124">
            47 36 17 25 27 hvcurveto
            -87 callgsubr
          </CharString>
          <CharString index="125">
            519 rmoveto
            189 -175 rlineto
            -78 hlineto
            -64 -47 26 72 hvcurveto
            30 123 rmoveto
            174 -54 hlineto
            -42 5 -42 7 -39 vhcurveto
            52 -139 rmoveto
            7 vlineto
            54 2 rlineto
            307 98 95 -625 -95 87 -121 vlineto
            -74 31 -57 62 -16 vhcurveto
            -63 -23 -37 -55 -68 vvcurveto
            return
          </CharString>
          <CharString index="126">
            rmoveto
            -95 173 28 callsubr
            -269 vlineto
            -362 -316 rlineto
            158 hlineto
            204 175 rlineto
            -155 116 -28 callsubr
          </CharString>
          <CharString index="127">
            -575 -138 735 rmoveto
            112 101 63 114 hvcurveto
            -114 hlineto
            -52 -37 -39 -62 -63 -38 70 callgsubr
            92 -58 123 vhcurveto
            -63 232 rmoveto
            -35 27 -28 36 35 28 28 35 35 -28 28 -35 -36 -27 -28 -35 vhcurveto
            endchar
          </CharString>
          <CharString index="128">
            -43 35 -35 43 43 34 35 43 43 -34 34 -43 -43 -35 -34 -43 vhcurveto
            return
          </CharString>
          <CharString index="129">
            -94 -89 -38 -99 -88 68 -39 124 69 38 -11 -45 -45 -34 -24 109 callgsubr
            58 100 98 -68 46 -119 3 hvcurveto
            -87 2 -21 7 29 vvcurveto
            29 26 11 44 vhcurveto
            return
          </CharString>
          <CharString index="130">
            rmoveto
            -143 172 rlineto
            -119 hlineto
            154 callsubr
            return
          </CharString>
          <CharString index="131">
            -266 vlineto
            30 callgsubr
          </CharString>
          <CharString index="132">
            -58 callgsubr
            -41 callgsubr
            return
          </CharString>
          <CharString index="133">
            rmoveto
            28 callgsubr
          </CharString>
          <CharString index="134">
            -29 callsubr
            88 53 45 79 hvcurveto
            18 hlineto
            26 30 -11 -27 11 hvcurveto
            -141 32 98 -77 114 -102 callsubr
            vlineto
            endchar
          </CharString>
          <CharString index="135">
            -57 callsubr
            135 return
          </CharString>
          <CharString index="136">
            -10 282 -8 -78 callgsubr
            return
          </CharString>
          <CharString index="137">
            -42 callgsubr
            -75 -86 -37 -171 -41 vhcurveto
            return
          </CharString>
          <CharString index="138">
            56 -35 -54 29 -63 hhcurveto
            -125 -94 -98 -163 -136 78 -124 139 66 54 30 56 34 hvcurveto
            -79 120 return
          </CharString>
          <CharString index="139">
            62 -2 37 -18 -46 vvcurveto
            -43 -30 -24 -46 return
          </CharString>
          <CharString index="140">
            -95 90 -190 hlineto
            -141 67 -62 119 return
          </CharString>
          <CharString index="141">
            -33 33 46 36 16 30 32 23 hvcurveto
            return
          </CharString>
          <CharString index="142">
            vlineto
            -89 callgsubr
            5 -37 8 -33 13 -29 rrcurveto
            -46 -50 -62 -29 -70 hhcurveto
            -69 -67 31 63 -21 hvcurveto
            142 40 91 127 callgsubr
            99 -65 62 -98 -106 -59 -66 -79 return
          </CharString>
          <CharString index="143">
            rmoveto
            -126 hlineto
            116 -169 rlineto
            101 hlineto
            endchar
          </CharString>
          <CharString index="144">
            -95 253 hlineto
            20 -20 16 -27 -32 vvcurveto
            -67 -43 -22 -71 vhcurveto
            -37 -100 43 hlineto
            99 43 -36 -53 -65 -44 -31 -86 -44 -48 10 23 -44 hvcurveto
            -108 vlineto
            -15 42 54 -8 47 hhcurveto
            153 88 69 115 return
          </CharString>
          <CharString index="145">
            hhcurveto
            33 13 -19 -35 hvcurveto
            return
          </CharString>
          <CharString index="146">
            hlineto
            -103 callgsubr
            164 -362 -5 callsubr
            107 hlineto
            endchar
          </CharString>
          <CharString index="147">
            -26 callsubr
            hvcurveto
            -104 vlineto
            -15 38 46 -7 42 hhcurveto
            return
          </CharString>
          <CharString index="148">
            53 callgsubr
            61 99 99 -68 50 -119 3 hvcurveto
            -87 2 -21 13 30 vvcurveto
            28 26 12 44 vhcurveto
            312 -405 -5 callsubr
            112 return
          </CharString>
          <CharString index="149">
            -29 callsubr
            88 53 45 100 hvcurveto
            return
          </CharString>
          <CharString index="150">
            96 1 58 39 28 42 rrcurveto
            -176 116 -80 callgsubr
          </CharString>
          <CharString index="151">
            -315 70 hmoveto
            120 507 -120 hlineto
            return
          </CharString>
          <CharString index="152">
            32 -69 rlineto
            102 130 return
          </CharString>
          <CharString index="153">
            -42 -27 -25 -45 -58 vvcurveto
            -94 78 -67 103 58 48 23 37 33 vhcurveto
            -103 116 508 162 callgsubr
            40 71 71 53 42 78 hvcurveto
            endchar
          </CharString>
          <CharString index="154">
            vvcurveto
            -135 107 -99 153 52 callgsubr
            return
          </CharString>
          <CharString index="155">
            -12 -11 -11 -97 callgsubr
            return
          </CharString>
          <CharString index="156">
            52 98 -44 hlineto
            -63 -44 18 51 51 40 31 74 hvcurveto
            2 95 -325 -95 143 hlineto
            -34 -18 -18 -32 -40 vvcurveto
            -70 53 -36 83 -4 vhcurveto
            -89 -5 -57 -50 -72 vvcurveto
            return
          </CharString>
          <CharString index="157">
            -5 hlineto
            -85 callgsubr
            endchar
          </CharString>
          <CharString index="158">
            -15 callsubr
            480 hmoveto
            95 return
          </CharString>
          <CharString index="159">
            -66 -68 -113 hvcurveto
            -30 -74 -90 74 -417 120 417 return
          </CharString>
          <CharString index="160">
            vlineto
            7 13 21 7 21 38 callsubr
            return
          </CharString>
          <CharString index="161">
            -40 17 51 30 15 23 25 18 hvcurveto
            return
          </CharString>
          <CharString index="162">
            32 -71 rlineto
            100 return
          </CharString>
          <CharString index="163">
            250 rmoveto
            172 329 rlineto
            -329 vlineto
            206 hmoveto
            -86 405 -193 hlineto
            -218 -405 rlineto
            -103 291 -147 120 147 86 vlineto
            endchar
          </CharString>
          <CharString index="164">
            393 rmoveto
            172 115 95 return
          </CharString>
          <CharString index="165">
            337 rmoveto
            -100 -75 -61 -100 105 callsubr
            vhcurveto
            52 99 -43 hlineto
            -63 54 callsubr
            227 hlineto
            84 callsubr
            return
          </CharString>
          <CharString index="166">
            -133 -129 rlineto
            152 hlineto
            173 173 rlineto
            -82 callgsubr
            return
          </CharString>
          <CharString index="167">
            -59 -34 41 61 61 33 45 59 42 38 -24 -27 26 hvcurveto
            -58 -19 -13 -99 -73 hhcurveto
            return
          </CharString>
          <CharString index="168">
            rmoveto
            -31 23 -23 31 31 24 23 31 30 -24 24 -31 -31 -23 -24 -30 vhcurveto
            endchar
          </CharString>
          <CharString index="169">
            vhcurveto
            -92 53 callsubr
            return
          </CharString>
          <CharString index="170">
            196 634 -196 hlineto
            236 -185 rmoveto
            196 185 -196 hlineto
            return
          </CharString>
          <CharString index="171">
            164 126 callsubr
            return
          </CharString>
          <CharString index="172">
            vhcurveto
            -95 vlineto
            -1 7 return
          </CharString>
          <CharString index="173">
            -268 hlineto
            -74 callgsubr
            return
          </CharString>
          <CharString index="174">
            -82 callgsubr
            196 172 115 95 hlineto
            endchar
          </CharString>
          <CharString index="175">
            -95 126 hlineto
            101 callgsubr
            -69 54 -37 76 -3 vhcurveto
            -86 -10 -55 -49 -77 vvcurveto
            -92 74 -54 88 -9 vhcurveto
            -147 -130 rlineto
            return
          </CharString>
          <CharString index="176">
            rmoveto
            -91 169 78 callgsubr
            116 -169 rlineto
            return
          </CharString>
          <CharString index="177">
            40 32 31 40 40 -32 31 -40 return
          </CharString>
          <CharString index="178">
            15 rmoveto
            -73 -62 -38 -53 -52 -35 32 48 41 25 36 50 10 vhcurveto
            46 2 56 17 25 34 rrcurveto
            97 269 rmoveto
            172 119 95 return
          </CharString>
          <CharString index="179">
            -102 callgsubr
            -129 -84 -89 -116 return
          </CharString>
          <CharString index="180">
            -60 callsubr
            25 194 rmoveto
            220 -191 hlineto
            -12 1 -12 1 -11 vhcurveto
            return
          </CharString>
          <CharString index="181">
            120 267 hlineto
            -56 35 54 -27 65 hhcurveto
            137 80 115 148 153 -83 105 -133 -68 -53 -31 -54 -34 hvcurveto
            endchar
          </CharString>
          <CharString index="182">
            99 -65 62 -98 -106 -59 -66 -79 -26 5 -21 7 -19 155 callgsubr
            -33 callgsubr
            return
          </CharString>
          <CharString index="183">
            -100 -107 93 -26 104 -2 hvcurveto
            32 callsubr
            return
          </CharString>
          <CharString index="184">
            vlineto
            92 callsubr
            return
          </CharString>
          <CharString index="185">
            126 -11 hlineto
            55 callgsubr
            15 2 hlineto
            1 3 4 0 3 38 callsubr
            -148 -227 vlineto
            return
          </CharString>
          <CharString index="186">
            130 169 -54 hlineto
            -354 -306 rlineto
            162 hlineto
            192 170 rlineto
            -130 115 -28 callsubr
          </CharString>
          <CharString index="187">
            rmoveto
            136 95 -583 -95 331 -59 -80 hlineto
            return
          </CharString>
          <CharString index="188">
            -34 -18 -17 -32 -40 vvcurveto
            return
          </CharString>
          <CharString index="189">
            hlineto
            -180 -85 -103 -133 -131 86 -104 130 -1 hvcurveto
            10 102 hlineto
            -67 5 -41 49 79 vvcurveto
            88 53 45 100 vhcurveto
            return
          </CharString>
          <CharString index="190">
            rmoveto
            -127 hlineto
            146 -162 -146 -162 rlineto
            127 hlineto
            return
          </CharString>
          <CharString index="191">
            223 95 rmoveto
            return
          </CharString>
          <CharString index="192">
            352 rmoveto
            -90 -54 -46 -81 -70 -47 39 56 -15 vhcurveto
            72 23 66 49 94 vvcurveto
            37 -10 32 -12 19 vhcurveto
            151 hlineto
            return
          </CharString>
          <CharString index="193">
            163 callsubr
            91 62 rlineto
            68 -33 -56 44 -87 22 callgsubr
            endchar
          </CharString>
          <CharString index="194">
            440 rmoveto
            125 297 -167 vlineto
            32 -34 -56 29 -84 hhcurveto
            -48 -42 -11 -14 -33 hvcurveto
            520 226 rmoveto
            return
          </CharString>
          <CharString index="195">
            -127 65 -61 120 119 71 65 125 vhcurveto
            212 134 -565 -11 callgsubr
          </CharString>
          <CharString index="196">
            -43 callsubr
            -185 260 rlineto
            -5 35 46 -4 60 hhcurveto
            157 -251 -44 callsubr
          </CharString>
          <CharString index="197">
            -118 82 -93 131 46 62 17 36 26 return
          </CharString>
          <CharString index="198">
            75 124 111 -76 79 -117 return
          </CharString>
          <CharString index="199">
            224 95 rmoveto
            return
          </CharString>
          <CharString index="200">
            19 311 96 rmoveto
            -64 -62 52 109 111 67 44 61 67 53 -55 -103 -102 -52 -56 -70 hvcurveto
            -126 return
          </CharString>
          <CharString index="201">
            -128 116 279 162 callgsubr
            42 73 71 50 44 78 hvcurveto
            endchar
          </CharString>
          <CharString index="202">
            vvcurveto
            -112 114 -59 131 176 131 105 160 68 -28 52 -47 31 vhcurveto
            97 vlineto
            endchar
          </CharString>
          <CharString index="203">
            -22 callgsubr
            -294 -169 164 vlineto
            107 callsubr
            return
          </CharString>
          <CharString index="204">
            -115 46 -60 78 -18 vhcurveto
            145 callsubr
            rlineto
            54 callgsubr
            return
          </CharString>
          <CharString index="205">
            vlineto
            127 callsubr
            689 194 rmoveto
            return
          </CharString>
          <CharString index="206">
            -76 -67 -53 33 142 callsubr
            return
          </CharString>
          <CharString index="207">
            118 171 callgsubr
          </CharString>
          <CharString index="208">
            -417 120 417 101 90 -101 29 hlineto
            67 32 15 47 23 25 -4 -7 25 vhcurveto
            -607 return
          </CharString>
          <CharString index="209">
            -31 -42 21 -59 hhcurveto
            -74 -56 -30 -67 -83 callsubr
            return
          </CharString>
          <CharString index="210">
            hlineto
            81 callsubr
            -24 6 -20 11 -16 vhcurveto
            return
          </CharString>
          <CharString index="211">
            64 callsubr
            -13 -15 -2 -3 -13 vhcurveto
            return
          </CharString>
          <CharString index="212">
            -55 -48 22 51 48 40 30 65 return
          </CharString>
          <CharString index="213">
            hvcurveto
            -112 -83 callgsubr
            return
          </CharString>
          <CharString index="214">
            88 -43 47 -94 return
          </CharString>
          <CharString index="215">
            -78 -112 hvcurveto
            -68 147 callgsubr
            57 33 34 return
          </CharString>
          <CharString index="216">
            440 1 callgsubr
            return
          </CharString>
          <CharString index="217">
            -142 71 -60 153 callsubr
            30 29 vhcurveto
            24 callgsubr
          </CharString>
          <CharString index="218">
            vvcurveto
            -24 -3 -28 -6 -16 vhcurveto
            106 hlineto
            6 20 4 32 25 vvcurveto
            136 -102 83 -159 return
          </CharString>
          <CharString index="219">
            72 23 66 49 94 vvcurveto
            37 -10 32 -13 19 vhcurveto
            return
          </CharString>
          <CharString index="220">
            22 -61 -16 callgsubr
            return
          </CharString>
          <CharString index="221">
            144 callgsubr
            95 return
          </CharString>
          <CharString index="222">
            5 -19 -7 callsubr
            return
          </CharString>
          <CharString index="223">
            rmoveto
            83 -328 -83 vlineto
            return
          </CharString>
          <CharString index="224">
            -25 -4 -3 -18 hvcurveto
            return
          </CharString>
          <CharString index="225">
            -54 2 -29 8 31 vvcurveto
            33 29 12 45 vhcurveto
            179 1 hlineto
            7 -1 rlineto
            150 return
          </CharString>
          <CharString index="226">
            rlineto
            142 hlineto
            return
          </CharString>
          <CharString index="227">
            hlineto
            -2 -6 -1 -7 -8 vvcurveto
            -24 -40 callgsubr
            return
          </CharString>
          <CharString index="228">
            hlineto
            -89 callgsubr
            627 288 rmoveto
            return
          </CharString>
          <CharString index="229">
            509 -22 callgsubr
            -536 -95 536 hlineto
            return
          </CharString>
          <CharString index="230">
            -127 104 -86 118 69 57 26 40 38 return
          </CharString>
          <CharString index="231">
            36 44 43 36 -36 -44 -43 -36 -36 -43 -44 return
          </CharString>
          <CharString index="232">
            114 callgsubr
            -84 hlineto
            return
          </CharString>
          <CharString index="233">
            hlineto
            107 callsubr
            return
          </CharString>
          <CharString index="234">
            18 -68 callgsubr
            -34 -22 -30 -48 -22 vhcurveto
            39 -27 -49 31 -75 hhcurveto
            return
          </CharString>
          <CharString index="235">
            rmoveto
            -36 30 -31 37 36 31 31 36 36 -31 31 -36 -37 -30 -31 -36 vhcurveto
            return
          </CharString>
          <CharString index="236">
            -65 -47 33 58 -20 hvcurveto
            72 24 66 45 94 vvcurveto
            37 -10 32 -13 19 vhcurveto
            return
          </CharString>
          <CharString index="237">
            -341 22 447 rmoveto
            102 hlineto
            129 247 rlineto
            -137 hlineto
            endchar
          </CharString>
          <CharString index="238">
            -65 -223 vlineto
            -80 -62 -37 -75 return
          </CharString>
          <CharString index="239">
            rmoveto
            100 callgsubr
            21 hvcurveto
            78 -115 rlineto
            return
          </CharString>
          <CharString index="240">
            -40 31 -31 40 41 31 31 40 40 -31 32 -41 -40 -31 -32 -40 vhcurveto
            return
          </CharString>
          <CharString index="241">
            -21 -29 -2 -5 -16 return
          </CharString>
          <CharString index="242">
            108 vlineto
            15 -31 -35 5 -38 hhcurveto
            -97 -61 -66 -94 hvcurveto
            -69 vlineto
            return
          </CharString>
          <CharString index="243">
            115 callgsubr
            endchar
          </CharString>
          <CharString index="244">
            hhcurveto
            -59 -67 -17 -24 -38 hvcurveto
            -107 vlineto
            22 36 63 25 61 hhcurveto
            return
          </CharString>
          <CharString index="245">
            hhcurveto
            -67 -49 41 64 63 46 42 58 22 17 -2 -7 20 hvcurveto
            return
          </CharString>
          <CharString index="246">
            70 hmoveto
            120 707 -120 hlineto
            return
          </CharString>
          <CharString index="247">
            hhcurveto
            -120 -93 -75 -124 return
          </CharString>
          <CharString index="248">
            -130 100 -70 121 return
          </CharString>
          <CharString index="249">
            61 -20 vhcurveto
            142 40 return
          </CharString>
          <CharString index="250">
            -7 -17 -23 -31 vvcurveto
            return
          </CharString>
          <CharString index="251">
            42 33 3 14 64 return
          </CharString>
          <CharString index="252">
            -171 -195 return
          </CharString>
          <CharString index="253">
            -95 222 125 callsubr
            return
          </CharString>
          <CharString index="254">
            498 rmoveto
            -57 hlineto
            -163 -284 rlineto
            57 hlineto
            endchar
          </CharString>
          <CharString index="255">
            65 vlineto
            62 32 33 47 33 27 -12 -9 19 vhcurveto
            endchar
          </CharString>
          <CharString index="256">
            170 callgsubr
            -128 hlineto
            return
          </CharString>
          <CharString index="257">
            vlineto
            -25 -25 -12 -33 -33 vvcurveto
            -69 47 -51 71 -4 vhcurveto
            return
          </CharString>
          <CharString index="258">
            280 124 callgsubr
            return
          </CharString>
          <CharString index="259">
            -106 -367 134 callgsubr
            return
          </CharString>
          <CharString index="260">
            114 53 41 18 return
          </CharString>
          <CharString index="261">
            121 -172 rlineto
            return
          </CharString>
          <CharString index="262">
            565 rmoveto
            95 return
          </CharString>
          <CharString index="263">
            11 -20 -33 8 -32 hhcurveto
            -75 -55 -46 -64 -12 hvcurveto
            return
          </CharString>
          <CharString index="264">
            -43 -41 26 28 -26 hvcurveto
            63 15 17 89 76 hhcurveto
            return
          </CharString>
          <CharString index="265">
            -31 23 -23 30 32 23 23 31 30 -23 24 -32 return
          </CharString>
          <CharString index="266">
            40 32 32 41 40 -32 32 -40 -40 -32 -32 -40 return
          </CharString>
          <CharString index="267">
            -243 -5 callsubr
            return
          </CharString>
          <CharString index="268">
            143 vhcurveto
            149 2 return
          </CharString>
          <CharString index="269">
            -57 -11 -20 -55 vhcurveto
            -67 -93 hlineto
            53 -143 return
          </CharString>
          <CharString index="270">
            vlineto
            62 44 37 56 53 36 -35 -45 15 vhcurveto
            return
          </CharString>
          <CharString index="271">
            vvcurveto
            44 27 30 42 29 34 -12 -13 21 vhcurveto
            return
          </CharString>
          <CharString index="272">
            -82 callsubr
            95 vlineto
            endchar
          </CharString>
          <CharString index="273">
            -88 callgsubr
            vlineto
            endchar
          </CharString>
          <CharString index="274">
            118 660 -118 hlineto
            return
          </CharString>
          <CharString index="275">
            60 34 -45 -53 -60 return
          </CharString>
          <CharString index="276">
            -205 vlineto
            -11 -3 -8 -4 -7 -7 rrcurveto
            return
          </CharString>
          <CharString index="277">
            -52 41 70 71 52 42 85 hvcurveto
            endchar
          </CharString>
          <CharString index="278">
            97 -352 -97 return
          </CharString>
          <CharString index="279">
            -63 -44 -32 -67 return
          </CharString>
        <CharString name=".notdef">
          179 166 hmoveto
          422 701 -422 hlineto
          73 -68 rmoveto
          277 -565 -277 hlineto
          endchar
        </CharString>
        <CharString name="A">
          99 241 256 -89 callsubr
        </CharString>
        <CharString name="AE">
          342 283 256 rmoveto
          15 29 78 143 57 113 30 70 rlinecurve
          -355 vlineto
          123 -153 rmoveto
          183 241 102 -241 183 271 103 -496 vlineto
          -347 -674 rlineto
          133 hlineto
          81 153 rlineto
          235 -153 398 103 hlineto
          endchar
        </CharString>
        <CharString name="Aacute">
          99 514 892 9 callsubr
          -157 -467 -89 callsubr
        </CharString>
        <CharString name="Abreve">
          99 427 892 2 callsubr
          -280 -636 -89 callsubr
        </CharString>
        <CharString name="Acircumflex">
          99 339 822 -8 callgsubr
          -17 -467 -89 callsubr
        </CharString>
        <CharString name="Adieresis">
          99 464 739 -62 callsubr
          19 -483 -89 callsubr
        </CharString>
        <CharString name="Agrave">
          99 386 723 69 callsubr
          -44 -467 -89 callsubr
        </CharString>
        <CharString name="Amacron">
          99 505 850 126 callgsubr
          -264 -511 -89 callsubr
        </CharString>
        <CharString name="Aogonek">
          92 237 256 rmoveto
          9 29 rlineto
          77 245 10 50 0 vvcurveto
          0 9 -50 77 -244 vhcurveto
          9 -30 rlineto
          -12 418 rmoveto
          -163 hlineto
          -229 -674 rlineto
          133 hlineto
          48 153 rlineto
          255 hlineto
          46 -148 rlineto
          -41 -35 -36 -48 -61 vvcurveto
          -62 40 -52 92 39 32 8 15 26 vhcurveto
          85 vlineto
          -14 -20 -28 -13 -32 hhcurveto
          -31 -20 15 29 47 57 47 59 34 hvcurveto
          endchar
        </CharString>
        <CharString name="Aring">
          99 341 894 -2 callgsubr
          -100 -456 -89 callsubr
        </CharString>
        <CharString name="Atilde">
          99 462 877 -67 callgsubr
          -285 -570 -89 callsubr
        </CharString>
        <CharString name="B">
          17 196 103 rmoveto
          186 103 vlineto
          90 36 -39 -55 -60 -40 -32 -81 hvcurveto
          -108 468 rmoveto
          97 hlineto
          80 35 -35 -50 -52 -41 -44 -95 hvcurveto
          -76 hlineto
          -126 284 rmoveto
          -674 273 vlineto
          135 76 78 104 97 -60 48 -64 15 hvcurveto
          62 17 45 58 74 vvcurveto
          104 -79 79 -149 vhcurveto
          endchar
        </CharString>
        <CharString name="C">
          34 561 646 -53 callgsubr
          endchar
        </CharString>
        <CharString name="CR">
          -575 endchar
        </CharString>
        <CharString name="Cacute">
          34 561 646 -53 callgsubr
          -247 200 -41 callsubr
          endchar
        </CharString>
        <CharString name="Ccaron">
          34 561 646 -53 callgsubr
          -141 200 -77 callgsubr
          endchar
        </CharString>
        <CharString name="Ccedilla">
          34 324 -51 rmoveto
          12 -18 13 -21 -27 vvcurveto
          -40 -27 -25 -52 -2 vhcurveto
          -78 vlineto
          116 1 53 63 74 vvcurveto
          25 -6 30 -12 18 vhcurveto
          140 697 -53 callgsubr
          endchar
        </CharString>
        <CharString name="D">
          100 199 105 39 callgsubr
        </CharString>
        <CharString name="Dcaron">
          100 368 723 -77 callgsubr
          -63 -618 39 callgsubr
        </CharString>
        <CharString name="Dcroat">
          11 callgsubr
        </CharString>
        <CharString name="E">
          -47 197 103 -36 callgsubr
        </CharString>
        <CharString name="Eacute">
          -47 448 892 9 callsubr
          -135 -620 -36 callgsubr
        </CharString>
        <CharString name="Ecaron">
          -47 329 723 -77 callgsubr
          -26 -437 rmoveto
          241 102 -241 183 271 103 -398 -674 402 103 -275 hlineto
          endchar
        </CharString>
        <CharString name="Ecircumflex">
          -47 273 822 -8 callgsubr
          5 -620 -36 callgsubr
        </CharString>
        <CharString name="Edieresis">
          -47 392 737 -62 callsubr
          47 -634 -36 callgsubr
        </CharString>
        <CharString name="Edotaccent">
          -47 279 739 rmoveto
          40 30 30 40 39 -30 30 -40 -41 -30 -30 -39 -40 30 -30 41 hvcurveto
          -82 -636 -36 callgsubr
        </CharString>
        <CharString name="Egrave">
          -47 336 723 69 callsubr
          -38 -620 -36 callgsubr
        </CharString>
        <CharString name="Emacron">
          -47 433 852 126 callgsubr
          -236 -666 -36 callgsubr
        </CharString>
        <CharString name="Eogonek">
          -47 472 hmoveto
          103 -275 183 241 102 -241 183 271 103 -398 -674 233 vlineto
          -43 -34 -36 -47 -58 -12 callgsubr
          57 47 59 34 hvcurveto
          endchar
        </CharString>
        <CharString name="Eth">
          11 callgsubr
        </CharString>
        <CharString name="Euro">
          35 570 630 rmoveto
          21 -37 -42 11 -67 hhcurveto
          -130 -113 -78 -142 -40 hvcurveto
          -96 -78 82 hlineto
          -1 -14 -1 -14 -14 vvcurveto
          -12 0 -12 1 -12 vhcurveto
          -81 -77 95 hlineto
          -132 39 106 -85 141 hhcurveto
          74 36 13 18 34 hvcurveto
          121 vlineto
          -23 -32 -42 -17 -58 hhcurveto
          -74 -60 37 68 -30 hvcurveto
          189 77 -209 hlineto
          -1 11 -1 12 12 vvcurveto
          15 1 14 2 14 vhcurveto
          208 78 -187 hlineto
          68 31 59 38 77 hhcurveto
          57 39 -16 -23 31 hvcurveto
          endchar
        </CharString>
        <CharString name="F">
          -76 465 571 rmoveto
          103 -395 -674 127 269 234 103 -234 199 vlineto
          endchar
        </CharString>
        <CharString name="G">
          118 630 393 -45 callsubr
        </CharString>
        <CharString name="Gbreve">
          118 465 892 2 callsubr
          71 -499 -45 callsubr
        </CharString>
        <CharString name="H">
          95 473 674 rmoveto
          -282 -277 282 -126 -674 126 283 277 -283 127 674 vlineto
          endchar
        </CharString>
        <CharString name="I">
          44 callgsubr
          endchar
        </CharString>
        <CharString name="Iacute">
          44 callgsubr
          16 49 -41 callsubr
          endchar
        </CharString>
        <CharString name="Icircumflex">
          -293 90 892 -21 callsubr
          -118 -892 rmoveto
          92 callgsubr
          endchar
        </CharString>
        <CharString name="Idieresis">
          44 callgsubr
          -124 134 -62 callgsubr
          endchar
        </CharString>
        <CharString name="Idotaccent">
          44 callgsubr
          -6 135 rmoveto
          -40 30 -30 41 40 30 30 40 39 -30 30 -40 -41 -30 -30 -39 vhcurveto
          endchar
        </CharString>
        <CharString name="Igrave">
          44 callgsubr
          18 218 36 callsubr
        </CharString>
        <CharString name="Imacron">
          44 callgsubr
          227 92 116 callsubr
          endchar
        </CharString>
        <CharString name="Iogonek">
          -293 204 674 rmoveto
          -126 -667 hlineto
          -46 -35 -42 -49 -62 -12 callgsubr
          57 47 59 34 hvcurveto
          endchar
        </CharString>
        <CharString name="J">
          -196 30 20 rmoveto
          -13 25 43 -8 35 hhcurveto
          109 71 63 130 hvcurveto
          481 -126 -481 vlineto
          -57 -28 -25 -49 -30 -28 10 14 -22 vhcurveto
          endchar
        </CharString>
        <CharString name="K">
          53 70 hmoveto
          92 callgsubr
          286 -338 103 callgsubr
        </CharString>
        <CharString name="L">
          -91 196 112 rmoveto
          562 132 callgsubr
          vlineto
          endchar
        </CharString>
        <CharString name="Lacute">
          -91 473 892 9 callsubr
          -161 -49 rmoveto
          132 callgsubr
          -263 hlineto
          endchar
        </CharString>
        <CharString name="Lcaron">
          -91 472 700 rmoveto
          -129 hlineto
          -76 -204 rlineto
          91 hlineto
          -162 178 rmoveto
          132 callgsubr
          -263 hlineto
          endchar
        </CharString>
        <CharString name="Lslash">
          -36 241 112 rmoveto
          184 vlineto
          158 95 rlineto
          105 vlineto
          -158 -95 rlineto
          273 -127 -350 vlineto
          -75 -45 rlineto
          -105 vlineto
          75 45 rlineto
          -219 390 112 vlineto
          endchar
        </CharString>
        <CharString name="M">
          305 58 hmoveto
          126 hlineto
          20 263 rlineto
          7 99 6 94 40 vvcurveto
          0 26 -85 53 -148 vhcurveto
          92 -253 rlineto
          86 hlineto
          94 253 rlineto
          50 133 36 103 0 vvcurveto
          0 6 -103 12 -133 vhcurveto
          24 -263 rlineto
          126 hlineto
          -66 674 rlineto
          -144 hlineto
          -94 -245 rlineto
          -55 -142 -31 -104 0 vvcurveto
          0 -31 106 -53 140 vhcurveto
          -92 245 rlineto
          -144 hlineto
          endchar
        </CharString>
        <CharString name="N">
          113 70 hmoveto
          28 callgsubr
        </CharString>
        <CharString name="NULL">
          -575 endchar
        </CharString>
        <CharString name="Nacute">
          113 311 723 -41 callsubr
          -332 -892 26 callsubr
        </CharString>
        <CharString name="Ncaron">
          113 70 hmoveto
          -68 callsubr
          336 49 -77 callgsubr
          endchar
        </CharString>
        <CharString name="Ntilde">
          113 70 hmoveto
          -68 callsubr
          403 203 -67 callgsubr
          endchar
        </CharString>
        <CharString name="O">
          4 callgsubr
          endchar
        </CharString>
        <CharString name="OE">
          419 357 109 rmoveto
          -112 -67 88 142 142 65 89 113 115 64 -89 -142 -142 -64 -88 -114 hvcurveto
          299 -6 rmoveto
          183 248 102 -248 183 278 103 -399 -52 vlineto
          41 -48 -61 23 -70 hhcurveto
          -194 -119 -139 -208 -208 120 -138 194 69 61 24 41 48 hvcurveto
          -58 403 103 vlineto
          endchar
        </CharString>
        <CharString name="Oacute">
          148 316 723 -41 callsubr
          -364 -553 -84 callgsubr
          endchar
        </CharString>
        <CharString name="Ocircumflex">
          148 178 339 rmoveto
          142 70 89 113 115 69 -89 -142 -142 -69 -88 -114 -112 -72 88 142 vhcurveto
          -135 hmoveto
          -208 125 -138 194 194 124 139 207 209 -122 138 -197 -194 -124 -139 -208 vhcurveto
          271 553 -21 callsubr
          endchar
        </CharString>
        <CharString name="Odieresis">
          148 176 809 -62 callgsubr
          -375 -470 -84 callgsubr
          endchar
        </CharString>
        <CharString name="Ograve">
          4 callgsubr
          152 553 36 callsubr
        </CharString>
        <CharString name="Ohungarumlaut">
          148 414 723 -1 callgsubr
          -286 -553 -84 callgsubr
          endchar
        </CharString>
        <CharString name="Omacron">
          148 525 766 116 callsubr
          -154 -427 -84 callgsubr
          endchar
        </CharString>
        <CharString name="Oslash">
          124 520 474 rmoveto
          17 -37 9 -45 -53 vvcurveto
          -145 -71 -91 -117 -36 -32 8 17 -26 vhcurveto
          -68 75 rmoveto
          -17 36 -10 46 54 vvcurveto
          146 72 91 116 37 33 -9 -17 27 vhcurveto
          223 135 rmoveto
          -123 hlineto
          -30 -41 rlineto
          27 -47 -56 15 -64 hhcurveto
          -194 -124 -139 -208 -99 28 -83 51 -60 hvcurveto
          -78 -105 rlineto
          123 hlineto
          31 42 rlineto
          -27 46 56 -14 62 hhcurveto
          195 123 139 207 99 -27 82 -50 60 hvcurveto
          endchar
        </CharString>
        <CharString name="Otilde">
          4 callgsubr
          307 538 -67 callgsubr
          endchar
        </CharString>
        <CharString name="P">
          -19 196 331 rmoveto
          240 85 vlineto
          80 -2 43 -55 -61 vvcurveto
          -64 -42 -52 -77 -6 vhcurveto
          -215 343 rmoveto
          -674 126 229 88 vlineto
          139 109 83 141 127 -97 94 -154 hvcurveto
          endchar
        </CharString>
        <CharString name="Q">
          154 178 339 rmoveto
          142 70 89 113 115 69 -89 -142 -142 -69 -88 -114 -112 -72 88 142 vhcurveto
          539 -431 rmoveto
          -205 119 rlineto
          106 53 62 112 147 vvcurveto
          209 -122 138 -197 -194 -124 -139 -208 -208 125 -138 194 vhcurveto
          15 hlineto
          198 -140 rlineto
          endchar
        </CharString>
        <CharString name="R">
          14 196 570 -20 callsubr
        </CharString>
        <CharString name="Racute">
          14 452 892 9 callsubr
          -140 -153 -20 callsubr
        </CharString>
        <CharString name="Rcaron">
          14 355 723 -77 callgsubr
          -53 -153 -20 callsubr
        </CharString>
        <CharString name="S">
          -57 445 646 -79 callsubr
          endchar
        </CharString>
        <CharString name="Sacute">
          -57 219 723 -41 callsubr
          135 -246 -79 callsubr
          endchar
        </CharString>
        <CharString name="Scaron">
          -57 445 646 -79 callsubr
          -127 199 -77 callgsubr
          endchar
        </CharString>
        <CharString name="T">
          -55 495 674 43 callgsubr
        </CharString>
        <CharString name="Tcaron">
          -55 314 723 -77 callgsubr
          287 -49 43 callgsubr
        </CharString>
        <CharString name="Thorn">
          -22 196 217 rmoveto
          239 75 vlineto
          97 33 -60 -62 -64 -38 -53 -88 hvcurveto
          -79 342 rmoveto
          115 -126 -674 126 115 85 vlineto
          142 106 82 141 127 -94 94 -157 hvcurveto
          endchar
        </CharString>
        <CharString name="U">
          84 467 258 -3 callgsubr
        </CharString>
        <CharString name="Uacute">
          84 292 723 -41 callsubr
          84 -634 -3 callgsubr
        </CharString>
        <CharString name="Ucircumflex">
          84 467 258 -73 callsubr
          -191 218 -21 callsubr
          endchar
        </CharString>
        <CharString name="Udieresis">
          84 141 808 -62 callgsubr
          84 -550 -3 callgsubr
        </CharString>
        <CharString name="Ugrave">
          84 467 258 -73 callsubr
          -172 218 36 callsubr
        </CharString>
        <CharString name="Uhungarumlaut">
          84 467 258 -73 callsubr
          -94 49 -1 callgsubr
          endchar
        </CharString>
        <CharString name="Umacron">
          84 467 258 -73 callsubr
          33 92 116 callsubr
          endchar
        </CharString>
        <CharString name="Uogonek">
          84 467 674 rmoveto
          -416 vlineto
          -116 -60 -35 -78 -74 -63 36 110 vhcurveto
          421 -126 -422 vlineto
          -155 87 -88 132 -16 vhcurveto
          -35 -32 -27 -42 -50 -12 callgsubr
          56 46 58 34 hvcurveto
          98 33 60 84 135 vvcurveto
          415 vlineto
          endchar
        </CharString>
        <CharString name="Uring">
          84 207 837 56 callgsubr
          188 -581 -3 callgsubr
        </CharString>
        <CharString name="V">
          76 625 674 rmoveto
          -135 hlineto
          -84 -268 rlineto
          -57 -180 -24 -112 0 vvcurveto
          0 -24 112 -56 180 vhcurveto
          -83 268 rlineto
          -137 hlineto
          226 -674 rlineto
          144 hlineto
          endchar
        </CharString>
        <CharString name="W">
          383 431 664 rmoveto
          -68 -239 rlineto
          -46 -162 -32 -126 0 vvcurveto
          0 -27 137 -37 151 vhcurveto
          -63 249 rlineto
          -133 hlineto
          180 -674 rlineto
          145 hlineto
          63 213 rlineto
          56 190 14 70 0 vvcurveto
          0 15 -69 56 -191 vhcurveto
          61 -213 rlineto
          146 hlineto
          172 674 rlineto
          -128 hlineto
          -61 -248 rlineto
          -37 -152 -25 -139 0 vvcurveto
          0 -38 143 -42 147 vhcurveto
          -69 239 rlineto
          endchar
        </CharString>
        <CharString name="X">
          69 246 341 rmoveto
          -214 -341 rlineto
          151 hlineto
          28 49 82 134 27 50 143 -233 rcurveline
          150 hlineto
          -221 341 204 333 rlineto
          -153 hlineto
          -25 -45 -76 -130 -24 -46 -129 221 rcurveline
          -147 hlineto
          endchar
        </CharString>
        <CharString name="Y">
          49 606 674 -6 callsubr
        </CharString>
        <CharString name="Yacute">
          49 494 892 9 callsubr
          228 -49 -6 callsubr
        </CharString>
        <CharString name="Ydieresis">
          49 438 738 -62 callsubr
          410 -64 -6 callsubr
        </CharString>
        <CharString name="Z">
          26 531 674 7 callsubr
          endchar
        </CharString>
        <CharString name="Zacute">
          26 269 723 -41 callsubr
          171 -218 7 callsubr
          endchar
        </CharString>
        <CharString name="Zcaron">
          26 531 674 7 callsubr
          -172 142 -77 callgsubr
          endchar
        </CharString>
        <CharString name="Zdotaccent">
          26 531 674 7 callsubr
          -287 228 rmoveto
          -40 30 -30 41 40 30 30 40 39 -30 30 -40 -41 -30 -30 -39 vhcurveto
          endchar
        </CharString>
        <CharString name="a">
          -68 324 218 -96 callsubr
        </CharString>
        <CharString name="aacute">
          -68 422 725 9 callsubr
          18 -338 -96 callsubr
        </CharString>
        <CharString name="abreve">
          -68 345 724 2 callsubr
          -115 -506 -96 callsubr
        </CharString>
        <CharString name="acircumflex">
          -68 255 655 -8 callgsubr
          150 -338 -96 callsubr
        </CharString>
        <CharString name="acute">
          -105 127 629 -41 callsubr
          endchar
        </CharString>
        <CharString name="adieresis">
          -68 381 570 -62 callsubr
          185 -352 -96 callsubr
        </CharString>
        <CharString name="ae">
          237 329 173 rmoveto
          -53 -34 -34 -51 -50 -24 24 39 42 36 26 66 vhcurveto
          57 hlineto
          329 78 rmoveto
          -212 hlineto
          84 12 51 39 53 hhcurveto
          62 31 -43 -66 3 hvcurveto
          107 -104 rmoveto
          3 19 4 33 18 vvcurveto
          159 -82 78 -131 -69 -61 -27 -50 -34 vhcurveto
          50 -22 -55 31 -78 hhcurveto
          -70 -56 -17 -18 -31 hvcurveto
          110 callgsubr
          -89 63 -58 109 101 55 48 48 21 hvcurveto
          -66 40 83 -31 75 hhcurveto
          49 62 11 22 36 hvcurveto
          104 vlineto
          -24 -33 -46 -16 -55 hhcurveto
          -77 -61 39 74 -18 hvcurveto
          endchar
        </CharString>
        <CharString name="agrave">
          -68 313 556 69 callsubr
          112 -338 -96 callsubr
        </CharString>
        <CharString name="amacron">
          -68 418 682 126 callgsubr
          -94 -381 -96 callsubr
        </CharString>
        <CharString name="ampersand">
          152 286 274 rmoveto
          0 81 -78 77 -74 vhcurveto
          -19 -35 -40 -9 -41 hhcurveto
          -86 -63 36 55 42 25 31 73 25 hvcurveto
          54 305 rmoveto
          57 32 -35 -52 -39 -22 -39 -72 -37 hvcurveto
          -44 45 -32 39 41 vvcurveto
          51 37 26 44 vhcurveto
          393 -588 rmoveto
          -20 18 -50 48 -56 55 32 47 19 57 2 63 rrcurveto
          -110 hlineto
          -1 -35 -8 -31 -14 -25 -125 122 rcurveline
          109 52 40 60 76 vvcurveto
          110 -81 72 -129 -117 -88 -64 -115 -62 36 -50 43 -46 vhcurveto
          -106 -35 -44 -56 -80 vvcurveto
          -104 101 -85 171 77 65 20 35 52 vhcurveto
          22 -21 18 -17 10 -9 rrcurveto
          endchar
        </CharString>
        <CharString name="aogonek">
          -71 324 217 rmoveto
          -49 vlineto
          -47 -32 -35 -53 -50 -24 24 39 42 36 26 66 vhcurveto
          181 107 rmoveto
          128 -66 64 -140 -70 -63 -17 -18 -31 vhcurveto
          110 callgsubr
          -84 58 -63 99 70 41 32 34 21 hvcurveto
          -50 vlineto
          -49 -34 -46 -51 -66 vvcurveto
          -62 39 -52 92 40 32 8 15 26 vhcurveto
          85 vlineto
          -14 -21 -27 -13 -32 hhcurveto
          -32 -19 15 29 47 56 47 60 34 hvcurveto
          endchar
        </CharString>
        <CharString name="apostrophemod">
          130 callsubr
        </CharString>
        <CharString name="approxequal">
          25 487 317 rmoveto
          -33 -25 -25 -23 -42 -61 -43 55 -103 hhcurveto
          -66 -55 -48 -48 -35 hvcurveto
          77 -62 rlineto
          38 29 29 20 43 66 45 -55 93 hhcurveto
          72 48 47 47 31 hvcurveto
          -78 264 rmoveto
          -33 -25 -25 -23 -42 -61 -43 56 -103 hhcurveto
          -66 -55 -48 -49 -35 hvcurveto
          77 -62 rlineto
          38 29 29 21 43 66 45 -56 93 hhcurveto
          72 48 48 47 31 hvcurveto
          endchar
        </CharString>
        <CharString name="aring">
          -68 258 727 -2 callgsubr
          66 -327 -96 callsubr
        </CharString>
        <CharString name="asciicircum">
          -95 442 332 rmoveto
          -146 262 rlineto
          -111 hlineto
          -147 -262 rlineto
          113 hlineto
          89 169 88 -169 rlineto
          endchar
        </CharString>
        <CharString name="asciitilde">
          58 517 359 rmoveto
          -35 -27 -27 -24 -45 -65 -45 58 -111 hhcurveto
          -69 -60 -52 -52 -37 hvcurveto
          83 -67 rlineto
          41 32 29 21 47 70 48 -58 100 hhcurveto
          77 51 52 50 33 hvcurveto
          endchar
        </CharString>
        <CharString name="asterisk">
          -105 305 451 rmoveto
          13 15 2 5 17 hvcurveto
          92 30 -30 93 -93 -30 -18 -6 -14 -7 -11 -9 rlinecurve
          5 13 3 16 19 vvcurveto
          97 -98 -97 vlineto
          -19 3 -16 5 -13 vhcurveto
          -11 8 -14 8 -18 6 -92 30 rcurveline
          -31 -93 93 -30 rlineto
          -6 17 15 -2 13 hhcurveto
          3 hlineto
          -13 -9 -11 -11 -10 -13 -58 -79 rcurveline
          79 -57 58 79 11 15 7 13 4 13 rlinecurve
          4 -13 7 -14 10 -15 57 -78 rcurveline
          79 57 -57 79 -11 15 -12 11 -12 8 rlinecurve
          endchar
        </CharString>
        <CharString name="at">
          375 458 97 rmoveto
          -50 -42 40 66 87 49 54 60 51 35 -35 -67 10 hvcurveto
          -1 -14 0 -14 -1 -15 rrcurveto
          -68 -17 -49 -34 -45 hhcurveto
          182 -151 rmoveto
          -31 -62 -70 -14 -60 hhcurveto
          -156 -136 103 192 190 145 164 203 168 137 -91 -195 -100 -38 -62 -50 -36 -21 30 76 23 3 44 6 90 hvcurveto
          7 65 rlineto
          -98 hlineto
          -1 -23 -1 -22 -2 -21 rrcurveto
          46 -26 -41 23 -52 hhcurveto
          -108 -93 -89 -135 -110 61 -91 108 66 55 35 66 30 hvcurveto
          -52 16 39 -49 84 hhcurveto
          100 93 102 162 235 -188 142 -213 -252 -209 -195 -255 -216 143 -181 257 56 72 10 29 60 hvcurveto
          endchar
        </CharString>
        <CharString name="atilde">
          -68 377 710 -67 callgsubr
          -117 -441 -96 callsubr
        </CharString>
        <CharString name="b">
          20 313 96 rmoveto
          -68 -58 52 110 111 68 43 57 66 57 -55 -106 -94 -55 -61 -67 hvcurveto
          -126 611 rmoveto
          -121 -707 121 78 hlineto
          -55 34 54 -30 65 hhcurveto
          139 78 124 136 163 -94 98 -124 -63 -54 -29 -55 -35 hvcurveto
          endchar
        </CharString>
        <CharString name="backslash">
          -134 85 707 rmoveto
          -126 hlineto
          362 -810 rlineto
          125 hlineto
          endchar
        </CharString>
        <CharString name="bar">
          -315 73 -194 rmoveto
          114 889 -114 hlineto
          endchar
        </CharString>
        <CharString name="braceleft">
          -212 342 704 rmoveto
          7 -20 -20 3 -19 hhcurveto
          -84 -64 -68 -100 hvcurveto
          -46 16 -41 -38 vvcurveto
          -51 -30 -50 -56 -3 vhcurveto
          -1 -11 -8 0 -3 hhcurveto
          -117 vlineto
          3 9 1 -1 10 hvcurveto
          58 -5 28 -49 -51 -39 -16 -40 -46 vvcurveto
          -100 64 -69 84 19 20 4 7 20 vhcurveto
          113 vlineto
          -6 -10 -12 -3 -10 hhcurveto
          -33 -22 26 36 hvcurveto
          38 15 44 49 vvcurveto
          80 -50 60 -68 10 vhcurveto
          68 10 50 58 80 50 -15 43 38 vvcurveto
          36 22 27 33 10 12 -3 -6 10 vhcurveto
          endchar
        </CharString>
        <CharString name="braceright">
          -212 21 591 rmoveto
          6 10 11 3 10 hhcurveto
          33 23 -27 -36 hvcurveto
          -38 -15 -43 -50 vvcurveto
          -80 50 -58 68 -10 vhcurveto
          -68 -10 -50 -60 -80 -49 15 -44 -38 vvcurveto
          -36 -23 -26 -33 -10 -11 3 6 -10 vhcurveto
          -113 vlineto
          -7 20 19 -4 19 hhcurveto
          85 63 69 100 hvcurveto
          46 -15 40 39 vvcurveto
          51 28 49 58 5 vhcurveto
          1 10 9 -1 3 hhcurveto
          117 vlineto
          -3 -9 0 1 -10 hvcurveto
          -57 3 -29 50 51 38 15 41 46 vvcurveto
          100 -63 68 -85 -19 -19 -3 -7 -20 vhcurveto
          endchar
        </CharString>
        <CharString name="bracketleft">
          -232 332 602 rmoveto
          105 -262 -898 262 106 -147 687 vlineto
          endchar
        </CharString>
        <CharString name="bracketright">
          -232 273 707 rmoveto
          -262 -105 147 -687 -147 -106 262 hlineto
          endchar
        </CharString>
        <CharString name="breve">
          -105 50 798 rmoveto
          -117 74 -56 111 112 73 56 117 vhcurveto
          -94 hlineto
          -57 -32 -37 -59 -59 -32 37 57 vhcurveto
          endchar
        </CharString>
        <CharString name="brokenbar">
          -315 187 368 rmoveto
          335 -114 -335 vlineto
          114 -508 rmoveto
          335 -114 -335 vlineto
          endchar
        </CharString>
        <CharString name="bullet">
          -141 85 356 rmoveto
          -75 56 -58 77 74 58 58 75 75 -58 58 -75 -76 -56 -58 -75 vhcurveto
          endchar
        </CharString>
        <CharString name="c">
          -105 161 252 rmoveto
          81 callgsubr
          106 vlineto
          -35 callgsubr
          endchar
        </CharString>
        <CharString name="cacute">
          -105 246 555 -41 callsubr
          -176 -472 rmoveto
          81 callgsubr
          106 vlineto
          -35 callgsubr
          endchar
        </CharString>
        <CharString name="caron">
          -105 288 629 -77 callgsubr
          endchar
        </CharString>
        <CharString name="ccaron">
          -105 432 487 rmoveto
          -35 callgsubr
          81 callgsubr
          -104 175 -77 callgsubr
          endchar
        </CharString>
        <CharString name="ccedilla">
          -105 161 252 rmoveto
          81 callgsubr
          106 vlineto
          -35 callgsubr
          197 -376 -13 callgsubr
        </CharString>
        <CharString name="cedilla">
          -105 319 -124 -13 callgsubr
        </CharString>
        <CharString name="cent">
          -107 428 486 rmoveto
          -27 13 -27 8 -25 4 rrcurveto
          107 -101 -109 vlineto
          -135 -24 -76 -108 -1 -125 rrcurveto
          -132 84 -102 128 -22 vhcurveto
          -107 101 107 vlineto
          28 4 27 8 24 12 rrcurveto
          104 vlineto
          -20 -34 -40 -11 -37 hhcurveto
          -96 -59 65 94 -3 hvcurveto
          98 1 66 62 93 hhcurveto
          37 39 -10 -20 33 hvcurveto
          endchar
        </CharString>
        <CharString name="circumflex">
          -105 182 798 -21 callsubr
          endchar
        </CharString>
        <CharString name="colon">
          -308 57 404 rmoveto
          -43 33 -34 43 43 34 34 43 43 -34 34 -43 -43 -33 -34 -43 vhcurveto
          -328 vmoveto
          -43 33 -33 43 43 34 33 43 43 -34 34 -43 -43 -33 -34 -43 vhcurveto
          endchar
        </CharString>
        <CharString name="comma">
          -307 -7 -126 153 callgsubr
        </CharString>
        <CharString name="copyright">
          192 38 337 rmoveto
          -190 156 -155 190 189 156 155 190 190 -156 156 -189 -190 -156 -156 -190 vhcurveto
          86 hmoveto
          147 112 113 148 147 113 -113 -147 -149 -113 -112 -147 -148 -112 112 149 vhcurveto
          194 -1 rmoveto
          62 1 44 33 48 hhcurveto
          26 30 -7 -15 23 hvcurveto
          83 vlineto
          16 -30 -32 5 -25 hhcurveto
          -113 -67 -78 -99 -1 hvcurveto
          -102 77 -72 100 32 35 7 14 24 vhcurveto
          84 vlineto
          -16 -23 -30 -9 -27 hhcurveto
          -51 -38 37 57 -3 hvcurveto
          endchar
        </CharString>
        <CharString name="currency">
          -14 57 310 rmoveto
          -43 12 -41 20 -33 vhcurveto
          -59 -57 72 -70 59 58 rlineto
          -20 34 40 -11 44 hhcurveto
          45 40 11 20 34 hvcurveto
          60 -58 72 70 -60 58 rlineto
          21 33 13 42 44 vvcurveto
          43 -12 40 -20 32 vhcurveto
          58 58 -72 69 -58 -56 rlineto
          19 -33 -41 12 -44 hhcurveto
          -46 -41 -12 -21 -34 hvcurveto
          -59 58 -72 -69 59 -59 rlineto
          -20 -32 -12 -42 -43 vvcurveto
          101 2 rmoveto
          67 51 56 72 72 50 -56 -68 -67 -50 -56 -72 -72 -51 56 68 vhcurveto
          endchar
        </CharString>
        <CharString name="d">
          19 42 callgsubr
          126 611 rmoveto
          -278 vlineto
          31 callsubr
          707 vlineto
          endchar
        </CharString>
        <CharString name="dagger">
          -29 511 516 rmoveto
          -186 158 -108 -158 -182 -100 182 -416 108 416 186 hlineto
          endchar
        </CharString>
        <CharString name="daggerdbl">
          -8 522 416 rmoveto
          100 -186 158 -108 -158 -183 -100 183 -154 -183 -100 183 -162 108 162 186 100 -186 154 vlineto
          endchar
        </CharString>
        <CharString name="danda">
          -149 194 hmoveto
          167 callsubr
          endchar
        </CharString>
        <CharString name="dcaron">
          138 42 callgsubr
          126 333 rmoveto
          31 callsubr
          707 -120 vlineto
          248 1 rmoveto
          -76 -204 rlineto
          90 hlineto
          115 204 rlineto
          endchar
        </CharString>
        <CharString name="dcroat">
          19 42 callgsubr
          309 549 rmoveto
          -63 62 -120 -62 -167 -72 167 -144 hlineto
          31 callsubr
          573 63 vlineto
          endchar
        </CharString>
        <CharString name="degree">
          -167 30 508 rmoveto
          -97 76 -75 97 97 78 76 97 98 -76 75 -98 -97 -77 -77 -97 vhcurveto
          87 1 rmoveto
          48 38 39 48 48 39 -39 -48 -48 -38 -40 -48 -48 -39 40 48 vhcurveto
          endchar
        </CharString>
        <CharString name="dieresis">
          -105 43 715 -62 callgsubr
          endchar
        </CharString>
        <CharString name="divide">
          1 218 517 128 callsubr
          -168 -231 rmoveto
          476 108 -476 hlineto
          168 -231 128 callsubr
          endchar
        </CharString>
        <CharString name="dollar">
          -65 437 646 rmoveto
          -31 15 -35 9 -35 5 rrcurveto
          112 -102 -110 vlineto
          -118 -13 -75 -71 -104 vvcurveto
          -108 76 -47 74 -34 vhcurveto
          78 -35 67 -22 -58 vvcurveto
          -52 -42 -31 -60 -64 -66 20 42 -58 vhcurveto
          -129 vlineto
          37 -21 50 -14 52 -5 rrcurveto
          -110 101 111 vlineto
          110 16 73 72 105 vvcurveto
          119 -90 46 -83 36 vhcurveto
          -64 29 -55 25 50 vvcurveto
          43 36 32 64 55 60 -18 -27 45 vhcurveto
          endchar
        </CharString>
        <CharString name="dotaccent">
          -105 164 716 rmoveto
          -40 30 -30 41 40 30 30 40 39 -30 30 -40 -41 -30 -30 -39 vhcurveto
          endchar
        </CharString>
        <CharString name="dotlessi">
          44 callsubr
          endchar
        </CharString>
        <CharString name="dottedcircle">
          85 139 517 rmoveto
          -26 18 -19 26 26 18 19 26 25 -18 19 -26 -26 -18 -19 -25 vhcurveto
          -82 -110 rmoveto
          -25 20 -19 26 24 20 19 25 25 -20 19 -24 -26 -20 -19 -25 vhcurveto
          -13 -126 rmoveto
          -25 19 -18 25 26 18 18 169 callgsubr
          52 -116 rmoveto
          -26 18 -18 26 25 19 18 26 25 -19 19 -25 -26 -18 -19 -25 vhcurveto
          101 -75 rmoveto
          -26 19 -20 26 25 19 20 26 24 -19 20 -25 -26 -19 -20 -24 vhcurveto
          127 -16 rmoveto
          -26 18 -18 26 26 19 18 26 26 -19 18 -26 -26 -18 -18 -26 vhcurveto
          121 53 rmoveto
          -26 19 -18 25 25 20 18 26 25 -20 19 -25 -25 -19 -19 -25 vhcurveto
          73 98 rmoveto
          -25 19 -19 26 24 19 19 25 26 -19 19 -24 -26 -19 -19 -26 vhcurveto
          10 134 rmoveto
          -26 18 -18 26 25 19 18 26 26 -19 18 -25 -26 -18 -18 -26 vhcurveto
          -50 118 rmoveto
          -25 19 -19 25 26 18 19 169 callgsubr
          -95 68 rmoveto
          -24 19 -20 26 25 18 20 24 26 -18 19 -25 -26 -19 -19 -26 vhcurveto
          -126 15 rmoveto
          -26 18 -18 26 26 18 18 26 26 -18 18 -26 -26 -18 -18 -26 vhcurveto
          endchar
        </CharString>
        <CharString name="doubledanda">
          88 194 hmoveto
          167 callsubr
          237 -660 rmoveto
          167 callsubr
          endchar
        </CharString>
        <CharString name="dvA">
          111 713 -22 callgsubr
          -306 -87 callsubr
          106 hlineto
          endchar
        </CharString>
        <CharString name="dvAA">
          384 986 -22 callgsubr
          -579 -87 callsubr
          156 -565 -44 callsubr
        </CharString>
        <CharString name="dvAI">
          -6 596 -22 callgsubr
          -82 hlineto
          10 callsubr
          -415 -42 callsubr
        </CharString>
        <CharString name="dvAU">
          386 880 -22 callgsubr
          -112 180 rlineto
          -56 callsubr
          -326 -87 callsubr
          158 166 callgsubr
        </CharString>
        <CharString name="dvAbbreviationsign">
          -99 61 313 58 callgsubr
          endchar
        </CharString>
        <CharString name="dvAnusvara">
          -575 -209 805 rmoveto
          -40 30 -31 41 70 callsubr
          -41 -30 -31 -40 vhcurveto
          endchar
        </CharString>
        <CharString name="dvAnusvara.amI">
          -575 -60 889 rmoveto
          -40 30 -31 41 70 callsubr
          -41 -30 -31 -40 vhcurveto
          endchar
        </CharString>
        <CharString name="dvAvagraha">
          -41 270 -3 rmoveto
          151 68 82 95 hvcurveto
          184 -310 62 92 vvcurveto
          31 22 10 29 vhcurveto
          227 107 -240 hlineto
          -105 -60 -54 -86 hvcurveto
          -180 316 -59 -106 vvcurveto
          -41 -30 -30 -68 -75 -91 36 37 -56 vhcurveto
          -122 vlineto
          -25 44 75 -33 103 hhcurveto
          endchar
        </CharString>
        <CharString name="dvB">
          -186 416 -22 callgsubr
          -443 -95 443 hlineto
          -48 -374 -76 callsubr
          282 -70 rmoveto
          -13 -21 -15 -21 -18 -18 -97 callgsubr
          120 85 66 88 47 hvcurveto
          endchar
        </CharString>
        <CharString name="dvBA">
          51 366 192 -61 callgsubr
          -680 -95 456 66 callsubr
          -138 -89 -93 -122 123 callsubr
          hvcurveto
          -143 -88 callsubr
        </CharString>
        <CharString name="dvBH">
          -229 441 366 rmoveto
          -227 -63 callsubr
          227 hlineto
          endchar
        </CharString>
        <CharString name="dvBHA">
          2 383 366 rmoveto
          -169 -63 callsubr
          169 -272 114 callsubr
          -221 hlineto
          endchar
        </CharString>
        <CharString name="dvBH_LA">
          521 1123 -22 callgsubr
          -805 -95 580 60 callgsubr
          -81 -58 -42 -68 -27 hvcurveto
          -191 -63 callsubr
          173 -7 hlineto
          25 callsubr
          vhcurveto
          -92 callgsubr
        </CharString>
        <CharString name="dvBH_NA">
          8 389 -22 callgsubr
          -246 -169 116 vlineto
          -38 callsubr
          169 -72 hlineto
          -234 -146 rlineto
          -38 -24 -16 -27 -29 vvcurveto
          -54 53 -51 46 -24 vhcurveto
          69 43 rlineto
          -25 22 -20 24 26 vvcurveto
          14 7 13 15 9 vhcurveto
          143 92 rlineto
          -136 115 -28 callsubr
        </CharString>
        <CharString name="dvBH_R">
          -187 227 414 rmoveto
          116 vlineto
          -38 callsubr
          186 hlineto
          -343 -360 rlineto
          155 hlineto
          319 360 rlineto
          94 vlineto
          endchar
        </CharString>
        <CharString name="dvBH_RA">
          15 396 -22 callgsubr
          -246 -169 116 vlineto
          -38 callsubr
          169 -54 hlineto
          -354 -306 rlineto
          162 hlineto
          192 170 rlineto
          -130 114 callsubr
          vlineto
          endchar
        </CharString>
        <CharString name="dvBH_R_YA">
          424 803 352 rmoveto
          -90 -55 -46 -80 -70 -47 39 56 -15 vhcurveto
          0 vlineto
          112 callsubr
          152 hlineto
          -462 95 rmoveto
          -95 187 vlineto
          18 -68 callgsubr
          -26 -12 -23 -27 -19 vhcurveto
          -292 116 hlineto
          -38 callsubr
          182 hlineto
          1 -3 -340 -357 rlineto
          155 hlineto
          229 258 rlineto
          -69 47 70 -36 79 -102 callsubr
          95 vlineto
          endchar
        </CharString>
        <CharString name="dvBH_VA">
          362 964 -22 callgsubr
          -646 -95 422 -266 hlineto
          -102 callgsubr
          -98 -72 -51 -76 -29 hvcurveto
          -185 -63 callsubr
          172 hlineto
          -119 7 95 -65 105 hhcurveto
          -73 callgsubr
        </CharString>
        <CharString name="dvBH_YA">
          412 791 352 -107 callsubr
          -462 95 rmoveto
          -95 187 76 callgsubr
          -174 -63 callsubr
          199 hlineto
          -103 43 85 -56 97 -102 callsubr
          95 vlineto
          endchar
        </CharString>
        <CharString name="dvB_BA">
          452 767 192 rmoveto
          -14 -24 -30 -9 -32 hhcurveto
          -70 -50 47 71 28 7 24 13 19 hvcurveto
          -213 -167 -76 callsubr
          874 302 rmoveto
          -1081 -95 857 66 callsubr
          -138 -89 -93 -122 -9 1 -9 1 -9 hvcurveto
          -9 -12 -10 48 callsubr
          89 69 36 55 50 hvcurveto
          -57 40 69 -34 74 hhcurveto
          69 57 26 40 38 hvcurveto
          -143 -88 callsubr
        </CharString>
        <CharString name="dvB_BHA">
          400 368 191 -76 callsubr
          601 302 rmoveto
          -294 -169 164 vlineto
          107 callsubr
          -20 -22 -4 -6 -17 vhcurveto
          5 -443 -95 422 -11 53 callsubr
          -153 106 callgsubr
          -8 1 -8 2 -9 vhcurveto
          -11 -16 -13 -17 -14 -14 -97 callgsubr
          95 73 41 61 50 hvcurveto
          17 -37 rlineto
          102 130 169 -272 114 callsubr
          hlineto
          endchar
        </CharString>
        <CharString name="dvB_BH_RA">
          386 368 191 -76 callsubr
          587 302 rmoveto
          -246 -169 116 vlineto
          107 callsubr
          -15 -16 -2 -4 -14 vhcurveto
          1 -443 -95 408 -11 vlineto
          55 callgsubr
          5 1 hlineto
          1 6 7 1 7 38 callsubr
          -106 106 callgsubr
          -19 6 -22 12 -28 vhcurveto
          -11 -18 -13 -17 -15 -15 -97 callgsubr
          100 76 46 67 50 hvcurveto
          97 79 callsubr
        </CharString>
        <CharString name="dvB_DA">
          387 368 191 -76 callsubr
          694 35 rmoveto
          172 115 95 -1016 -95 783 34 callgsubr
          -10 1 -10 1 -10 hvcurveto
          -5 -6 -5 -6 -6 -6 -97 callgsubr
          80 64 29 45 48 hvcurveto
          -52 36 61 -34 79 hhcurveto
          46 62 17 36 26 hvcurveto
          -82 callgsubr
          endchar
        </CharString>
        <CharString name="dvB_DHA">
          459 368 191 -76 callsubr
          881 302 rmoveto
          -223 -341 hlineto
          -93 -68 -61 -102 -64 -43 28 48 48 41 24 67 vhcurveto
          53 99 -44 hlineto
          -64 -43 20 51 51 39 31 74 hvcurveto
          2 95 -713 -95 531 32 callgsubr
          -75 -7 -54 -33 -14 -60 -9 -12 -9 48 callsubr
          79 64 29 44 48 hvcurveto
          -52 35 70 -31 85 hhcurveto
          76 69 29 48 37 hvcurveto
          -144 -11 callgsubr
        </CharString>
        <CharString name="dvB_DH_VA">
          820 368 191 -76 callsubr
          1242 302 rmoveto
          -586 -95 362 -266 hlineto
          72 callsubr
          -20 2 -18 5 -18 hvcurveto
          -45 -51 -54 -22 -70 -65 callsubr
          -713 -95 531 32 callgsubr
          -75 -7 -54 -33 -14 -60 -9 -12 -9 48 callsubr
          79 64 29 45 48 hvcurveto
          -53 36 72 -31 89 hhcurveto
          98 79 33 47 58 hvcurveto
          -39 39 55 -20 59 hhcurveto
          -73 callgsubr
        </CharString>
        <CharString name="dvB_JA">
          474 368 191 -76 callsubr
          897 302 rmoveto
          -1104 -95 879 152 callsubr
          -18 -16 2 3 -16 hvcurveto
          19 21 16 22 13 25 -65 57 rcurveline
          -13 -21 -15 -21 -18 -18 -97 callgsubr
          58 50 15 26 41 hvcurveto
          -38 -46 callsubr
        </CharString>
        <CharString name="dvB_JHA">
          576 657 329 rmoveto
          0 -13 vlineto
          4 callsubr
          140 -236 vlineto
          -586 -138 -76 callsubr
          998 302 rmoveto
          -1205 -95 724 -56 -68 hlineto
          -104 -83 -44 76 callsubr
          -53 -49 35 51 -23 vhcurveto
          -41 hlineto
          12 15 10 16 9 17 -65 57 rcurveline
          -13 -21 -15 -21 -18 -18 -97 callgsubr
          61 52 17 28 42 hvcurveto
          -172 116 94 vlineto
          -23 35 44 -14 49 hhcurveto
          108 72 67 96 26 -4 22 -9 20 hvcurveto
          113 -238 100 callsubr
        </CharString>
        <CharString name="dvB_J_YA">
          842 1221 85 callsubr
          -853 -374 -76 callsubr
          1264 302 rmoveto
          -1471 -95 974 hlineto
          17 -68 callgsubr
          -31 -18 -29 -40 -20 vhcurveto
          18 -19 -53 39 -123 hhcurveto
          -241 134 callgsubr
          -17 -16 2 3 -15 hvcurveto
          20 20 16 23 13 25 -65 57 rcurveline
          -13 -21 -15 -21 -18 -18 -97 callgsubr
          57 48 15 24 41 hvcurveto
          -36 -98 callsubr
          49 hlineto
          42 28 -8 -9 18 hvcurveto
          -150 28 100 -82 118 hhcurveto
          70 57 26 40 26 166 callsubr
        </CharString>
        <CharString name="dvB_JxA">
          480 368 191 -76 callsubr
          903 302 rmoveto
          -1110 -95 885 152 callsubr
          -19 -19 2 5 -17 hvcurveto
          18 19 16 23 13 24 -65 57 rcurveline
          -13 -21 -15 -21 -18 -18 -97 callgsubr
          61 52 17 28 42 hvcurveto
          -42 -46 callsubr
        </CharString>
        <CharString name="dvB_LA">
          577 368 191 -76 callsubr
          999 302 rmoveto
          -1206 -95 981 60 callgsubr
          -116 -68 -86 -125 hvcurveto
          -5 vlineto
          -8 -11 -9 -11 -10 -10 -97 callgsubr
          79 63 28 45 48 hvcurveto
          -92 38 86 -57 119 -81 callsubr
        </CharString>
        <CharString name="dvB_L_YA">
          934 1313 352 -107 callsubr
          -945 -374 -76 callsubr
          1356 302 rmoveto
          -1563 -95 1065 -8 callsubr
          -19 -7 -18 -14 -16 vhcurveto
          32 102 callsubr
          hvcurveto
          -5 vlineto
          -8 -11 -9 -11 -10 -10 -97 callgsubr
          79 63 28 45 48 hvcurveto
          -92 38 86 -57 119 hhcurveto
          -100 callsubr
          78 32 33 63 12 12 -3 -4 11 vhcurveto
          -14 -4 -16 -3 -17 -3 rrcurveto
          -167 21 105 -92 125 -102 callsubr
          vlineto
          endchar
        </CharString>
        <CharString name="dvB_NA">
          54 369 192 -61 callgsubr
          -683 -95 459 -268 hlineto
          -24 -7 -21 -12 -19 vhcurveto
          -185 162 rlineto
          6 16 18 4 20 hhcurveto
          22 27 -3 -8 23 hvcurveto
          102 vlineto
          6 -23 -31 3 -27 hhcurveto
          -138 -89 -93 -122 -105 72 -78 92 -23 hvcurveto
          -33 -18 rlineto
          -43 -24 -15 -30 -29 vvcurveto
          -54 49 -49 46 -25 vhcurveto
          68 43 rlineto
          -20 19 -21 24 25 vvcurveto
          13 5 15 13 10 vhcurveto
          146 115 rlineto
          0 vlineto
          10 8 9 8 8 8 rrcurveto
          -143 -88 callsubr
        </CharString>
        <CharString name="dvB_R">
          -199 403 -22 callgsubr
          -430 -95 430 hlineto
          -34 -372 rmoveto
          -17 -26 -27 -7 -33 hhcurveto
          -70 -50 47 71 28 7 24 13 19 hvcurveto
          269 -64 rmoveto
          -13 -24 -13 -20 -13 -16 -184 161 rcurveline
          -90 callgsubr
          -106 75 -79 94 -18 hvcurveto
          -164 -152 rlineto
          162 hlineto
          306 288 rlineto
          endchar
        </CharString>
        <CharString name="dvB_RA">
          54 369 192 -61 callgsubr
          -683 -95 460 -269 hlineto
          -1 1 rlineto
          -74 callgsubr
          -138 -89 -93 -122 -106 75 -77 91 -20 hvcurveto
          -161 -152 rlineto
          162 hlineto
          220 210 rlineto
          -145 -11 callgsubr
        </CharString>
        <CharString name="dvB_SA">
          493 684 124 callgsubr
          165 -219 vlineto
          -504 -155 -76 callsubr
          915 302 rmoveto
          -1122 -95 617 125 callsubr
          13 -18 -8 -10 -7 -9 -9 -9 rlinecurve
          -190 167 rlineto
          -92 callsubr
          95 73 41 61 50 hvcurveto
          125 -179 89 callsubr
        </CharString>
        <CharString name="dvB_SHA">
          532 416 -22 callgsubr
          -443 -95 443 hlineto
          -48 -374 -76 callsubr
          419 82 1 callgsubr
          -107 -88 hlineto
          -7 -8 -6 -8 -8 -8 -97 callgsubr
          95 73 42 61 50 hvcurveto
          165 -180 -39 callgsubr
          424 220 rmoveto
          -660 118 -28 callsubr
        </CharString>
        <CharString name="dvB_TA">
          416 368 191 -76 callsubr
          838 302 rmoveto
          -1045 -95 822 -99 -86 hlineto
          -168 -85 -84 -119 -11 hvcurveto
          -9 -12 -9 48 callsubr
          75 61 26 41 47 hvcurveto
          -86 29 72 -57 106 7 callgsubr
        </CharString>
        <CharString name="dvB_VA">
          411 368 191 -76 callsubr
          833 302 rmoveto
          -1040 -95 816 -266 hlineto
          72 callsubr
          -13 1 -12 2 -11 hvcurveto
          -7 -9 -6 -7 -8 -8 -97 callgsubr
          85 68 33 51 48 hvcurveto
          -48 39 61 -25 66 hhcurveto
          -73 callgsubr
        </CharString>
        <CharString name="dvB_YA">
          438 817 352 -107 callsubr
          -449 -374 -76 callsubr
          860 302 rmoveto
          -1067 -95 569 hlineto
          -89 callgsubr
          5 -42 11 -37 15 -32 -9 -12 -9 -11 -10 -10 -97 callgsubr
          97 74 43 63 50 hvcurveto
          -46 45 59 -24 64 -102 callsubr
          vlineto
          endchar
        </CharString>
        <CharString name="dvC">
          -162 440 -22 callgsubr
          -467 -95 467 hlineto
          54 -238 rmoveto
          -75 -29 -71 -63 -93 -43 callgsubr
          136 96 87 84 27 vhcurveto
          endchar
        </CharString>
        <CharString name="dvCA">
          75 677 -22 callgsubr
          -704 -95 482 14 callgsubr
          -352 -97 125 vlineto
          -37 -20 -27 -36 -58 vvcurveto
          -92 74 -70 115 vhcurveto
          43 callsubr
        </CharString>
        <CharString name="dvCH">
          69 671 155 callsubr
          -698 -95 130 vlineto
          -15 callgsubr
          113 -75 68 -116 134 callsubr
          vhcurveto
          -94 vlineto
          4 11 19 2 17 hhcurveto
          55 36 -34 -60 -100 -77 -60 -110 -73 -55 29 50 44 29 27 63 hvcurveto
          37 98 -34 hlineto
          57 callgsubr
          endchar
        </CharString>
        <CharString name="dvCHA">
          72 419 498 -70 callsubr
          -701 -95 130 vlineto
          -15 callgsubr
          68 -28 52 -47 31 vhcurveto
          97 vlineto
          endchar
        </CharString>
        <CharString name="dvCH_RA">
          75 422 498 rmoveto
          66 callgsubr
          38 98 -35 hlineto
          -49 34 callsubr
          188 hlineto
          255 hmoveto
          95 -704 -95 133 vlineto
          27 callgsubr
          69 -27 52 -48 30 vhcurveto
          97 vlineto
          endchar
        </CharString>
        <CharString name="dvCH_R_YA">
          665 1044 8 callgsubr
          -51 -88 -13 -22 -64 vhcurveto
          93 512 vlineto
          -741 -266 rmoveto
          98 -35 vlineto
          -49 34 callsubr
          188 -67 66 callgsubr
          1015 361 rmoveto
          -1307 -95 133 hlineto
          27 callgsubr
          28 -5 26 -9 22 vhcurveto
          14 51 54 10 38 -22 callsubr
        </CharString>
        <CharString name="dvCH_YA">
          673 1052 8 callgsubr
          -54 -94 -14 -25 -65 vhcurveto
          97 522 vlineto
          -752 -266 rmoveto
          98 -34 vlineto
          57 callgsubr
          188 -67 -5 hlineto
          134 callsubr
          hvcurveto
          -94 vlineto
          4 11 19 2 17 hhcurveto
          55 36 -34 -60 -100 -77 -60 -110 -73 -55 29 50 44 29 27 63 hvcurveto
          1025 361 rmoveto
          -1315 -95 130 hlineto
          -15 callgsubr
          27 -4 25 -9 22 vhcurveto
          15 53 59 11 40 -22 callsubr
        </CharString>
        <CharString name="dvC_CA">
          449 1051 -22 callgsubr
          -1078 -95 856 14 callgsubr
          -322 -97 95 vlineto
          -35 -19 -26 -33 -3 -52 rrcurveto
          -45 -36 -55 -32 -66 -43 callgsubr
          82 67 31 44 46 vhcurveto
          -46 32 57 -29 74 hhcurveto
          43 callsubr
        </CharString>
        <CharString name="dvC_CHA">
          471 818 498 -70 callsubr
          -1100 -95 529 150 callsubr
          -65 -5 -44 -31 -16 -49 rrcurveto
          -42 -34 -56 -34 -67 -43 callgsubr
          72 62 25 36 46 vhcurveto
          -68 36 91 -35 101 hhcurveto
          176 131 105 160 68 -28 52 -47 31 hvcurveto
          97 vlineto
          endchar
        </CharString>
        <CharString name="dvC_CH_VA">
          487 840 498 rmoveto
          -5 hlineto
          134 callsubr
          hvcurveto
          -94 vlineto
          4 11 19 2 17 hhcurveto
          55 36 -33 -60 -94 -80 -61 -111 -93 -58 32 53 37 34 26 59 hvcurveto
          37 99 -34 hlineto
          -50 -33 29 46 36 16 29 32 23 hvcurveto
          214 hlineto
          -4 -587 rmoveto
          -65 -58 -53 -67 -68 -44 36 64 66 46 32 61 vhcurveto
          0 9 vlineto
          43 41 6 12 37 hvcurveto
          253 489 rmoveto
          95 -1116 -95 525 vlineto
          -25 -24 -12 -33 -32 vvcurveto
          -69 47 -50 71 -4 vhcurveto
          -68 -5 -49 -35 -11 -56 rrcurveto
          -38 -35 -52 -30 -63 -43 callgsubr
          73 62 26 36 46 vhcurveto
          17 -26 26 -21 32 -16 rrcurveto
          -40 -31 -24 -47 -53 vvcurveto
          -128 98 -68 110 66 49 24 39 32 vhcurveto
          -143 115 457 vlineto
          47 45 28 60 70 vvcurveto
          68 -28 52 -47 30 vhcurveto
          97 vlineto
          endchar
        </CharString>
        <CharString name="dvC_MA">
          414 795 -33 callsubr
          221 95 rmoveto
          -1043 -95 529 -208 hlineto
          -28 -7 -16 -18 -29 vvcurveto
          -9 2 -11 3 -11 vhcurveto
          -49 -37 -56 -34 -69 -43 callgsubr
          91 72 39 50 47 vhcurveto
          19 -42 49 callgsubr
        </CharString>
        <CharString name="dvC_NA">
          78 680 -22 callgsubr
          -707 -95 485 14 callgsubr
          -352 -97 125 vlineto
          -37 -20 -27 -36 -58 vvcurveto
          -75 49 -60 81 -20 vhcurveto
          -59 -34 rlineto
          -36 -22 -17 -26 -32 vvcurveto
          -53 48 -49 49 -28 vhcurveto
          69 45 rlineto
          -23 25 -24 31 24 vvcurveto
          13 6 10 12 9 vhcurveto
          162 112 24 14 18 18 12 18 rlinecurve
          -176 116 -80 callgsubr
        </CharString>
        <CharString name="dvC_R">
          -157 445 -22 callgsubr
          -472 -95 472 hlineto
          46 -240 rmoveto
          -78 -47 -69 -58 -74 hhcurveto
          -61 -41 28 53 62 53 38 125 hvcurveto
          171 callsubr
          124 vlineto
          -36 -20 -27 -36 -58 vvcurveto
          -83 63 -63 83 -10 vhcurveto
          -157 -145 rlineto
          156 hlineto
          316 291 rlineto
          endchar
        </CharString>
        <CharString name="dvC_RA">
          77 679 -22 callgsubr
          -706 -95 483 -246 hlineto
          -68 -67 -62 -88 -61 -41 28 53 62 53 38 125 vhcurveto
          171 callsubr
          124 vlineto
          -36 -20 -27 -36 -58 vvcurveto
          -78 54 -61 85 -17 vhcurveto
          -157 -145 rlineto
          155 hlineto
          233 216 rlineto
          -171 -11 callgsubr
        </CharString>
        <CharString name="dvC_YA">
          468 847 352 -107 callsubr
          84 callsubr
          -1097 -95 599 hlineto
          -89 callgsubr
          4 -35 9 -32 11 -28 rrcurveto
          -51 -37 -58 -37 -71 -43 callgsubr
          100 78 47 58 45 vhcurveto
          -56 47 64 -30 71 -102 callsubr
          vlineto
          endchar
        </CharString>
        <CharString name="dvCandrabindu">
          20 callsubr
        </CharString>
        <CharString name="dvD">
          -7 646 -248 23 callsubr
          -532 908 21 callgsubr
        </CharString>
        <CharString name="dvDA">
          -7 -27 660 21 callgsubr
        </CharString>
        <CharString name="dvDA_mvR">
          -92 399 565 rmoveto
          111 95 -537 -95 309 -66 hlineto
          1 -15 -16 1 -16 hhcurveto
          -110 -68 -49 -75 -67 45 -39 80 -4 hvcurveto
          -83 -5 -50 -43 -73 vvcurveto
          -100 110 -47 123 66 65 21 19 31 vhcurveto
          107 vlineto
          -27 -37 -61 -26 -64 hhcurveto
          -67 -48 16 44 38 34 25 72 hvcurveto
          72 99 -66 hlineto
          -75 -26 22 32 37 42 17 57 38 52 -8 -12 32 hvcurveto
          endchar
        </CharString>
        <CharString name="dvDD">
          -46 205 -66 3 callgsubr
          96 631 80 callsubr
          3 callsubr
          endchar
        </CharString>
        <CharString name="dvDDA">
          -46 420 565 80 callsubr
          3 callsubr
          endchar
        </CharString>
        <CharString name="dvDDH">
          -14 266 205 -45 callgsubr
          241 -515 23 callsubr
          endchar
        </CharString>
        <CharString name="dvDDHA">
          -14 266 205 -45 callgsubr
          endchar
        </CharString>
        <CharString name="dvDDH_DDHA">
          31 486 565 rmoveto
          147 95 -660 -95 397 -56 hlineto
          1 -10 -10 0 -9 hhcurveto
          -159 -2 -133 -71 -145 vvcurveto
          -84 53 -63 75 -36 vhcurveto
          -70 -32 -49 -55 -71 vvcurveto
          -133 128 -74 148 135 107 66 94 76 -61 50 -101 -41 -47 -10 -14 -26 vhcurveto
          -87 vlineto
          13 24 45 12 33 hhcurveto
          39 23 -17 -27 -41 -67 -21 -57 -94 -69 44 68 87 80 27 79 13 hvcurveto
          128 2 103 59 92 vvcurveto
          84 -70 44 -95 -45 -42 -11 -12 -25 vhcurveto
          -86 vlineto
          12 25 41 11 36 hhcurveto
          39 23 -17 -26 -44 -52 -13 -71 -89 -74 41 78 90 98 38 111 35 44 -4 -7 30 hvcurveto
          endchar
        </CharString>
        <CharString name="dvDDH_R">
          -11 242 -198 3 callgsubr
          91 763 -18 callsubr
        </CharString>
        <CharString name="dvDDH_RA">
          -11 452 565 -18 callsubr
        </CharString>
        <CharString name="dvDDH_YA">
          565 609 404 rmoveto
          64 35 -12 -34 -53 -75 -16 -74 -15 hvcurveto
          -164 21 133 callgsubr
          106 95 -1194 -95 362 -82 vlineto
          -167 -13 -129 -68 -156 vvcurveto
          -134 108 -98 152 52 callgsubr
          -86 vlineto
          11 17 34 11 26 hhcurveto
          39 24 -20 -29 -46 -46 -24 -56 -87 -59 62 76 122 122 17 168 12 hvcurveto
          5 61 60 2 40 hhcurveto
          -157 161 rmoveto
          492 -278 hlineto
          -86 -50 -52 -80 -62 -41 21 51 -16 vhcurveto
          71 23 57 46 69 vvcurveto
          90 -67 48 -135 -41 -72 -1 -5 -56 vhcurveto
          endchar
        </CharString>
        <CharString name="dvDDHxA">
          -14 224 -131 rmoveto
          -37 30 -30 37 38 30 30 37 38 -30 30 -38 -16 callsubr
          vhcurveto
          42 336 -45 callgsubr
          endchar
        </CharString>
        <CharString name="dvDD_DDA">
          -10 458 419 rmoveto
          146 134 95 -619 -95 368 -51 -99 vlineto
          -93 -90 -36 -100 -65 48 -59 110 hvcurveto
          34 38 6 46 hhcurveto
          40 22 -15 -27 -40 -45 -11 -72 -69 -93 25 36 -58 hvcurveto
          -110 vlineto
          17 -9 23 -9 27 -7 rrcurveto
          -24 -20 -15 -33 -31 vvcurveto
          -72 66 -40 91 vhcurveto
          10 78 8 15 hhcurveto
          39 -2 19 -16 -27 vvcurveto
          -36 -42 -19 -65 -76 -99 23 38 -61 vhcurveto
          -110 vlineto
          -30 62 91 -18 80 hhcurveto
          130 96 57 104 73 -50 54 -111 3 hvcurveto
          -16 -77 -6 -10 hhcurveto
          -41 1 -12 15 20 vvcurveto
          18 12 16 18 9 vhcurveto
          -1 17 16 -1 17 hhcurveto
          123 105 46 109 72 -51 55 -96 hvcurveto
          -61 -41 -4 -25 hhcurveto
          -47 -13 15 19 27 26 10 44 hvcurveto
          endchar
        </CharString>
        <CharString name="dvDD_DDHA">
          -8 462 419 rmoveto
          146 132 95 -621 -95 372 -51 -99 vlineto
          -92 -90 -36 -100 -73 59 -53 102 hvcurveto
          33 36 7 43 hhcurveto
          40 24 -15 -26 -40 -46 -11 -71 -68 -94 25 36 -57 hvcurveto
          -110 vlineto
          19 -10 26 -10 30 -8 rrcurveto
          -53 -32 -33 -50 -66 vvcurveto
          -128 104 -79 149 135 86 66 94 80 -64 46 -90 -36 -39 -10 -14 -27 vhcurveto
          -86 vlineto
          12 17 37 12 27 hhcurveto
          39 24 -16 -28 -40 -46 -21 -58 -87 -52 44 67 95 77 24 84 12 hvcurveto
          9 1 9 1 9 2 rrcurveto
          0 vlineto
          88 16 69 46 85 vvcurveto
          75 -51 55 -107 vhcurveto
          -54 -43 -5 -25 hhcurveto
          -44 -11 15 19 27 29 10 40 hvcurveto
          endchar
        </CharString>
        <CharString name="dvDD_R">
          -43 202 -211 3 callgsubr
          103 776 -28 callgsubr
        </CharString>
        <CharString name="dvDD_RA">
          -43 424 565 -28 callgsubr
        </CharString>
        <CharString name="dvDD_VA">
          -1 373 1 rmoveto
          -67 -38 -48 -68 -54 -40 30 55 61 42 32 62 vhcurveto
          0 19 vlineto
          26 26 2 5 25 hvcurveto
          99 348 rmoveto
          146 129 95 -628 -95 382 -51 -109 vlineto
          -92 -90 -39 -100 -69 50 -55 110 hvcurveto
          33 41 6 46 hhcurveto
          41 23 -16 -28 hvcurveto
          -42 -1 -54 -10 -62 hhcurveto
          -68 -101 26 35 -57 hvcurveto
          -110 vlineto
          14 -8 19 -7 22 -7 rrcurveto
          -40 -26 -26 -42 -56 vvcurveto
          -107 90 -67 106 52 41 17 30 30 vhcurveto
          -106 112 391 vlineto
          25 24 15 32 42 vvcurveto
          71 -50 58 -103 vhcurveto
          -66 -44 -5 -28 hhcurveto
          -39 -12 16 20 28 28 9 42 hvcurveto
          endchar
        </CharString>
        <CharString name="dvDD_YA">
          532 911 287 rmoveto
          -78 -50 -60 -80 -56 -45 24 49 -15 vhcurveto
          75 18 50 51 65 vvcurveto
          90 -63 53 -140 vhcurveto
          -166 66 490 hlineto
          84 callsubr
          -1161 -95 332 -66 -80 hlineto
          -91 -88 -43 -101 -85 70 -54 90 -5 hvcurveto
          87 7 rlineto
          42 -1 25 -17 -34 vvcurveto
          -50 -48 -19 -64 -74 -69 25 36 -58 vhcurveto
          -110 vlineto
          -25 47 67 -23 92 hhcurveto
          116 108 58 109 1 hvcurveto
          87 -54 56 -118 3 vhcurveto
          -87 -6 rlineto
          -34 1 -20 18 31 vvcurveto
          35 32 13 31 vhcurveto
          352 hlineto
          72 22 -22 -32 -47 -75 -15 -71 -9 hvcurveto
          -157 19 100 -77 116 hhcurveto
          67 62 31 35 19 hvcurveto
          -112 -11 callgsubr
        </CharString>
        <CharString name="dvDDxA">
          -46 246 -66 -101 callsubr
          174 631 80 callsubr
          3 callsubr
          endchar
        </CharString>
        <CharString name="dvDH">
          -151 513 295 rmoveto
          -87 -68 -67 -43 -97 -51 callgsubr
          135 100 63 76 56 vhcurveto
          endchar
        </CharString>
        <CharString name="dvDHA">
          65 667 2 callgsubr
          -319 -95 137 hlineto
          -31 callgsubr
          91 -64 123 76 69 29 48 37 vhcurveto
          -144 -11 callgsubr
        </CharString>
        <CharString name="dvDH_MA">
          412 793 366 rmoveto
          -177 199 177 hlineto
          -377 95 rmoveto
          -95 84 -205 vlineto
          -28 -7 -16 -22 -31 vvcurveto
          -16 5 -18 8 -21 vhcurveto
          -53 -54 -58 -27 -76 -51 callgsubr
          101 82 35 50 58 vhcurveto
          6 -14 rlineto
          100 125 177 -263 114 callsubr
          hlineto
          endchar
        </CharString>
        <CharString name="dvDH_NA">
          68 670 96 callgsubr
          24 48 42 45 23 64 vhcurveto
          -4 callsubr
          166 129 rlineto
          0 vlineto
          16 11 14 13 11 14 rrcurveto
          -157 116 -80 callgsubr
        </CharString>
        <CharString name="dvDH_N_YA">
          436 815 352 -107 callsubr
          -462 95 rmoveto
          -95 187 vlineto
          -89 callgsubr
          6 -47 13 -41 17 -35 rrcurveto
          -45 -47 -53 -26 -70 hhcurveto
          -64 -43 24 48 42 45 23 64 hvcurveto
          -4 callsubr
          162 126 34 18 30 24 28 25 rlinecurve
          -46 45 58 -24 64 -102 callsubr
          95 vlineto
          endchar
        </CharString>
        <CharString name="dvDH_R">
          -127 506 331 rmoveto
          -101 -55 -79 -52 -93 hhcurveto
          -64 -43 22 46 44 44 26 65 hvcurveto
          49 callsubr
          -93 81 -59 103 -1 vhcurveto
          -151 -130 rlineto
          161 hlineto
          336 310 rlineto
          endchar
        </CharString>
        <CharString name="dvDH_RA">
          70 672 96 callgsubr
          22 46 44 44 26 65 vhcurveto
          49 callsubr
          -86 70 -55 95 -12 vhcurveto
          -146 -130 rlineto
          160 hlineto
          217 199 rlineto
          -154 116 -80 callgsubr
        </CharString>
        <CharString name="dvDH_VA">
          440 1042 -22 callgsubr
          -586 -95 362 -266 hlineto
          72 callsubr
          -16 1 -15 3 -14 hvcurveto
          -52 -53 -58 -26 -75 -51 callgsubr
          102 82 36 51 59 vhcurveto
          -43 39 58 -23 62 hhcurveto
          -73 callgsubr
        </CharString>
        <CharString name="dvDH_YA">
          466 845 352 rmoveto
          -90 -54 -46 -81 -70 -46 39 56 -15 vhcurveto
          72 23 65 49 94 vvcurveto
          37 -10 32 -12 19 vhcurveto
          151 hlineto
          -415 95 rmoveto
          -95 141 vlineto
          18 -19 11 -28 -36 vvcurveto
          -51 -48 -42 -110 -17 vhcurveto
          6 -45 12 -40 17 -34 rrcurveto
          -59 -57 -59 -29 -80 -51 callgsubr
          116 90 47 61 59 vhcurveto
          -41 43 56 -21 60 hhcurveto
          69 57 26 40 26 hvcurveto
          165 callsubr
        </CharString>
        <CharString name="dvD_BA">
          34 417 15 rmoveto
          -23 -5 -20 -9 -17 vhcurveto
          -136 116 rlineto
          9 hlineto
          112 callgsubr
          10 22 16 16 hvcurveto
          310 345 rmoveto
          172 106 95 -663 -95 438 108 callgsubr
          -102 87 -66 111 63 48 22 37 32 vhcurveto
          -95 163 callgsubr
          -67 hhcurveto
          -68 170 callsubr
        </CharString>
        <CharString name="dvD_BHA">
          197 680 393 rmoveto
          172 119 95 -826 -95 589 -78 -84 vlineto
          -159 -82 -91 -120 -84 41 -71 71 -34 hvcurveto
          -87 -46 -45 86 rlineto
          46 -25 -31 24 -44 hhcurveto
          -46 -49 -27 -41 -27 hvcurveto
          39 -74 rlineto
          16 11 24 24 24 hhcurveto
          17 11 -11 -20 10 hvcurveto
          41 -78 rlineto
          -11 -10 -7 -13 -14 vvcurveto
          -31 34 -35 87 -56 vhcurveto
          77 41 -51 98 202 106 33 8 30 15 17 23 rlinecurve
          94 callsubr
        </CharString>
        <CharString name="dvD_B_RA">
          33 416 15 rmoveto
          -23 -5 -21 -10 -16 vhcurveto
          -135 116 rlineto
          0 9 vlineto
          112 callgsubr
          9 21 17 16 hvcurveto
          309 346 rmoveto
          172 107 95 -662 -95 437 108 callgsubr
          -84 59 -60 83 -18 vhcurveto
          -121 -104 rlineto
          145 hlineto
          147 132 rlineto
          0 vlineto
          10 8 10 8 8 10 rrcurveto
          -96 163 callgsubr
          -68 hhcurveto
          -67 170 callsubr
        </CharString>
        <CharString name="dvD_DA">
          -20 454 565 rmoveto
          128 95 -609 -95 365 -60 hlineto
          3 -22 -22 1 -20 hhcurveto
          -139 -73 -58 -82 -60 43 -47 80 -3 hvcurveto
          -79 -4 -51 -53 -67 vvcurveto
          -91 84 -55 99 58 68 26 37 19 vhcurveto
          -108 116 264 -114 vlineto
          -85 -5 -59 -39 -62 hhcurveto
          -51 -36 22 39 41 41 27 63 hvcurveto
          44 97 -46 hlineto
          -55 -36 16 37 35 42 19 61 55 62 -11 -16 51 hvcurveto
          endchar
        </CharString>
        <CharString name="dvD_DHA">
          179 304 103 rmoveto
          22 -16 26 -11 30 -6 rrcurveto
          -69 -14 -39 -37 -37 hhcurveto
          -28 -16 19 26 31 18 30 23 20 hvcurveto
          373 303 rmoveto
          172 119 95 -808 -95 571 -78 -84 vlineto
          -159 -82 -91 -120 -40 10 -38 17 -32 hvcurveto
          -8 -7 rlineto
          -14 -16 -23 -7 -20 hhcurveto
          -26 -21 13 27 52 37 3 2 82 hvcurveto
          -93 32 rlineto
          -1 -94 -46 -9 -74 vvcurveto
          -72 52 -38 62 12 15 2 4 14 vhcurveto
          -20 -21 -8 -30 -28 vvcurveto
          -67 54 -44 72 87 75 69 124 25 vhcurveto
          38 7 37 16 19 26 rrcurveto
          94 callsubr
        </CharString>
        <CharString name="dvD_GA">
          -1 486 57 callsubr
          -628 -95 395 34 callgsubr
          -89 46 -74 79 -32 hvcurveto
          -84 vlineto
          -30 -9 -20 -34 -27 -23 13 0 vhcurveto
          -88 vlineto
          -9 26 21 -4 30 hhcurveto
          73 51 39 87 hvcurveto
          81 vlineto
          43 4 49 17 22 31 rrcurveto
          -82 callgsubr
          endchar
        </CharString>
        <CharString name="dvD_GHA">
          170 282 112 rmoveto
          23 -19 27 -14 31 -7 rrcurveto
          -62 -16 -36 -32 -35 hhcurveto
          -29 -16 19 26 30 19 31 24 20 hvcurveto
          -53 68 rmoveto
          -13 -15 -21 -7 -20 hhcurveto
          -28 -22 13 31 35 37 33 57 6 hvcurveto
          1 -33 7 -30 13 -27 rrcurveto
          423 213 rmoveto
          172 119 95 -799 -95 562 -78 -84 vlineto
          -123 -77 -54 -80 -29 hvcurveto
          -100 -3 -109 -56 -109 vvcurveto
          -69 54 -42 62 13 14 2 4 13 vhcurveto
          -19 -22 -8 -29 -28 vvcurveto
          -67 54 -44 72 83 73 62 115 28 vhcurveto
          40 6 43 16 21 29 rrcurveto
          -82 callgsubr
          endchar
        </CharString>
        <CharString name="dvD_G_RA">
          46 490 393 rmoveto
          172 158 95 -675 -95 399 34 callgsubr
          -77 34 -63 60 -36 hvcurveto
          -99 vlineto
          -29 -9 -20 -33 -27 -22 13 0 vhcurveto
          -85 vlineto
          -9 25 21 -3 28 hhcurveto
          71 50 37 84 hvcurveto
          77 vlineto
          -1 11 12 -1 12 hhcurveto
          20 18 3 4 18 hvcurveto
          -124 vlineto
          -254 -196 rlineto
          140 hlineto
          114 92 rlineto
          -70 102 362 vlineto
          1 2 55 -147 rlineto
          116 hlineto
          -107 279 rlineto
          -100 hlineto
          -70 -8 -45 -36 -70 hhcurveto
          -68 -44 42 73 71 49 44 78 hvcurveto
          endchar
        </CharString>
        <CharString name="dvD_MA">
          229 610 104 rmoveto
          -145 206 -114 hlineto
          -60 -10 -50 -26 -47 hhcurveto
          -50 -42 30 56 66 49 32 78 hvcurveto
          185 157 146 hlineto
          221 95 rmoveto
          -858 -95 372 -63 -73 hlineto
          -155 -83 -76 -117 -106 74 -78 112 52 54 23 37 22 hvcurveto
          -87 vlineto
          -27 -7 -17 -22 -31 vvcurveto
          -34 29 -48 32 -59 vhcurveto
          99 105 146 -181 115 744 106 hlineto
          endchar
        </CharString>
        <CharString name="dvD_NA">
          3 490 57 callsubr
          -632 -95 399 34 callgsubr
          -93 51 -78 87 -28 hvcurveto
          -56 -33 rlineto
          -41 -25 -17 -28 -31 vvcurveto
          -51 46 -49 49 -28 vhcurveto
          69 43 rlineto
          -24 23 -19 22 25 vvcurveto
          14 8 13 13 9 vhcurveto
          150 110 13 8 10 8 8 11 rlinecurve
          -82 callgsubr
          endchar
        </CharString>
        <CharString name="dvD_R">
          -2 532 -293 23 callsubr
          -418 953 6 callgsubr
        </CharString>
        <CharString name="dvD_RA">
          -2 -27 660 6 callgsubr
        </CharString>
        <CharString name="dvD_VA">
          2 388 71 callsubr
          -631 -95 394 -78 -81 vlineto
          -159 -85 -89 -121 -75 33 -65 60 -36 hvcurveto
          46 callsubr
        </CharString>
        <CharString name="dvD_YA">
          107 487 307 rmoveto
          -106 -100 -55 -103 -53 -58 12 40 44 54 8 58 vhcurveto
          46 100 -47 hlineto
          -57 -43 11 37 28 22 23 58 37 39 -7 -12 35 hvcurveto
          135 112 vlineto
          222 95 rmoveto
          -736 -95 285 -45 hlineto
          1 -10 -11 0 -10 hhcurveto
          -101 -62 -50 -69 -63 56 -34 70 -3 hvcurveto
          -78 -2 -57 -40 -67 vvcurveto
          -98 99 -47 128 95 73 39 40 37 vhcurveto
          -127 116 -80 callgsubr
        </CharString>
        <CharString name="dvE">
          -6 596 -22 callgsubr
          -623 -42 callsubr
        </CharString>
        <CharString name="dvEcandra">
          -6 397 85 callgsubr
          85 -252 rmoveto
          -623 -42 callsubr
        </CharString>
        <CharString name="dvEight">
          -32 270 89 rmoveto
          -76 -31 43 44 49 31 48 76 2 hvcurveto
          75 -2 35 -42 -50 vvcurveto
          -47 -33 -45 -77 vhcurveto
          -1 477 rmoveto
          76 22 -45 -46 -63 -43 -30 -52 -53 -45 29 63 46 29 46 66 hvcurveto
          130 -235 rmoveto
          55 28 35 49 64 vvcurveto
          133 -101 59 -119 -117 -100 -68 -124 -67 35 -49 57 -28 vhcurveto
          -61 -27 -41 -50 -79 vvcurveto
          -112 92 -69 135 134 98 73 113 82 -41 47 -61 25 vhcurveto
          endchar
        </CharString>
        <CharString name="dvEyelash">
          -382 8 390 rmoveto
          -99 vlineto
          -15 31 39 -12 54 hhcurveto
          80 66 26 19 35 hvcurveto
          -26 94 rlineto
          -23 -40 -51 -22 -66 hhcurveto
          -60 -39 17 15 -23 hvcurveto
          212 175 rmoveto
          95 -247 -95 vlineto
          endchar
        </CharString>
        <CharString name="dvEyelash_HA">
          161 660 97 callgsubr
          103 95 -790 -95 570 -65 -156 vlineto
          -80 -62 -37 -75 hvcurveto
          -4 0 -3 -3 vvcurveto
          -12 -30 -36 -8 -42 hhcurveto
          -60 -46 17 15 -23 hvcurveto
          -99 vlineto
          -15 31 46 -12 54 hhcurveto
          62 53 14 15 37 hvcurveto
          9 -7 8 -5 7 -4 rrcurveto
          -44 -34 -22 -46 -47 vvcurveto
          -91 82 -98 181 144 callsubr
          vhcurveto
          97 vlineto
          -16 -68 -31 -3 -34 hhcurveto
          -110 -41 41 52 44 40 37 79 54 28 -26 -29 -12 -2 -22 -10 -17 hvcurveto
          115 hlineto
          9 19 1 23 15 vvcurveto
          79 -72 66 -120 -33 -30 -4 -6 -26 vhcurveto
          -20 14 -14 20 24 vvcurveto
          25 18 9 26 vhcurveto
          endchar
        </CharString>
        <CharString name="dvEyelash_YA">
          229 608 352 -107 callsubr
          84 callsubr
          -858 -95 360 -8 callsubr
          -39 -29 -34 -62 -21 vhcurveto
          -13 -41 -45 -8 -45 hhcurveto
          -48 -47 9 21 -38 hvcurveto
          -98 vlineto
          -16 33 43 -10 53 hhcurveto
          33 31 3 5 25 hvcurveto
          -109 41 88 -59 100 -102 callsubr
          vlineto
          endchar
        </CharString>
        <CharString name="dvFive">
          -55 202 20 callgsubr
        </CharString>
        <CharString name="dvFour">
          0 162 56 callsubr
        </CharString>
        <CharString name="dvG">
          -258 344 -22 callgsubr
          -371 -95 161 -211 hlineto
          -98 callgsubr
          93 vlineto
          endchar
        </CharString>
        <CharString name="dvGA">
          6 168 callgsubr
          161 28 callsubr
          -565 116 -28 callsubr
        </CharString>
        <CharString name="dvGH">
          -221 420 251 rmoveto
          -50 -33 -53 -25 -65 hhcurveto
          105 callsubr
          hvcurveto
          52 99 -43 hlineto
          -63 54 callsubr
          164 95 -408 -95 120 hlineto
          -11 callsubr
          85 69 33 53 45 vhcurveto
          endchar
        </CharString>
        <CharString name="dvGHA">
          65 444 58 callsubr
          -694 -95 120 hlineto
          -11 callsubr
          75 76 29 50 36 vhcurveto
          -157 -11 callgsubr
        </CharString>
        <CharString name="dvGH_MA">
          352 733 -33 callsubr
          -410 -238 rmoveto
          99 -43 vlineto
          -63 54 callsubr
          223 -208 hlineto
          -28 -7 -16 -18 -29 vvcurveto
          -17 6 -21 10 -25 vhcurveto
          -43 -33 -50 -21 -60 hhcurveto
          105 callsubr
          hvcurveto
          683 333 rmoveto
          -981 -95 120 hlineto
          -11 callsubr
          81 66 30 48 45 vhcurveto
          7 -15 49 callgsubr
        </CharString>
        <CharString name="dvGH_NA">
          66 446 337 rmoveto
          -100 -76 -61 -100 -55 -48 22 51 48 41 30 64 vhcurveto
          52 99 -43 hlineto
          -61 -42 19 50 30 15 22 25 18 hvcurveto
          228 hlineto
          222 95 rmoveto
          -695 -95 121 hlineto
          101 callgsubr
          -68 55 -38 76 -3 vhcurveto
          -85 -8 -57 -51 -77 vvcurveto
          -85 63 -55 89 -17 vhcurveto
          -54 -31 rlineto
          -36 -22 -16 -25 -32 vvcurveto
          -53 49 -51 50 -26 vhcurveto
          69 44 rlineto
          -25 27 -24 30 24 vvcurveto
          12 6 11 13 10 vhcurveto
          163 112 20 12 17 15 13 17 rlinecurve
          -157 116 -80 callgsubr
        </CharString>
        <CharString name="dvGH_R">
          -184 490 344 rmoveto
          -72 -35 -72 -96 -109 hhcurveto
          -54 -48 22 51 48 40 30 64 hvcurveto
          53 99 -44 hlineto
          -62 54 callsubr
          195 95 -445 68 callsubr
          157 hlineto
          327 280 rlineto
          endchar
        </CharString>
        <CharString name="dvGH_RA">
          70 450 337 rmoveto
          -100 -76 -61 -100 -54 -48 22 51 48 40 30 64 vhcurveto
          53 99 -44 hlineto
          -62 54 callsubr
          227 hlineto
          222 95 rmoveto
          -699 68 callsubr
          156 hlineto
          225 201 rlineto
          -156 116 -80 callgsubr
        </CharString>
        <CharString name="dvGH_YA">
          420 799 352 -107 callsubr
          -476 -238 rmoveto
          99 -43 vlineto
          -63 54 callsubr
          307 hlineto
          -89 callgsubr
          5 -44 12 -38 15 -33 rrcurveto
          -54 -37 -55 -27 -66 hhcurveto
          105 callsubr
          hvcurveto
          751 333 rmoveto
          -1049 -95 120 hlineto
          -11 callsubr
          96 73 41 65 51 vhcurveto
          -46 45 59 -25 65 -102 callsubr
          vlineto
          endchar
        </CharString>
        <CharString name="dvG_BA">
          370 685 192 -61 callgsubr
          -999 -95 161 -211 hlineto
          -98 callgsubr
          497 -268 vlineto
          -74 callgsubr
          -138 -89 -93 -122 123 callsubr
          hvcurveto
          -143 -88 callsubr
        </CharString>
        <CharString name="dvG_BHA">
          317 698 96 callsubr
          -16 -17 -3 -4 -15 vhcurveto
          2 -371 -95 161 -57 callsubr
          61 -11 vlineto
          55 callgsubr
          2 0 hlineto
          2 7 8 1 8 -40 callsubr
          169 -272 114 callsubr
          hlineto
          endchar
        </CharString>
        <CharString name="dvG_BH_YA">
          682 1061 352 -107 callsubr
          -402 95 rmoveto
          -95 127 76 callgsubr
          -112 64 callsubr
          -22 -25 -5 -7 -18 vhcurveto
          7 -371 -95 161 -57 callsubr
          78 -11 vlineto
          7 13 21 7 21 -40 callsubr
          137 hlineto
          -103 43 85 -56 97 -102 callsubr
          95 vlineto
          endchar
        </CharString>
        <CharString name="dvG_DA">
          314 801 57 callsubr
          -943 -95 161 -57 callsubr
          432 34 callgsubr
          90 callsubr
          hvcurveto
          -82 callgsubr
          endchar
        </CharString>
        <CharString name="dvG_DHA">
          370 972 2 callgsubr
          -624 -95 161 -211 hlineto
          -98 callgsubr
          164 vlineto
          -31 callgsubr
          91 -64 123 76 69 29 48 37 vhcurveto
          -144 -11 callgsubr
        </CharString>
        <CharString name="dvG_DH_VA">
          754 1356 -22 callgsubr
          -590 -95 366 -266 hlineto
          72 callsubr
          -21 3 -19 4 -18 hvcurveto
          -43 -49 -54 -22 -69 -65 callsubr
          -650 -95 161 -211 hlineto
          -98 callgsubr
          190 vlineto
          -26 callgsubr
          97 79 32 47 57 vhcurveto
          -38 39 55 -20 58 hhcurveto
          -73 callgsubr
        </CharString>
        <CharString name="dvG_DH_YA">
          771 1150 352 -107 callsubr
          -403 95 rmoveto
          -95 128 vlineto
          -89 callgsubr
          7 -53 15 -46 22 -38 rrcurveto
          -47 -51 -56 -23 -71 -65 callsubr
          -650 -95 161 -211 hlineto
          -98 callgsubr
          190 vlineto
          -26 callgsubr
          108 86 40 55 58 vhcurveto
          -32 41 50 -17 54 -102 callsubr
          95 vlineto
          endchar
        </CharString>
        <CharString name="dvG_GA">
          320 922 -22 callgsubr
          -949 -95 161 -211 hlineto
          -98 callgsubr
          197 28 callsubr
          -565 116 565 106 vlineto
          endchar
        </CharString>
        <CharString name="dvG_GHA">
          380 759 58 callsubr
          -1009 -95 161 -211 hlineto
          -98 callgsubr
          157 vlineto
          -11 callsubr
          75 76 29 50 36 vhcurveto
          -157 -11 callgsubr
        </CharString>
        <CharString name="dvG_JA">
          397 1000 -22 callgsubr
          -1027 -95 161 -211 hlineto
          -98 callgsubr
          524 -106 -367 -97 vlineto
          -103 callgsubr
          164 -362 -5 callsubr
          107 hlineto
          endchar
        </CharString>
        <CharString name="dvG_LA">
          494 1096 -22 callgsubr
          -1123 -95 161 -211 hlineto
          -98 callgsubr
          620 -88 vlineto
          3 -12 -13 2 -13 hhcurveto
          -75 -105 callsubr
          65 11 10 -1 -2 10 vhcurveto
          -386 119 565 106 vlineto
          endchar
        </CharString>
        <CharString name="dvG_MA">
          313 694 -33 callsubr
          221 95 rmoveto
          -942 -95 161 -211 hlineto
          -98 callgsubr
          150 -208 vlineto
          -28 -7 -16 -18 -29 -61 callsubr
          hlineto
          endchar
        </CharString>
        <CharString name="dvG_NA">
          9 168 callgsubr
          164 28 callsubr
          -320 vlineto
          -235 -145 rlineto
          -39 -24 -16 -26 -30 vvcurveto
          -55 55 -50 45 -24 vhcurveto
          69 43 rlineto
          -24 22 -23 25 25 vvcurveto
          13 6 12 12 8 vhcurveto
          150 93 rlineto
          -132 116 -28 callsubr
        </CharString>
        <CharString name="dvG_NNA">
          513 642 344 -64 callgsubr
          473 95 rmoveto
          -1142 -95 161 -211 hlineto
          -98 callgsubr
          132 79 callgsubr
        </CharString>
        <CharString name="dvG_N_YA">
          674 1053 352 -107 callsubr
          84 callsubr
          -1303 -95 161 -211 hlineto
          -98 callgsubr
          527 vlineto
          18 -68 callgsubr
          -37 -26 -32 -56 -22 vhcurveto
          19 -31 -52 21 -79 hhcurveto
          -104 hlineto
          -68 -33 -35 -52 -48 17 -48 15 -25 hvcurveto
          94 hlineto
          -6 25 -4 28 18 vvcurveto
          33 10 10 23 vhcurveto
          61 hlineto
          53 26 -13 -9 12 hvcurveto
          -131 36 94 -71 110 -102 callsubr
          vlineto
          endchar
        </CharString>
        <CharString name="dvG_R">
          23 callgsubr
          endchar
        </CharString>
        <CharString name="dvG_RA">
          18 -27 660 19 callsubr
        </CharString>
        <CharString name="dvG_R_YA">
          431 810 352 -107 callsubr
          84 callsubr
          -1060 -95 173 -211 hlineto
          -98 callgsubr
          272 vlineto
          -89 callgsubr
          3 -21 3 -19 5 -18 -381 -334 rcurveline
          158 hlineto
          271 232 rlineto
          -65 46 70 -34 76 -102 callsubr
          vlineto
          endchar
        </CharString>
        <CharString name="dvG_SA">
          430 621 124 callgsubr
          165 -219 vlineto
          223 314 rmoveto
          -1059 -95 161 -211 hlineto
          -98 callgsubr
          276 -123 vlineto
          -32 callgsubr
          -84 hlineto
          191 -274 89 callsubr
        </CharString>
        <CharString name="dvG_VA">
          338 940 -22 callgsubr
          -967 -95 161 -211 hlineto
          -98 callgsubr
          465 24 callsubr
        </CharString>
        <CharString name="dvG_YA">
          391 770 352 -107 callsubr
          84 callsubr
          -1020 -95 161 -211 hlineto
          -98 callgsubr
          244 vlineto
          -89 callgsubr
          -167 21 105 -92 125 -102 callsubr
          vlineto
          endchar
        </CharString>
        <CharString name="dvGx">
          -254 151 90 -101 callsubr
          197 570 rmoveto
          -375 -95 161 -211 hlineto
          -98 callgsubr
          97 vlineto
          endchar
        </CharString>
        <CharString name="dvGxA">
          6 151 90 -101 callsubr
          -178 570 rmoveto
          -95 161 28 callsubr
          -565 116 -28 callsubr
        </CharString>
        <CharString name="dvGx_R">
          23 callgsubr
          -102 -220 -101 callsubr
          endchar
        </CharString>
        <CharString name="dvGx_RA">
          18 312 -40 -101 callsubr
          -339 700 19 callsubr
        </CharString>
        <CharString name="dvH">
          -87 573 230 rmoveto
          94 -277 vlineto
          -32 -29 -3 -6 -26 hvcurveto
          -21 13 -15 21 25 115 callgsubr
          250 157 48 95 -542 -95 378 -65 -156 hlineto
          -81 -61 -37 -75 -64 46 -34 24 -14 hvcurveto
          -44 -32 -22 -46 -48 vvcurveto
          -94 83 -95 179 144 callsubr
          vhcurveto
          97 vlineto
          -16 -67 -32 -3 -34 hhcurveto
          -109 -42 40 53 46 40 35 79 hvcurveto
          endchar
        </CharString>
        <CharString name="dvHA">
          -32 47 callgsubr
          -63 45 -34 24 -14 hvcurveto
          -44 -34 -21 -46 -47 vvcurveto
          -91 81 -98 181 144 callsubr
          vhcurveto
          -72 callsubr
        </CharString>
        <CharString name="dvHA_mU">
          -34 47 callgsubr
          -62 44 -34 24 -14 hvcurveto
          -43 -34 -21 -47 -47 vvcurveto
          -128 103 -53 103 -3 vhcurveto
          6 9 -1 1 5 hvcurveto
          9 12 21 9 17 hhcurveto
          36 26 -19 -34 -33 -25 -28 -61 -60 -91 35 37 -56 hvcurveto
          -114 vlineto
          -34 57 82 -21 72 hhcurveto
          130 65 73 92 77 -58 63 -106 -24 -35 -10 -8 -14 hvcurveto
          -65 2 -32 33 54 vvcurveto
          44 40 41 79 53 27 -23 -34 -12 -2 -14 -8 -12 vhcurveto
          115 hlineto
          6 14 2 16 15 vvcurveto
          76 -61 70 -129 -34 -31 -4 -7 -27 vhcurveto
          -18 13 -13 19 23 136 callsubr
        </CharString>
        <CharString name="dvHA_mUU">
          -32 47 callgsubr
          -62 44 -34 24 -15 hvcurveto
          -43 -33 -21 -46 -46 vvcurveto
          -60 33 -57 65 -27 vhcurveto
          -22 -25 -13 -31 -34 vvcurveto
          -102 77 -46 92 13 23 2 7 18 vhcurveto
          90 vlineto
          -6 -14 -15 -2 -15 hhcurveto
          -38 -29 21 33 32 24 20 36 100 47 -97 -108 hvcurveto
          109 hlineto
          130 -56 169 -200 vhcurveto
          -78 4 -40 36 50 vvcurveto
          43 38 36 77 57 29 -25 -30 -12 -1 -22 -11 -17 vhcurveto
          115 hlineto
          9 19 1 23 15 vvcurveto
          80 -73 65 -123 -32 -28 -3 -7 -26 vhcurveto
          -19 160 callgsubr
        </CharString>
        <CharString name="dvHA_mvR">
          -23 450 97 callgsubr
          129 95 -606 -95 361 -65 -134 vlineto
          -81 -61 -37 -75 -65 47 -34 24 -14 hvcurveto
          -55 -42 -26 -61 -63 vvcurveto
          -173 163 -80 168 26 25 2 5 25 vhcurveto
          88 vlineto
          -5 -22 -26 -1 -21 hhcurveto
          -151 -70 79 79 75 57 60 83 26 7 -11 -12 hvcurveto
          -27 -64 -42 -46 vvcurveto
          -62 61 -25 59 52 48 11 17 29 vhcurveto
          87 vlineto
          -17 -25 -44 -14 -34 hhcurveto
          -21 -16 4 16 hvcurveto
          29 67 44 52 vvcurveto
          53 -48 35 -83 -41 -35 -5 -9 -31 vhcurveto
          -20 160 callgsubr
        </CharString>
        <CharString name="dvH_LA">
          78 546 97 callgsubr
          135 95 -708 -95 457 131 callsubr
          -68 53 -34 22 -12 hvcurveto
          -62 -50 -27 -72 -76 vvcurveto
          -189 144 -103 182 25 31 1 4 19 vhcurveto
          89 vlineto
          -4 -16 -26 -1 -24 hhcurveto
          -140 -79 87 110 101 61 70 126 61 43 -15 -30 26 hvcurveto
          -2 hlineto
          -39 -32 -18 -35 -9 hvcurveto
          26 -7 -28 24 -45 hhcurveto
          -66 -39 -49 -71 -90 63 -54 93 10 12 1 1 7 hvcurveto
          61 vlineto
          -2 -5 -8 0 -7 hhcurveto
          -57 -32 30 52 36 13 20 22 24 11 -18 -30 hvcurveto
          -35 78 33 vlineto
          36 13 21 34 8 9 -1 -2 7 vhcurveto
          2 -12 1 -12 -14 vvcurveto
          -55 -14 -57 -17 -38 vhcurveto
          106 hlineto
          19 41 13 60 58 vvcurveto
          136 -103 97 -165 -52 -45 -7 -13 -37 vhcurveto
          -20 14 -14 20 24 vvcurveto
          25 18 9 26 vhcurveto
          endchar
        </CharString>
        <CharString name="dvH_MA">
          238 619 187 rmoveto
          -137 18 hlineto
          78 -70 46 -104 -29 -27 -3 -6 -24 vhcurveto
          -19 13 -13 18 23 115 callgsubr
          224 157 155 hlineto
          221 95 rmoveto
          -867 -95 375 -65 -130 hlineto
          -80 -62 -37 -75 -61 42 -32 25 -14 hvcurveto
          -52 -39 -26 -59 -67 vvcurveto
          -175 150 -107 165 21 23 2 4 20 vhcurveto
          95 vlineto
          -3 -13 -15 -1 -15 hhcurveto
          -124 -94 73 104 85 53 44 68 42 25 -14 -27 hvcurveto
          -10 vlineto
          -27 -7 -16 -20 -30 vvcurveto
          -29 28 -47 30 -54 vhcurveto
          96 86 137 -162 115 642 106 hlineto
          endchar
        </CharString>
        <CharString name="dvH_NA">
          73 543 97 callgsubr
          132 95 -702 -95 453 -65 -222 vlineto
          -80 -62 -37 -75 -69 56 -36 23 -13 hvcurveto
          -63 -43 -29 -65 -68 vvcurveto
          -176 167 -88 168 27 22 1 6 29 vhcurveto
          89 vlineto
          -5 -21 -26 -1 -24 hhcurveto
          -145 -80 81 88 80 62 62 119 30 27 -4 -9 22 hvcurveto
          -107 -49 rlineto
          -39 -18 -18 -24 -30 vvcurveto
          -48 52 -53 26 -19 vhcurveto
          74 35 rlineto
          -25 32 -15 28 15 vvcurveto
          13 8 7 12 5 vhcurveto
          103 48 rlineto
          9 -16 4 -18 -20 vvcurveto
          -26 -4 -25 -6 -17 vhcurveto
          107 hlineto
          6 19 4 32 27 vvcurveto
          118 -91 92 -171 -50 -43 -6 -11 -37 vhcurveto
          -24 16 -18 23 26 vvcurveto
          25 18 9 26 vhcurveto
          endchar
        </CharString>
        <CharString name="dvH_NNA">
          85 391 123 rmoveto
          -35 -8 -14 -27 -26 -11 14 36 vhcurveto
          108 vlineto
          1 11 12 1 13 hhcurveto
          13 12 -1 -1 11 hvcurveto
          164 176 rmoveto
          157 132 95 -714 -95 466 131 callsubr
          -70 56 -34 21 -12 hvcurveto
          -60 -43 -30 -63 -69 87 callgsubr
          52 18 42 45 25 hvcurveto
          -85 vlineto
          -82 41 -36 72 74 41 40 79 vhcurveto
          81 vlineto
          32 -22 16 -35 -49 111 callsubr
          -49 -43 -6 -11 -36 vhcurveto
          -23 14 -17 22 26 vvcurveto
          25 18 9 26 vhcurveto
          endchar
        </CharString>
        <CharString name="dvH_RA">
          80 555 97 callgsubr
          127 95 -709 -95 466 131 callsubr
          -67 51 -34 23 -13 hvcurveto
          -59 -43 -28 -64 -70 87 callgsubr
          83 63 60 100 24 22 -2 -4 19 hvcurveto
          -161 -203 rlineto
          130 hlineto
          109 153 rlineto
          13 -21 6 -25 -31 111 callsubr
          -44 -39 -5 -10 -34 vhcurveto
          -21 14 -16 21 25 vvcurveto
          25 18 9 26 vhcurveto
          endchar
        </CharString>
        <CharString name="dvH_VA">
          70 552 97 callgsubr
          120 95 -699 -95 463 131 callsubr
          -71 56 -34 21 -11 hvcurveto
          -66 -47 -31 -70 -72 vvcurveto
          -176 140 -111 189 30 29 3 7 34 vhcurveto
          89 vlineto
          -5 -25 -27 -4 -26 hhcurveto
          -123 -104 57 127 93 64 71 111 102 45 -52 -77 9 hvcurveto
          -1 1 rlineto
          -48 -10 -42 -26 -42 hhcurveto
          -36 -20 16 29 29 23 15 24 12 12 -3 -4 10 hvcurveto
          71 vlineto
          5 -13 -20 4 -19 hhcurveto
          -75 -62 -47 -72 -73 58 -49 78 46 40 15 29 29 hvcurveto
          -4 -19 -5 -17 -6 -14 rrcurveto
          109 hlineto
          13 34 11 62 42 vvcurveto
          134 -87 110 -171 -46 -40 -6 -11 -35 vhcurveto
          -22 14 -17 22 26 136 callsubr
        </CharString>
        <CharString name="dvH_YA">
          243 624 200 rmoveto
          -87 -58 -47 -69 -37 -31 15 24 -16 vhcurveto
          53 16 40 40 55 vvcurveto
          90 -83 37 -100 -36 -34 -5 -11 -31 vhcurveto
          -14 12 -9 16 19 115 callgsubr
          235 157 146 hlineto
          221 95 rmoveto
          -872 -95 389 -65 -141 hlineto
          -80 -62 -37 -75 -58 37 -31 25 -16 hvcurveto
          -47 -39 -29 -57 -68 vvcurveto
          -180 157 -105 165 18 20 2 3 16 vhcurveto
          95 vlineto
          -2 -9 -14 -1 -10 hhcurveto
          -116 -109 73 107 90 59 51 93 37 22 -15 -26 -36 -45 -20 -65 -13 hvcurveto
          -119 20 95 -49 83 hhcurveto
          62 52 20 38 28 hvcurveto
          -109 115 642 -25 callsubr
        </CharString>
        <CharString name="dvI">
          -64 432 565 rmoveto
          106 95 -565 -95 342 -59 -67 10 callgsubr
          186 2 hlineto
          0 vlineto
          endchar
        </CharString>
        <CharString name="dvII">
          -64 425 565 rmoveto
          113 95 -136 hlineto
          -14 18 -19 35 33 vvcurveto
          36 23 28 40 33 34 -11 -14 22 vhcurveto
          108 vlineto
          15 -31 -34 5 -38 hhcurveto
          -93 -76 -56 -101 -46 19 -33 13 -17 hvcurveto
          -308 -95 335 -59 -60 10 callgsubr
          179 2 hlineto
          0 vlineto
          endchar
        </CharString>
        <CharString name="dvII_Anusvara">
          -52 442 565 rmoveto
          108 95 -134 hlineto
          -19 20 -30 41 53 62 callgsubr
          13 -27 -41 8 -35 hhcurveto
          -110 -78 -75 -101 -61 23 -47 28 -34 hvcurveto
          -325 -95 352 -58 -82 hlineto
          -91 -88 -44 -101 -83 70 -57 90 -4 hvcurveto
          88 6 rlineto
          37 -4 19 -24 -31 vvcurveto
          -46 -36 -29 -44 -57 -46 37 49 -18 vhcurveto
          -108 -243 116 102 hlineto
          -22 34 43 -12 47 hhcurveto
          108 77 66 97 89 -53 60 -106 5 hvcurveto
          -88 -4 rlineto
          -34 1 -20 21 28 vvcurveto
          35 32 13 31 vhcurveto
          196 hlineto
          -1 3 rlineto
          1 hlineto
          -25 349 61 callsubr
        </CharString>
        <CharString name="dvJ">
          -154 448 -22 callgsubr
          -475 -95 475 hlineto
          116 -106 rmoveto
          -473 -97 hlineto
          -103 callgsubr
          270 hlineto
          endchar
        </CharString>
        <CharString name="dvJA">
          80 168 callgsubr
          485 -106 -367 -97 vlineto
          -103 callgsubr
          164 -362 -5 callsubr
          107 95 hlineto
          endchar
        </CharString>
        <CharString name="dvJH">
          -43 672 329 rmoveto
          -393 0 -13 hlineto
          4 callsubr
          123 95 -586 -95 346 -56 -68 vlineto
          -104 -83 -44 -100 -107 93 -26 104 -2 hvcurveto
          -49 callsubr
          209 hlineto
          endchar
        </CharString>
        <CharString name="dvJHA">
          198 279 329 rmoveto
          0 -13 vlineto
          4 callsubr
          140 -236 vlineto
          224 331 rmoveto
          -827 -95 346 -56 -68 hlineto
          -104 -83 -44 -100 -107 93 -26 104 -2 hvcurveto
          -49 callsubr
          113 -238 100 callsubr
        </CharString>
        <CharString name="dvJH_MA">
          550 931 -33 callsubr
          -495 -151 rmoveto
          2 vlineto
          0 vlineto
          149 202 -208 vlineto
          -18 -5 -14 -9 -6 -14 rrcurveto
          -321 0 -13 hlineto
          -54 2 -29 8 31 vvcurveto
          33 29 11 45 vhcurveto
          895 246 rmoveto
          -1179 -95 346 -56 -68 hlineto
          -104 -83 -44 -100 -107 93 -26 104 -2 hvcurveto
          -49 callsubr
          148 hlineto
          3 -8 4 -9 4 -9 32 -71 rcurveline
          -3 callsubr
        </CharString>
        <CharString name="dvJH_NA">
          312 291 335 rmoveto
          0 -5 vlineto
          -58 3 -27 10 29 vvcurveto
          28 26 13 48 vhcurveto
          202 147 216 -230 hlineto
          221 325 rmoveto
          -941 -95 388 -55 -91 hlineto
          -106 -82 -40 -99 -102 97 -30 102 -2 hvcurveto
          62 -2 34 -18 -46 vvcurveto
          -42 -33 -23 -45 -53 -49 36 51 -23 vhcurveto
          -108 -236 116 96 hlineto
          -23 36 45 -14 48 hhcurveto
          107 75 64 96 26 -4 22 -8 20 hvcurveto
          212 -36 hlineto
          -218 -193 rlineto
          -32 -28 -13 -29 -28 vvcurveto
          -47 40 -44 51 -24 vhcurveto
          66 40 rlineto
          -25 23 -19 23 23 vvcurveto
          12 5 11 14 14 vhcurveto
          131 132 rlineto
          -93 115 -80 callgsubr
        </CharString>
        <CharString name="dvJH_R">
          45 723 247 rmoveto
          82 -453 vlineto
          118 callsubr
          200 95 -674 -95 357 -55 -75 vlineto
          31 callgsubr
          239 hlineto
          -392 -359 rlineto
          157 hlineto
          313 292 rlineto
          endchar
        </CharString>
        <CharString name="dvJH_RA">
          292 270 329 rmoveto
          118 callsubr
          223 -236 vlineto
          224 331 rmoveto
          -921 -95 357 -55 -75 hlineto
          31 callgsubr
          203 -34 hlineto
          -356 -325 rlineto
          157 hlineto
          199 200 rlineto
          -79 -88 callsubr
        </CharString>
        <CharString name="dvJH_YA">
          601 980 352 -107 callsubr
          -701 -236 rmoveto
          0 -13 vlineto
          4 callsubr
          269 vlineto
          -89 callgsubr
          2 -15 2 -14 4 -14 rrcurveto
          619 331 rmoveto
          -1230 -95 346 -56 -68 hlineto
          -104 -83 -44 -100 -107 93 -26 104 -2 hvcurveto
          -49 callsubr
          155 hlineto
          -81 47 76 -44 86 -102 callsubr
          vlineto
          endchar
        </CharString>
        <CharString name="dvJ_BA">
          492 807 192 -61 callgsubr
          -1121 -95 897 66 callsubr
          -59 -50 -17 -29 -38 hvcurveto
          -473 -97 hlineto
          -103 callgsubr
          201 hlineto
          -7 -22 -4 -25 -25 45 callgsubr
        </CharString>
        <CharString name="dvJ_DA">
          416 903 57 callsubr
          -1042 -95 809 -78 -84 vlineto
          -53 -45 -10 -18 -36 hvcurveto
          0 -473 -97 vlineto
          -103 callgsubr
          178 hlineto
          -10 -26 -6 -29 -31 vvcurveto
          90 callsubr
          vhcurveto
          -82 callgsubr
          endchar
        </CharString>
        <CharString name="dvJ_DDA">
          408 874 143 callgsubr
          -1037 -95 785 -59 -80 hlineto
          -53 -52 -15 -32 -34 hvcurveto
          -448 -97 hlineto
          -103 callgsubr
          205 -1 hlineto
          82 callgsubr
          vhcurveto
          -96 callgsubr
          endchar
        </CharString>
        <CharString name="dvJ_JA">
          480 1083 -22 callgsubr
          -1110 -95 885 -106 -767 -97 hlineto
          -103 callgsubr
          197 39 callsubr
        </CharString>
        <CharString name="dvJ_JHA">
          633 714 329 rmoveto
          0 -13 vlineto
          4 callsubr
          140 -236 vlineto
          224 331 rmoveto
          -1262 -95 781 -56 -68 hlineto
          -62 -55 -16 -34 -34 hvcurveto
          -444 -97 hlineto
          -103 callgsubr
          205 hlineto
          2 -104 92 -26 103 -2 rrcurveto
          -49 callsubr
          113 -238 100 callsubr
        </CharString>
        <CharString name="dvJ_J_NYA">
          629 1237 -22 callgsubr
          -1264 -95 1034 -65 -319 hlineto
          -53 -51 -12 -29 -35 hvcurveto
          -458 -97 hlineto
          -103 callgsubr
          211 hlineto
          -88 68 -45 124 69 38 -16 -45 -44 -34 -27 -48 -57 -50 42 47 -18 vhcurveto
          41 callsubr
          hlineto
          endchar
        </CharString>
        <CharString name="dvJ_J_VA">
          837 1439 -22 callgsubr
          -1466 -95 1242 -266 hlineto
          -102 callgsubr
          -48 -42 -12 -22 -34 hvcurveto
          -858 -97 hlineto
          -103 callgsubr
          204 hlineto
          -103 callgsubr
          171 hlineto
          -8 -23 -4 -25 -26 -71 callsubr
        </CharString>
        <CharString name="dvJ_J_YA">
          872 1251 352 -107 callsubr
          84 callsubr
          -1501 -95 1003 -8 callsubr
          -31 -18 -27 -38 -21 vhcurveto
          18 -26 -66 38 -116 hhcurveto
          -651 -97 hlineto
          -103 callgsubr
          206 hlineto
          -103 callgsubr
          38 hlineto
          56 31 -8 -10 23 hvcurveto
          -149 29 100 -82 118 -102 callsubr
          vlineto
          endchar
        </CharString>
        <CharString name="dvJ_KA">
          646 1248 155 callsubr
          -1275 -95 791 -287 vlineto
          -46 callgsubr
          -34 45 53 60 39 42 61 6 6 0 -1 6 vhcurveto
          95 vlineto
          1 -8 -7 0 -8 hhcurveto
          -41 -37 -9 -16 -32 hvcurveto
          9 -473 -97 vlineto
          -103 callgsubr
          185 hlineto
          -12 -25 -6 -29 -32 vvcurveto
          -111 77 -79 116 47 36 17 25 27 vhcurveto
          -87 callgsubr
        </CharString>
        <CharString name="dvJ_MA">
          446 827 -33 callsubr
          221 95 rmoveto
          -1075 -95 561 -106 -443 -97 hlineto
          -103 callgsubr
          240 -5 hlineto
          -28 -7 -16 -18 -29 -61 callsubr
          hlineto
          endchar
        </CharString>
        <CharString name="dvJ_NA">
          77 168 callgsubr
          482 -106 -367 -97 vlineto
          100 55 -40 -62 -63 -44 -25 -67 40 callsubr
          113 89 68 102 54 -24 41 -42 25 hvcurveto
          166 -198 hlineto
          -203 -119 rlineto
          -39 -24 -15 -28 -29 vvcurveto
          -55 53 -48 46 -24 vhcurveto
          69 43 rlineto
          -25 22 -21 23 25 vvcurveto
          14 6 13 13 8 vhcurveto
          116 74 rlineto
          -59 118 -28 callsubr
        </CharString>
        <CharString name="dvJ_NY">
          -42 560 -22 callgsubr
          -590 -95 590 hlineto
          141 -174 rmoveto
          95 -450 vlineto
          22 callsubr
          endchar
        </CharString>
        <CharString name="dvJ_NYA">
          169 -30 -22 callgsubr
          -95 600 -65 -319 vlineto
          -94 -89 -39 -99 -88 68 -45 124 69 38 -16 -45 -44 -34 -27 -48 -57 -50 42 47 -18 hvcurveto
          41 callsubr
          95 hlineto
          endchar
        </CharString>
        <CharString name="dvJ_NY_YA">
          568 947 352 -107 callsubr
          84 callsubr
          -1200 -95 702 -8 callsubr
          -31 -18 -27 -38 -21 vhcurveto
          49 -46 -68 34 -125 hhcurveto
          -156 hlineto
          22 callsubr
          135 hlineto
          80 46 -10 -33 28 hvcurveto
          -152 27 101 -83 119 -102 callsubr
          vlineto
          endchar
        </CharString>
        <CharString name="dvJ_R">
          -93 122 callsubr
          -409 -665 rmoveto
          152 hlineto
          351 302 -65 74 rlineto
          -445 183 rmoveto
          -19 callgsubr
          331 97 hlineto
          endchar
        </CharString>
        <CharString name="dvJ_RA">
          83 168 callgsubr
          488 -106 -368 -19 callgsubr
          163 -153 hlineto
          -361 -309 rlineto
          152 hlineto
          209 180 rlineto
          -80 118 -28 callsubr
        </CharString>
        <CharString name="dvJ_TA">
          452 1054 -22 callgsubr
          -1081 -95 858 -99 -86 hlineto
          -5 0 -649 -97 hlineto
          100 55 -39 -69 -63 -44 -33 -67 -39 -34 10 16 -32 hvcurveto
          -104 vlineto
          -14 38 46 -7 42 hhcurveto
          120 82 67 110 55 -21 44 -43 27 hvcurveto
          223 hlineto
          -25 -37 -12 -45 -50 vvcurveto
          -79 callgsubr
        </CharString>
        <CharString name="dvJ_TTA">
          352 852 565 rmoveto
          102 95 -981 -95 763 -96 -16 hlineto
          -28 -1 -26 -3 -24 -6 rrcurveto
          -551 -97 hlineto
          -103 callgsubr
          205 hlineto
          -22 -34 -11 -39 -43 -58 callsubr
        </CharString>
        <CharString name="dvJ_VA">
          444 1046 -22 callgsubr
          -1073 -95 849 -266 hlineto
          -102 callgsubr
          -48 -42 -12 -22 -34 hvcurveto
          -465 -97 hlineto
          -103 callgsubr
          185 hlineto
          -8 -23 -4 -25 -26 -71 callsubr
        </CharString>
        <CharString name="dvJ_YA">
          451 830 85 callsubr
          84 callsubr
          -1080 -95 583 hlineto
          17 -68 callgsubr
          -31 -18 -29 -40 -20 vhcurveto
          18 -19 -53 39 -123 hhcurveto
          -241 -97 hlineto
          -103 callgsubr
          49 hlineto
          42 28 -8 -9 18 hvcurveto
          -150 28 100 -82 118 hhcurveto
          70 57 26 40 26 166 callsubr
        </CharString>
        <CharString name="dvJx">
          -140 448 -22 callgsubr
          -475 -95 475 hlineto
          -282 -581 -101 callsubr
          398 475 rmoveto
          -473 -97 hlineto
          -103 callgsubr
          270 hlineto
          endchar
        </CharString>
        <CharString name="dvJxA">
          80 166 -16 -101 callsubr
          -193 676 rmoveto
          -95 485 -106 -367 -97 vlineto
          -103 callgsubr
          164 -362 -5 callsubr
          107 95 hlineto
          endchar
        </CharString>
        <CharString name="dvJx_JxA">
          506 166 -16 -101 callsubr
          426 hmoveto
          -16 callsubr
          -37 30 -30 37 38 30 30 37 38 -30 30 -38 hvcurveto
          517 676 rmoveto
          -1136 -95 911 -106 -793 -97 hlineto
          -103 callgsubr
          223 39 callsubr
        </CharString>
        <CharString name="dvJx_R">
          -93 122 callsubr
          11 -565 -101 callsubr
          -420 -100 rmoveto
          152 hlineto
          351 302 -65 74 rlineto
          -445 183 rmoveto
          -19 callgsubr
          331 97 hlineto
          endchar
        </CharString>
        <CharString name="dvJx_RA">
          83 415 -60 -101 callsubr
          -442 720 rmoveto
          -95 488 -106 -368 -19 callgsubr
          163 -153 hlineto
          -361 -309 rlineto
          152 hlineto
          209 180 rlineto
          -80 118 -28 callsubr
        </CharString>
        <CharString name="dvJx_YA">
          451 166 -16 -101 callsubr
          664 368 -107 callsubr
          84 callsubr
          -1080 -95 582 -8 callsubr
          -19 -7 -18 -14 -15 vhcurveto
          29 -473 -97 vlineto
          -103 callgsubr
          133 hlineto
          -161 24 104 -88 122 -102 callsubr
          vlineto
          endchar
        </CharString>
        <CharString name="dvK">
          -39 456 565 rmoveto
          107 95 -590 -55 callsubr
          40 40 51 40 111 callgsubr
        </CharString>
        <CharString name="dvKA">
          220 822 155 callsubr
          -849 -95 365 -287 vlineto
          -58 -40 -40 -50 -61 -34 45 53 60 39 42 61 6 6 0 -1 6 vhcurveto
          95 vlineto
          1 -8 -7 0 -8 hhcurveto
          -120 -93 -75 -124 -111 77 -79 116 17 callsubr
        </CharString>
        <CharString name="dvKH">
          36 540 301 rmoveto
          -97 callsubr
          120 333 95 -665 135 callgsubr
          vlineto
          -69 callsubr
          180 140 113 160 115 -77 84 -129 -59 callgsubr
          endchar
        </CharString>
        <CharString name="dvKHA">
          243 845 -22 callgsubr
          -872 -95 236 -123 hlineto
          -51 -29 -33 -74 vhcurveto
          -72 -93 hlineto
          204 -265 -85 callsubr
        </CharString>
        <CharString name="dvKH_KHA">
          816 1194 -1 callsubr
          -654 -264 rmoveto
          -97 callsubr
          120 462 -97 vlineto
          -52 -12 -24 -43 -3 vhcurveto
          67 -30 -66 44 -93 hhcurveto
          -59 callgsubr
          878 441 rmoveto
          -1445 135 callgsubr
          hlineto
          -69 callsubr
          127 107 56 89 52 hvcurveto
          -88 65 95 -57 124 hhcurveto
          86 75 29 50 54 hvcurveto
          -107 -88 callsubr
        </CharString>
        <CharString name="dvKH_MA">
          625 1006 -33 callsubr
          -466 -264 rmoveto
          -97 callsubr
          120 408 -180 vlineto
          70 -29 -66 45 -95 hhcurveto
          -59 callgsubr
          687 441 rmoveto
          -1254 135 callgsubr
          hlineto
          -69 callsubr
          136 113 65 100 47 hvcurveto
          24 -52 49 callgsubr
        </CharString>
        <CharString name="dvKH_NA">
          238 616 -1 callsubr
          224 95 rmoveto
          -867 135 callgsubr
          hlineto
          -57 -14 -23 -55 vhcurveto
          -67 -93 hlineto
          43 -117 78 -94 113 -38 -95 -36 rcurveline
          -53 -16 -20 -30 -37 vvcurveto
          -48 35 -52 33 -30 vhcurveto
          79 24 rlineto
          -16 29 -15 32 22 vvcurveto
          16 8 11 17 7 vhcurveto
          271 115 rlineto
          0 vlineto
          32 13 29 19 24 22 rrcurveto
          -107 -88 callsubr
        </CharString>
        <CharString name="dvKH_R">
          12 535 308 -27 callsubr
        </CharString>
        <CharString name="dvKH_RA">
          232 610 475 -44 callgsubr
          -861 -95 210 -93 hlineto
          -57 -11 -20 -55 vhcurveto
          -67 -93 hlineto
          6 callsubr
        </CharString>
        <CharString name="dvKH_SHA">
          781 848 109 callsubr
          -67 hlineto
          95 -16 -73 65 -114 hhcurveto
          -59 callgsubr
          82 vlineto
          -97 callsubr
          120 333 95 -665 135 callgsubr
          vlineto
          -69 callsubr
          144 119 72 111 41 hvcurveto
          194 -211 -39 callgsubr
          424 220 rmoveto
          -660 118 -28 callsubr
        </CharString>
        <CharString name="dvKH_TA">
          601 980 466 rmoveto
          -86 hlineto
          -85 -64 -21 -37 -43 hvcurveto
          57 -33 -62 35 -84 hhcurveto
          -59 callgsubr
          82 vlineto
          -97 callsubr
          120 675 vlineto
          84 callsubr
          -1230 135 callgsubr
          hlineto
          -69 callsubr
          99 87 34 58 58 hvcurveto
          -73 34 67 -46 96 7 callgsubr
        </CharString>
        <CharString name="dvKH_VA">
          600 978 299 rmoveto
          -102 callgsubr
          -64 -53 -22 -36 -37 hvcurveto
          41 -35 -55 24 -69 hhcurveto
          -59 callgsubr
          82 vlineto
          -97 callsubr
          120 673 77 callsubr
          -1229 135 callgsubr
          hlineto
          -69 callsubr
          114 98 45 74 57 hvcurveto
          -39 38 56 -20 59 hhcurveto
          -73 callgsubr
        </CharString>
        <CharString name="dvKH_YA">
          641 1020 352 -107 callsubr
          -480 -264 rmoveto
          -97 callsubr
          120 440 vlineto
          18 -68 callgsubr
          -34 -21 -29 -46 -22 vhcurveto
          63 -32 -64 40 -89 hhcurveto
          -59 callgsubr
          703 441 rmoveto
          -1270 135 callgsubr
          hlineto
          -69 callsubr
          131 110 60 94 50 hvcurveto
          -45 45 58 -24 64 -102 callsubr
          vlineto
          endchar
        </CharString>
        <CharString name="dvKHx">
          36 97 39 -101 callsubr
          443 262 rmoveto
          -97 callsubr
          120 333 95 -665 135 callgsubr
          vlineto
          -69 callsubr
          180 140 113 160 115 -77 84 -129 -59 callgsubr
          endchar
        </CharString>
        <CharString name="dvKHxA">
          243 87 16 -101 callsubr
          758 644 rmoveto
          -872 -95 236 -123 hlineto
          -51 -29 -33 -74 vhcurveto
          -72 -93 hlineto
          204 -265 -85 callsubr
        </CharString>
        <CharString name="dvKHx_MA">
          615 97 39 -101 callsubr
          899 324 rmoveto
          -177 202 177 hlineto
          -456 -264 rmoveto
          -97 callsubr
          120 398 -159 vlineto
          58 -33 -62 36 -85 hhcurveto
          -59 callgsubr
          677 441 rmoveto
          -1244 135 callgsubr
          hlineto
          -69 callsubr
          131 110 60 95 50 hvcurveto
          19 -42 49 callgsubr
        </CharString>
        <CharString name="dvKHx_R">
          12 560 -49 -101 callsubr
          -25 357 -27 callsubr
        </CharString>
        <CharString name="dvKHx_RA">
          232 532 -45 -101 callsubr
          78 520 -44 callgsubr
          -861 -95 210 -93 hlineto
          -57 -11 -20 -55 vhcurveto
          -67 -93 hlineto
          6 callsubr
        </CharString>
        <CharString name="dvKHx_SA">
          714 97 39 -101 callsubr
          808 307 rmoveto
          -75 callsubr
          165 -219 vlineto
          -788 219 rmoveto
          506 -123 hlineto
          -50 -22 -32 -67 -2 vhcurveto
          85 -21 -71 57 -107 hhcurveto
          -59 callgsubr
          82 vlineto
          -97 callsubr
          1011 215 rmoveto
          -1343 135 callgsubr
          hlineto
          -69 callsubr
          136 113 64 100 47 hvcurveto
          134 -192 89 callsubr
        </CharString>
        <CharString name="dvKHx_SHA">
          750 97 39 -101 callsubr
          720 401 1 callgsubr
          -36 hlineto
          95 -16 -73 65 -114 hhcurveto
          -59 callgsubr
          82 vlineto
          -97 callsubr
          120 333 95 -665 135 callgsubr
          vlineto
          -69 callsubr
          134 112 63 97 48 hvcurveto
          173 -188 -39 callgsubr
          424 220 rmoveto
          -660 118 -28 callsubr
        </CharString>
        <CharString name="dvKHx_TA">
          600 97 39 -101 callsubr
          882 427 rmoveto
          -86 hlineto
          -84 -64 -21 -36 -44 hvcurveto
          56 -33 -61 35 -84 hhcurveto
          -59 callgsubr
          82 vlineto
          -97 callsubr
          120 674 vlineto
          84 callsubr
          -1229 135 callgsubr
          hlineto
          -69 callsubr
          99 86 34 57 58 hvcurveto
          -72 34 67 -46 96 7 callgsubr
        </CharString>
        <CharString name="dvKHx_VA">
          608 97 39 -101 callsubr
          889 260 rmoveto
          -102 callgsubr
          -66 -55 -24 -38 -37 hvcurveto
          43 -35 -56 26 -72 hhcurveto
          -59 callgsubr
          82 vlineto
          -97 callsubr
          120 681 77 callsubr
          -1237 135 callgsubr
          hlineto
          -69 callsubr
          116 100 47 77 56 hvcurveto
          -42 39 58 -22 61 hhcurveto
          -73 callgsubr
        </CharString>
        <CharString name="dvKHx_YA">
          651 97 39 -101 callsubr
          933 313 -107 callsubr
          -490 -264 rmoveto
          -97 callsubr
          120 450 vlineto
          18 -68 callgsubr
          -36 -24 -31 -52 -21 vhcurveto
          64 -30 -65 42 -91 hhcurveto
          -59 callgsubr
          713 441 rmoveto
          -1280 135 callgsubr
          hlineto
          -69 callsubr
          134 112 63 98 49 hvcurveto
          -50 45 61 -26 67 -102 callsubr
          vlineto
          endchar
        </CharString>
        <CharString name="dvK_CA">
          636 1016 309 rmoveto
          -53 -50 -83 -104 -62 -41 29 53 62 54 37 124 vhcurveto
          97 -267 vlineto
          20 -27 -33 14 -47 hhcurveto
          -47 -35 -16 -23 -25 hvcurveto
          119 560 vlineto
          84 callsubr
          -1266 -55 callsubr
          32 40 50 38 20 -17 -20 15 vhcurveto
          97 hlineto
          -35 -20 -27 -35 -58 vvcurveto
          -92 74 -70 115 95 57 39 42 29 vhcurveto
          -160 -11 callgsubr
        </CharString>
        <CharString name="dvK_DA">
          521 456 565 rmoveto
          415 -59 -80 hlineto
          -50 -48 -13 -28 -34 hvcurveto
          13 -27 -31 7 -35 -16 callgsubr
          531 123 rmoveto
          136 95 -1150 -55 callsubr
          40 40 51 28 22 -10 -16 15 vhcurveto
          -4 vlineto
          82 callgsubr
          vhcurveto
          -96 callgsubr
          endchar
        </CharString>
        <CharString name="dvK_JA">
          598 670 459 rmoveto
          17 -29 -35 9 -40 -16 callgsubr
          123 520 -106 vlineto
          225 201 rmoveto
          -1228 -55 callsubr
          40 40 51 26 21 -9 -14 15 vhcurveto
          -6 6 vlineto
          5 -6 4 -7 3 -7 18 18 rcurveline
          77 -9 42 -38 -60 -53 callsubr
        </CharString>
        <CharString name="dvK_KA">
          751 870 278 rmoveto
          -46 callgsubr
          -34 45 53 60 39 42 61 6 6 0 -1 6 vhcurveto
          95 vlineto
          1 -8 -7 0 -8 hhcurveto
          -37 -35 -7 -14 -30 hvcurveto
          20 -30 -38 11 -44 -16 callgsubr
          123 414 vlineto
          484 hmoveto
          95 -1381 -95 365 -287 vlineto
          -107 callgsubr
          58 40 40 51 18 16 -4 -7 13 vhcurveto
          -17 -29 -10 -35 -40 vvcurveto
          -111 77 -79 116 47 36 17 25 27 vhcurveto
          -87 callgsubr
        </CharString>
        <CharString name="dvK_KHA">
          832 798 442 rmoveto
          -44 -22 -31 -54 -7 vhcurveto
          80 -19 -65 45 -73 hhcurveto
          -47 -36 -17 -24 -26 hvcurveto
          121 342 vlineto
          636 95 rmoveto
          -1461 -95 365 -287 hlineto
          -107 callgsubr
          59 39 39 55 40 30 -29 -41 2 vhcurveto
          1 -56 hlineto
          204 -265 -85 callsubr
        </CharString>
        <CharString name="dvK_LA">
          742 1119 477 rmoveto
          -47 callsubr
          -41 -34 -11 -19 -28 hvcurveto
          25 -32 -42 14 -49 -16 callgsubr
          123 663 vlineto
          225 95 rmoveto
          -1371 -55 callsubr
          40 40 51 35 25 -15 -23 14 vhcurveto
          -8 -26 -5 -30 -32 vvcurveto
          25 callsubr
          vhcurveto
          -92 callgsubr
        </CharString>
        <CharString name="dvK_MA">
          569 950 -33 callsubr
          -494 hmoveto
          201 -99 hlineto
          12 -26 -31 7 -34 -16 callgsubr
          715 218 rmoveto
          -1198 -55 callsubr
          40 40 51 40 27 -20 -29 13 vhcurveto
          30 31 rlineto
          -16 vlineto
          -28 -7 -16 -18 -29 -61 callsubr
          hlineto
          endchar
        </CharString>
        <CharString name="dvK_NA">
          233 836 155 callsubr
          -863 -95 379 -280 vlineto
          -46 callgsubr
          -33 40 53 60 38 40 62 5 6 0 -1 6 vhcurveto
          95 vlineto
          1 -8 -7 0 -8 hhcurveto
          -120 -92 -73 -124 -87 46 -64 75 -24 hvcurveto
          -58 -40 rlineto
          -35 -24 -13 -26 -26 vvcurveto
          -55 59 -52 51 -23 vhcurveto
          65 50 rlineto
          -26 25 -30 29 26 vvcurveto
          9 5 10 11 9 vhcurveto
          134 104 -1 1 7 4 6 5 6 6 rlinecurve
          -135 116 callgsubr
          41 40 50 168 callsubr
          -38 -42 -62 -6 -6 0 1 -5 165 callgsubr
          92 91 callsubr
          -46 -37 -18 -25 -27 hvcurveto
          123 vlineto
          endchar
        </CharString>
        <CharString name="dvK_NNA">
          754 883 344 -64 callgsubr
          -427 hmoveto
          168 -87 hlineto
          4 -18 -19 3 -21 -16 callgsubr
          900 218 rmoveto
          -1383 -55 callsubr
          40 40 51 37 26 -17 -26 14 vhcurveto
          -125 1 65 -60 119 hhcurveto
          119 71 65 125 hvcurveto
          212 134 -565 -11 callgsubr
        </CharString>
        <CharString name="dvK_PA">
          550 928 378 -57 callgsubr
          194 190 vlineto
          -472 hmoveto
          164 -86 hlineto
          4 -17 -18 2 -19 -16 callgsubr
          696 218 rmoveto
          -1179 -55 callsubr
          40 40 51 34 25 -15 -22 15 vhcurveto
          -127 6 70 -54 108 -19 callsubr
        </CharString>
        <CharString name="dvK_PHA">
          806 928 -15 callsubr
          -472 hmoveto
          164 -86 hlineto
          4 -17 -18 2 -19 -16 callgsubr
          952 123 rmoveto
          95 -1435 -95 365 -287 vlineto
          -107 callgsubr
          58 40 40 51 34 25 -15 -22 14 vhcurveto
          -128 7 69 -52 109 hhcurveto
          53 41 18 29 29 hvcurveto
          -99 callgsubr
        </CharString>
        <CharString name="dvK_P_RA">
          550 928 -34 callsubr
          -472 hmoveto
          164 -86 hlineto
          4 -17 -18 2 -19 -16 callgsubr
          696 218 rmoveto
          -1179 -55 callsubr
          40 40 51 35 25 -15 -24 15 vhcurveto
          8 -92 45 -49 69 -16 -36 callsubr
        </CharString>
        <CharString name="dvK_R">
          -10 469 565 rmoveto
          123 95 -619 -95 378 -287 hlineto
          -63 callgsubr
          41 111 callgsubr
        </CharString>
        <CharString name="dvK_RA">
          232 834 155 callsubr
          -861 -95 378 -287 vlineto
          -58 -40 -40 -51 -60 -34 45 53 60 39 42 61 6 6 0 -1 6 vhcurveto
          95 vlineto
          1 -8 -8 0 -7 hhcurveto
          -120 -93 -75 -124 -93 55 -70 85 -19 hvcurveto
          -127 -139 rlineto
          -38 callgsubr
        </CharString>
        <CharString name="dvK_SA">
          695 885 124 callgsubr
          165 -219 vlineto
          -617 219 rmoveto
          335 -123 hlineto
          -41 -15 -29 -42 -10 vhcurveto
          81 -28 -57 42 -86 167 callgsubr
          840 216 rmoveto
          -1323 -95 365 -287 hlineto
          -107 callgsubr
          60 38 38 53 42 35 -22 -44 4 vhcurveto
          -51 -30 callgsubr
        </CharString>
        <CharString name="dvK_SHA">
          707 456 565 rmoveto
          107 95 -590 -55 callsubr
          40 40 51 40 27 -20 -29 13 vhcurveto
          83 85 -4 5 -5 4 -4 4 rlinecurve
          77 hlineto
          -76 callgsubr
          -107 -99 hlineto
          221 -241 -21 callgsubr
          -13 2 -14 3 -14 hvcurveto
          10 -24 -29 6 -31 -16 callgsubr
          629 218 rmoveto
          -660 118 -28 callsubr
        </CharString>
        <CharString name="dvK_SS">
          -24 276 572 -60 callgsubr
          391 -255 rmoveto
          91 -260 vlineto
          -95 callgsubr
          endchar
        </CharString>
        <CharString name="dvK_SSA">
          203 276 572 -60 callgsubr
          305 88 rmoveto
          -252 -174 vlineto
          -95 callgsubr
          228 -317 142 callgsubr
          hlineto
          endchar
        </CharString>
        <CharString name="dvK_SS_MA">
          537 918 -33 callsubr
          -642 7 -60 callgsubr
          229 88 rmoveto
          -95 120 -157 -218 vlineto
          -95 callgsubr
          228 hlineto
          -1 -4 0 -5 -5 -61 callsubr
          95 hlineto
          endchar
        </CharString>
        <CharString name="dvK_SS_M_YA">
          904 1283 352 -107 callsubr
          -403 -199 rmoveto
          -146 199 274 hlineto
          -89 callgsubr
          -603 200 -60 callgsubr
          1230 88 rmoveto
          -1008 -95 120 -157 -211 hlineto
          -95 callgsubr
          222 hlineto
          -1 -5 -1 -6 -6 vvcurveto
          -24 11 -28 17 -39 vhcurveto
          55 callsubr
          125 175 hlineto
          -98 44 83 -52 94 -102 callsubr
          vlineto
          endchar
        </CharString>
        <CharString name="dvK_SS_VA">
          535 276 572 -60 callgsubr
          861 88 rmoveto
          -621 -95 397 -266 hlineto
          -102 callgsubr
          -79 -61 -33 -52 -37 hvcurveto
          -187 hlineto
          -95 callgsubr
          206 hlineto
          -1 -9 -1 -10 -10 -71 callsubr
        </CharString>
        <CharString name="dvK_SS_YA">
          551 930 352 -107 callsubr
          -654 7 -60 callgsubr
          238 88 rmoveto
          -95 141 vlineto
          18 -68 callgsubr
          -28 -15 -26 -33 -20 vhcurveto
          -230 hlineto
          -95 callgsubr
          183 hlineto
          -132 35 94 -72 111 -102 callsubr
          95 vlineto
          endchar
        </CharString>
        <CharString name="dvK_S_DDA">
          499 276 572 -60 callgsubr
          689 -7 80 callsubr
          -76 -73 -30 -68 -23 hvcurveto
          -190 hlineto
          -95 callgsubr
          242 hlineto
          23 -74 82 -24 88 -2 rrcurveto
          -96 callgsubr
          endchar
        </CharString>
        <CharString name="dvK_S_P_LA">
          1459 1837 477 rmoveto
          -47 callsubr
          -106 -66 -72 -107 -10 hvcurveto
          -19 -26 -30 -11 -34 63 callgsubr
          194 685 vlineto
          -972 -219 rmoveto
          -75 callsubr
          146 -190 vlineto
          -10 0 -10 1 -9 vhcurveto
          -579 93 callgsubr
          1606 218 rmoveto
          -2089 -55 callsubr
          43 40 53 30 27 -10 -23 16 vhcurveto
          -17 -84 hlineto
          -100 callgsubr
          164 hlineto
          -54 30 55 -25 75 hhcurveto
          42 38 10 16 33 hvcurveto
          -119 25 95 -78 138 -81 callsubr
        </CharString>
        <CharString name="dvK_S_P_RA">
          988 1366 -34 callsubr
          -501 -219 rmoveto
          -75 callsubr
          170 -177 vlineto
          -15 1 -14 1 -13 vhcurveto
          -604 93 callgsubr
          1134 218 rmoveto
          -1617 -55 callsubr
          43 40 53 30 27 -10 -23 16 vhcurveto
          -17 -84 hlineto
          -100 callgsubr
          198 hlineto
          21 -29 30 -18 37 -9 -36 callsubr
        </CharString>
        <CharString name="dvK_S_TA">
          543 276 572 -60 callgsubr
          869 88 rmoveto
          -618 -95 395 -99 -86 hlineto
          -85 -64 -21 -37 -43 hvcurveto
          -237 hlineto
          -95 callgsubr
          229 hlineto
          -8 -25 -4 -26 -29 vvcurveto
          -79 callgsubr
        </CharString>
        <CharString name="dvK_S_TTA">
          449 276 572 -60 callgsubr
          673 -7 rmoveto
          102 95 -531 -95 313 -96 -16 hlineto
          -76 -1 -61 -23 -43 -37 rrcurveto
          -230 hlineto
          -95 callgsubr
          220 hlineto
          -7 -22 -4 -24 -25 -58 callsubr
        </CharString>
        <CharString name="dvK_TA">
          355 957 155 callsubr
          -984 -95 470 -102 -387 -95 69 vlineto
          29 hlineto
          -37 -35 -19 -48 -61 vvcurveto
          -140 94 -83 125 callgsubr
          -6 -8 0 -5 hhcurveto
          -76 -44 48 78 89 53 50 110 hvcurveto
          64 -368 118 262 hlineto
          62 46 44 56 67 47 -41 -76 -82 -40 -44 -63 -9 -13 1 2 -8 vhcurveto
          -95 vlineto
          -2 8 20 -1 7 hhcurveto
          126 90 82 141 122 -83 87 -129 -54 -40 -17 -26 -28 hvcurveto
          146 vlineto
          endchar
        </CharString>
        <CharString name="dvK_THA">
          684 1062 -22 callgsubr
          48 callgsubr
          99 -65 62 -98 -106 -59 -66 -79 -20 4 -15 3 -11 vhcurveto
          110 hlineto
          -2 9 -3 10 16 vvcurveto
          32 16 27 37 36 16 -27 -34 -60 -55 -35 -108 -33 vhcurveto
          60 -26 -52 43 -74 167 callgsubr
          121 118 95 -601 -95 365 -287 vlineto
          -107 callgsubr
          58 37 40 51 45 24 -26 -34 11 vhcurveto
          -150 23 114 -84 125 41 callgsubr
        </CharString>
        <CharString name="dvK_TTA">
          484 456 565 rmoveto
          412 -96 -16 hlineto
          -58 -1 -49 -14 -39 -22 rrcurveto
          34 -34 -48 19 -58 -16 callgsubr
          528 123 rmoveto
          102 95 -1113 -55 callsubr
          40 40 51 36 26 -15 -25 15 vhcurveto
          -17 -31 -9 -36 -38 -58 callsubr
        </CharString>
        <CharString name="dvK_T_RA">
          577 955 400 rmoveto
          54 -48 -66 27 -77 hhcurveto
          -35 -38 -6 -10 -33 hvcurveto
          13 -26 -31 7 -35 -16 callgsubr
          123 499 77 callsubr
          -1206 -55 callsubr
          40 40 51 21 18 -6 -10 14 vhcurveto
          -42 vlineto
          7 4 9 5 9 4 2 -4 rcurveline
          10 10 rlineto
          15 35 44 13 44 hhcurveto
          69 -1 50 -31 34 -45 -293 -178 rcurveline
          80 callgsubr
        </CharString>
        <CharString name="dvK_T_VA">
          892 1270 299 rmoveto
          -102 callgsubr
          -43 -37 -10 -17 -32 hvcurveto
          -176 hlineto
          -57 -47 -10 -17 -38 hvcurveto
          30 -34 -46 16 -52 -16 callgsubr
          123 814 77 callsubr
          -1521 -55 callsubr
          40 40 51 27 21 -9 -16 15 vhcurveto
          -23 -36 -12 -44 -49 vvcurveto
          -27 callgsubr
          vhcurveto
          -66 callgsubr
          84 hlineto
          -10 -25 -5 -27 -29 -71 callsubr
        </CharString>
        <CharString name="dvK_T_YA">
          873 1266 352 -107 callsubr
          -810 hmoveto
          535 -8 callsubr
          -25 -12 -23 -24 -18 vhcurveto
          21 -24 -48 29 -78 hhcurveto
          -54 -46 -10 -18 -37 hvcurveto
          31 -34 -44 16 -54 -16 callgsubr
          1033 218 rmoveto
          -1516 -55 callsubr
          40 40 51 28 23 -11 -16 15 vhcurveto
          -23 -36 -11 -43 -48 vvcurveto
          -27 callgsubr
          vhcurveto
          150 callgsubr
          59 45 80 10 9 -1 -2 8 hvcurveto
          -163 22 104 -90 124 -102 callsubr
          vlineto
          endchar
        </CharString>
        <CharString name="dvK_VA">
          552 930 299 rmoveto
          -102 callgsubr
          -46 -40 -11 -20 -33 hvcurveto
          15 -28 -33 8 -38 -16 callgsubr
          123 470 77 callsubr
          -1177 -55 callsubr
          40 40 51 17 15 -4 -6 12 vhcurveto
          -13 -28 -7 -31 -34 -71 callsubr
        </CharString>
        <CharString name="dvK_V_YA">
          917 1296 352 -107 callsubr
          -430 -80 rmoveto
          115 callsubr
          -49 -43 -13 -22 -34 hvcurveto
          17 -29 -36 10 -41 -16 callgsubr
          123 565 vlineto
          -89 callgsubr
          7 -55 16 -46 22 -38 rrcurveto
          -31 -30 -37 -20 -51 138 callsubr
          653 277 rmoveto
          -1546 -55 callsubr
          40 40 51 23 18 -6 -11 14 vhcurveto
          -11 -26 -6 -29 -31 vvcurveto
          141 callsubr
          82 63 32 45 44 vhcurveto
          -34 42 51 -18 55 -102 callsubr
          vlineto
          endchar
        </CharString>
        <CharString name="dvK_YA">
          641 1020 352 -107 callsubr
          -564 hmoveto
          289 -8 callsubr
          -34 -21 -29 -47 -22 vhcurveto
          52 -27 -50 36 -67 167 callgsubr
          787 216 rmoveto
          -1270 -55 callsubr
          37 40 51 42 24 -22 -31 12 vhcurveto
          -145 30 99 -80 116 -102 callsubr
          vlineto
          endchar
        </CharString>
        <CharString name="dvKx">
          -11 -17 callsubr
          289 545 rmoveto
          107 95 -590 -55 callsubr
          40 40 51 40 111 callgsubr
        </CharString>
        <CharString name="dvKxA">
          220 -17 callsubr
          655 545 rmoveto
          95 -849 -95 365 -287 vlineto
          -58 -40 -40 -50 -61 -34 45 53 60 39 42 61 6 6 0 -1 6 vhcurveto
          95 vlineto
          1 -8 -7 0 -8 hhcurveto
          -120 -93 -75 -124 -111 77 -79 116 17 callsubr
        </CharString>
        <CharString name="dvKx_BA">
          618 -17 callsubr
          829 277 71 callgsubr
          -64 -53 -20 -33 -39 hvcurveto
          21 -30 -40 12 -45 -16 callgsubr
          123 540 vlineto
          -63 -373 -61 callgsubr
          -1247 -55 callsubr
          40 40 51 33 25 -14 -21 14 vhcurveto
          -6 -21 -3 -22 -23 45 callgsubr
        </CharString>
        <CharString name="dvKx_KxA">
          791 586 -24 callsubr
          324 258 rmoveto
          -46 callgsubr
          -34 45 53 60 39 42 61 6 6 0 -1 6 vhcurveto
          95 vlineto
          1 -8 -7 0 -8 hhcurveto
          -47 -43 -12 -21 -35 hvcurveto
          27 -33 -44 16 -52 -16 callgsubr
          123 454 vlineto
          484 hmoveto
          95 -1421 -95 365 -287 vlineto
          -105 callgsubr
          -110 vlineto
          1 -5 -5 1 -5 hhcurveto
          -16 callsubr
          -37 30 -30 37 38 30 30 37 19 -7 17 -13 12 hvcurveto
          85 293 hlineto
          58 40 40 51 35 24 -15 -23 15 vhcurveto
          -9 -23 -5 -26 -28 vvcurveto
          -111 77 -79 116 47 36 17 25 27 vhcurveto
          -87 callgsubr
        </CharString>
        <CharString name="dvKx_MA">
          568 -17 callsubr
          782 343 rmoveto
          -177 202 177 hlineto
          -293 -193 rmoveto
          -15 vlineto
          -12 -3 -10 -5 -7 -7 rrcurveto
          -171 223 rmoveto
          200 -99 hlineto
          12 -26 -30 7 -34 -16 callgsubr
          714 218 rmoveto
          -1197 -55 callsubr
          40 40 51 40 27 -20 -29 13 vhcurveto
          -10 -9 -5 -13 -17 -61 callsubr
          hlineto
          endchar
        </CharString>
        <CharString name="dvKx_PHA">
          805 -17 callsubr
          760 358 rmoveto
          -64 callsubr
          194 190 vlineto
          -471 hmoveto
          163 -86 hlineto
          4 -17 -17 2 -19 -16 callgsubr
          951 123 rmoveto
          95 -1434 -95 365 -287 vlineto
          -107 callgsubr
          58 40 40 51 33 25 -14 -21 14 vhcurveto
          -130 6 70 -52 109 hhcurveto
          53 41 18 29 29 hvcurveto
          -99 callgsubr
        </CharString>
        <CharString name="dvKx_PHxA">
          806 -17 callsubr
          533 70 -101 callsubr
          228 288 rmoveto
          -64 callsubr
          194 190 vlineto
          -472 hmoveto
          164 -86 hlineto
          4 -17 -18 2 -19 -16 callgsubr
          952 123 rmoveto
          95 -1435 -95 365 -287 vlineto
          -107 callgsubr
          58 40 40 51 34 25 -15 -22 14 vhcurveto
          -128 7 69 -52 109 hhcurveto
          53 41 18 29 29 hvcurveto
          -99 callgsubr
        </CharString>
        <CharString name="dvKx_R">
          -10 304 -63 -101 callsubr
          165 628 rmoveto
          123 95 -619 -95 378 -287 hlineto
          -63 callgsubr
          41 111 callgsubr
        </CharString>
        <CharString name="dvKx_RA">
          232 303 -44 -101 callsubr
          531 609 rmoveto
          95 -861 -95 378 -287 vlineto
          -58 -40 -40 -51 -60 -34 45 53 60 39 42 61 6 6 0 -1 6 vhcurveto
          95 vlineto
          1 -8 -8 0 -7 hhcurveto
          -120 -93 -75 -124 -93 55 -70 85 -19 hvcurveto
          -127 -139 rlineto
          -38 callgsubr
        </CharString>
        <CharString name="dvKx_TA">
          576 -17 callsubr
          787 446 rmoveto
          -86 hlineto
          -66 -53 -13 -23 -41 hvcurveto
          33 -34 -47 113 callsubr
          123 498 vlineto
          84 callsubr
          -1204 -55 callsubr
          40 40 51 38 26 -17 -27 16 vhcurveto
          -16 -32 -8 -37 -41 vvcurveto
          -79 callgsubr
        </CharString>
        <CharString name="dvL">
          -74 358 100 rmoveto
          -86 callsubr
          63 37 32 -25 -20 12 vhcurveto
          59 69 rlineto
          40 -31 -46 29 -69 hhcurveto
          -74 -56 -30 -67 -83 callsubr
          25 callsubr
          hvcurveto
          -385 561 rmoveto
          555 95 -555 hlineto
          endchar
        </CharString>
        <CharString name="dvLA">
          176 778 -22 callgsubr
          -805 -95 580 -88 hlineto
          3 -12 -13 2 -13 hhcurveto
          -75 -105 callsubr
          65 11 10 -1 -2 10 vhcurveto
          -386 119 565 106 vlineto
          endchar
        </CharString>
        <CharString name="dvLL">
          226 554 89 rmoveto
          119 92 77 121 117 -88 79 -125 -76 -41 -25 -34 -32 hvcurveto
          25 callgsubr
          -4 300 rmoveto
          60 36 -41 -61 -61 -36 -43 -58 157 callsubr
          -302 -206 rmoveto
          60 callsubr
          -275 382 rmoveto
          855 95 -855 hlineto
          endchar
        </CharString>
        <CharString name="dvLLA">
          226 646 287 rmoveto
          -61 -36 -43 -58 -43 -41 26 28 -26 vhcurveto
          63 15 17 89 76 hhcurveto
          60 36 -41 -61 hvcurveto
          -398 -104 rmoveto
          60 callsubr
          580 382 rmoveto
          95 -855 -95 532 -86 vlineto
          -47 -8 -30 -21 -25 -26 rrcurveto
          25 callgsubr
          119 92 77 121 95 -59 71 -89 22 hvcurveto
          90 vlineto
          endchar
        </CharString>
        <CharString name="dvLL_YA">
          656 1035 352 -107 callsubr
          -483 -382 rmoveto
          157 callsubr
          43 31 -21 -34 14 hvcurveto
          2 -10 2 -9 3 -9 rrcurveto
          1 -6 0 -7 -6 vvcurveto
          -61 -36 -43 -58 vhcurveto
          -304 hmoveto
          60 callsubr
          1010 477 rmoveto
          -1285 -95 787 -8 callsubr
          -32 -19 -28 -41 -21 vhcurveto
          51 -37 -63 31 -78 hhcurveto
          -76 -41 -25 -34 -32 hvcurveto
          25 callgsubr
          74 63 29 52 38 hvcurveto
          -38 42 54 -19 57 -102 callsubr
          vlineto
          endchar
        </CharString>
        <CharString name="dvL_BA">
          556 871 192 -61 callgsubr
          -1185 -95 961 66 callsubr
          -64 -53 -20 -33 -39 hvcurveto
          18 -27 -34 12 -44 -104 callgsubr
          16 16 -5 -7 13 vhcurveto
          -11 -26 -6 -30 -31 45 callgsubr
        </CharString>
        <CharString name="dvL_BHA">
          501 882 96 callsubr
          -16 -17 -3 -4 -15 vhcurveto
          2 -555 -95 523 -11 vlineto
          55 callgsubr
          2 0 hlineto
          2 7 8 1 8 38 callsubr
          -49 vlineto
          11 -23 -28 6 -32 -104 callgsubr
          28 26 -15 -15 15 vhcurveto
          -23 -9 -14 -22 -28 38 callgsubr
        </CharString>
        <CharString name="dvL_DA">
          512 999 57 callsubr
          -1141 -95 908 -78 -84 vlineto
          -69 -55 -17 -29 -39 hvcurveto
          25 -30 -38 16 -52 -104 callgsubr
          21 19 -8 -11 15 vhcurveto
          -13 -28 -7 -32 -34 vvcurveto
          90 callsubr
          vhcurveto
          -82 callgsubr
          endchar
        </CharString>
        <CharString name="dvL_DDA">
          479 945 143 callgsubr
          -1108 -95 856 -59 -80 hlineto
          -53 -53 -15 -33 -34 hvcurveto
          15 -25 -32 9 -38 -104 callgsubr
          19 17 -6 -9 14 vhcurveto
          -4 0 -5 -4 vvcurveto
          82 callgsubr
          vhcurveto
          -96 callgsubr
          endchar
        </CharString>
        <CharString name="dvL_DDHA">
          489 955 143 callgsubr
          -1118 -95 865 -86 -23 hlineto
          -67 -1 -60 -15 -47 -29 rrcurveto
          29 -30 -41 19 -56 -104 callgsubr
          21 19 -8 -11 16 vhcurveto
          -22 -33 -12 -41 -48 vvcurveto
          -135 107 -99 153 138 82 70 96 -7 callgsubr
        </CharString>
        <CharString name="dvL_D_RA">
          493 980 57 callsubr
          -1122 -95 889 -78 -84 vlineto
          -63 -51 -14 -25 -39 hvcurveto
          21 -28 -36 13 -47 -104 callgsubr
          15 13 -4 -6 13 vhcurveto
          -17 -30 -8 -35 -38 vvcurveto
          -100 59 -78 96 -24 vhcurveto
          59 callsubr
          endchar
        </CharString>
        <CharString name="dvL_GA">
          488 1090 -22 callgsubr
          -1117 -95 643 -107 hlineto
          15 -27 -33 9 -39 hhcurveto
          -74 -59 -106 callgsubr
          35 33 63 37 38 -25 -20 12 vhcurveto
          6 7 rlineto
          -29 -1 -13 -21 -36 hhcurveto
          -29 -25 13 0 hvcurveto
          89 callgsubr
        </CharString>
        <CharString name="dvL_HA">
          466 965 97 callgsubr
          103 95 -1095 -95 876 -65 -156 vlineto
          -43 -37 -10 -21 -26 hvcurveto
          8 -21 -24 5 -28 -104 callgsubr
          11 10 -2 -4 10 vhcurveto
          2 -60 44 -32 23 -14 rrcurveto
          -44 -34 -21 -46 -47 vvcurveto
          -91 81 -98 181 144 callsubr
          vhcurveto
          -72 callsubr
        </CharString>
        <CharString name="dvL_JA">
          569 1172 -22 callgsubr
          -1199 -95 974 -106 -339 hlineto
          14 -26 -30 9 -38 -104 callgsubr
          23 21 -10 -12 16 vhcurveto
          -5 6 vlineto
          6 -6 6 -6 3 -6 14 16 rcurveline
          78 -8 42 -38 -61 -53 callsubr
        </CharString>
        <CharString name="dvL_JxA">
          573 659 -16 -101 callsubr
          517 676 rmoveto
          -1203 -95 978 -106 -343 hlineto
          14 -26 -30 9 -38 -104 callgsubr
          25 23 -12 -13 16 vhcurveto
          -2 2 vlineto
          6 -6 6 -6 3 -6 14 17 rcurveline
          80 -8 44 -39 -61 -53 callsubr
        </CharString>
        <CharString name="dvL_KA">
          728 1330 155 callsubr
          -1357 -95 873 -287 vlineto
          -46 callgsubr
          -34 45 53 60 39 42 61 6 6 0 -1 6 vhcurveto
          95 vlineto
          1 -8 -7 0 -8 hhcurveto
          -47 -42 -11 -22 -35 hvcurveto
          24 -29 -38 16 -51 -104 callgsubr
          17 17 -6 -7 13 vhcurveto
          -15 -29 -9 -33 -38 vvcurveto
          -111 77 -79 116 47 36 17 25 27 vhcurveto
          -87 callgsubr
        </CharString>
        <CharString name="dvL_KHA">
          770 1372 -22 callgsubr
          -1399 -95 763 -123 hlineto
          -41 -19 -30 -46 -9 vhcurveto
          81 -11 -80 39 -69 hhcurveto
          -74 -53 -106 callgsubr
          29 33 47 45 14 -23 -33 1 vhcurveto
          -68 vlineto
          204 -265 -85 callsubr
        </CharString>
        <CharString name="dvL_K_YA">
          1105 1484 352 -107 callsubr
          -523 hmoveto
          248 -8 callsubr
          -22 -10 -21 -20 -18 vhcurveto
          37 -25 -50 27 -63 -16 callgsubr
          746 218 rmoveto
          -1734 -95 870 -287 hlineto
          -46 callgsubr
          -34 45 53 60 39 42 61 6 6 0 -1 6 vhcurveto
          95 vlineto
          1 -8 -7 0 -8 hhcurveto
          -46 -42 -11 -21 -34 hvcurveto
          24 -29 -38 15 -50 -104 callgsubr
          16 16 -5 -7 13 vhcurveto
          -16 -29 -9 -33 -39 vvcurveto
          -111 77 -79 116 47 36 17 25 27 vhcurveto
          -59 callsubr
          63 45 38 55 21 16 -6 -10 12 vhcurveto
          -10 -3 -9 -1 -11 -2 rrcurveto
          -167 21 105 -92 125 -102 callsubr
          vlineto
          endchar
        </CharString>
        <CharString name="dvL_LA">
          674 1276 -22 callgsubr
          -1303 -95 1078 60 callgsubr
          -39 -34 -10 -17 -27 hvcurveto
          20 -28 -36 13 -46 -104 callgsubr
          16 14 -4 -7 13 vhcurveto
          -15 -32 -8 -38 -43 vvcurveto
          25 callsubr
          vhcurveto
          -92 callgsubr
        </CharString>
        <CharString name="dvL_L_YA">
          1060 1439 352 -107 callsubr
          84 callsubr
          -1689 -95 1191 -8 callsubr
          -24 -11 -22 -22 -18 vhcurveto
          38 -30 -47 26 -65 hhcurveto
          -74 -56 -30 -67 -56 callgsubr
          -41 -35 -11 -19 -28 hvcurveto
          22 -28 -37 14 -48 -104 callgsubr
          18 17 -6 -8 14 vhcurveto
          -15 -31 -7 -38 -41 vvcurveto
          25 callsubr
          vhcurveto
          -86 callgsubr
          63 15 15 -4 -7 13 vhcurveto
          -11 -2 -10 -2 -12 -2 rrcurveto
          -167 21 105 -92 125 -102 callsubr
          vlineto
          endchar
        </CharString>
        <CharString name="dvL_MA">
          508 889 -33 callsubr
          221 95 rmoveto
          -1137 -95 623 -100 hlineto
          11 -23 -27 6 -32 -104 callgsubr
          30 26 -16 -17 16 vhcurveto
          -26 -8 -14 -17 -28 -61 callsubr
          hlineto
          endchar
        </CharString>
        <CharString name="dvL_PA">
          494 872 378 -57 callgsubr
          194 190 77 callsubr
          -1123 -95 591 -89 hlineto
          4 -15 -17 2 -18 -104 callgsubr
          16 15 -5 -7 13 vhcurveto
          -2 vlineto
          110 callsubr
        </CharString>
        <CharString name="dvL_PHA">
          760 882 51 callsubr
          -1389 -95 601 -91 vlineto
          5 -18 -20 3 -22 -104 callgsubr
          20 19 -8 -10 15 vhcurveto
          -141 1 71 -56 113 hhcurveto
          53 41 18 29 29 hvcurveto
          -99 callgsubr
        </CharString>
        <CharString name="dvL_SA">
          641 831 124 callgsubr
          165 -219 vlineto
          223 314 rmoveto
          -1269 -95 764 -123 hlineto
          -43 -17 -31 -48 -8 vhcurveto
          81 -14 -73 41 -72 hhcurveto
          -75 -54 -106 callgsubr
          31 33 54 43 21 -31 -31 vhcurveto
          -53 -30 callgsubr
        </CharString>
        <CharString name="dvL_TA">
          508 1109 -22 callgsubr
          -1136 -95 913 -99 -86 hlineto
          -64 -52 -12 -22 -41 hvcurveto
          30 -30 -42 20 -57 -104 callgsubr
          20 19 -7 -11 15 vhcurveto
          -26 -37 -13 -45 -52 vvcurveto
          -79 callgsubr
        </CharString>
        <CharString name="dvL_THA">
          571 528 -22 callgsubr
          -555 -95 555 hlineto
          144 -108 rmoveto
          -33 callgsubr
          -51 -40 -33 -79 -30 vhcurveto
          14 17 -13 17 -16 15 -20 12 rlinecurve
          338 203 rmoveto
          48 callgsubr
          99 -65 62 -98 -106 -59 -66 -79 -17 2 -14 3 -13 vhcurveto
          2 -12 -13 1 -14 -104 callgsubr
          19 18 -7 -9 14 vhcurveto
          -19 -5 -21 -6 -23 -5 rrcurveto
          -167 13 120 -93 132 41 callgsubr
        </CharString>
        <CharString name="dvL_TH_YA">
          1016 122 callsubr
          886 -213 -107 callsubr
          -410 95 rmoveto
          -95 135 35 callsubr
          -12 2 -17 3 -9 vhcurveto
          110 hlineto
          -1 6 -2 14 7 vvcurveto
          32 16 27 37 36 16 -27 -34 -62 -58 -36 -116 -33 vhcurveto
          44 -20 -42 53 -78 hhcurveto
          -47 -55 -25 -66 -106 callsubr
          76 30 23 38 32 15 -22 -27 7 vhcurveto
          -162 29 121 -69 138 hhcurveto
          98 75 40 53 60 hvcurveto
          -50 45 62 -27 67 -102 callsubr
          95 vlineto
          endchar
        </CharString>
        <CharString name="dvL_TTA">
          428 928 565 rmoveto
          102 95 -1057 -95 839 -96 -16 hlineto
          -60 -1 -50 -15 -40 -23 rrcurveto
          31 -31 -42 21 -59 -104 callgsubr
          23 21 -9 -12 15 vhcurveto
          -24 -35 -13 -42 -45 -58 callsubr
        </CharString>
        <CharString name="dvL_TTHA">
          496 910 265 rmoveto
          -67 -47 -45 -75 -74 -53 43 70 78 61 32 64 vhcurveto
          74 -1 50 -36 -74 vvcurveto
          188 300 rmoveto
          95 -1125 -95 777 -98 vlineto
          -39 -4 -37 -11 -33 -18 rrcurveto
          29 -30 -41 19 -56 -104 callgsubr
          20 18 -7 -10 15 vhcurveto
          -19 -28 -11 -35 -42 vvcurveto
          -128 101 -80 161 callsubr
          93 83 121 75 callgsubr
        </CharString>
        <CharString name="dvL_VA">
          521 1123 -22 callgsubr
          -1150 -95 926 -266 hlineto
          -102 callgsubr
          -54 -46 -16 -27 -36 hvcurveto
          20 -27 -35 12 -45 -104 callgsubr
          16 14 -4 -7 13 vhcurveto
          -12 -27 -7 -30 -33 -71 callsubr
        </CharString>
        <CharString name="dvL_V_DDA">
          800 1266 143 callgsubr
          -1429 -95 1177 -59 -80 hlineto
          172 callgsubr
          -25 5 -21 9 -17 hvcurveto
          -70 -19 -45 -46 -71 hhcurveto
          -63 -44 41 64 63 46 42 58 22 17 -2 -7 20 hvcurveto
          102 vlineto
          115 callsubr
          -54 -47 -16 -27 -35 hvcurveto
          20 -28 -35 12 -45 -104 callgsubr
          16 15 -5 -6 13 vhcurveto
          -12 -27 -7 -31 -32 vvcurveto
          -130 97 -70 122 124 65 76 71 29 vhcurveto
          32 -12 37 -5 39 -1 rrcurveto
          -5 callgsubr
          -70 -47 -63 13 21 -44 vhcurveto
          -105 vlineto
          -18 45 53 -8 56 hhcurveto
          139 85 72 95 91 -58 145 callgsubr
          hvcurveto
          -82 1 -41 9 39 vvcurveto
          35 30 13 33 vhcurveto
          196 2 hlineto
          0 vlineto
          endchar
        </CharString>
        <CharString name="dvL_YA">
          552 931 352 -107 callsubr
          84 callsubr
          -1181 -95 683 -8 callsubr
          -23 -10 -21 -21 -18 vhcurveto
          36 -30 -47 26 -64 -104 callgsubr
          15 14 -4 -6 13 vhcurveto
          -11 -3 -12 -2 -12 -2 rrcurveto
          -167 21 105 -92 125 -102 callsubr
          vlineto
          endchar
        </CharString>
        <CharString name="dvM">
          -223 471 366 rmoveto
          -262 199 171 95 -407 -81 callgsubr
          262 hlineto
          endchar
        </CharString>
        <CharString name="dvMA">
          5 -27 565 rmoveto
          120 -208 hlineto
          -28 -7 -16 -18 -29 -61 callsubr
          95 -634 hlineto
          413 -95 rmoveto
          -202 -177 202 vlineto
          endchar
        </CharString>
        <CharString name="dvM_BA">
          387 766 297 71 callgsubr
          -107 -78 -56 -83 -29 hvcurveto
          -184 199 557 hlineto
          -63 -373 -61 callgsubr
          -1017 -81 callgsubr
          173 hlineto
          -112 13 98 -74 109 hhcurveto
          69 57 26 40 38 hvcurveto
          -143 -88 callsubr
        </CharString>
</ttFont>
